<svg width="41" height="40" viewBox="0 0 41 40" fill="none" xmlns="http://www.w3.org/2000/svg">
<path d="M33.5832 39.317C25.062 40.2277 16.4683 40.2277 7.94705 39.317C6.29231 39.142 4.74746 38.404 3.57005 37.2262C2.39264 36.0485 1.65382 34.502 1.47675 32.8447C0.567645 24.3088 0.567645 15.7003 1.47675 7.16442C1.65149 5.50684 2.38815 3.95933 3.56391 2.7799C4.73967 1.60046 6.28348 0.860371 7.93797 0.683002C16.4592 -0.227667 25.0529 -0.227667 33.5742 0.683002C35.2289 0.858045 36.7737 1.59597 37.9511 2.77375C39.1286 3.95153 39.8674 5.49799 40.0444 7.15533C40.9536 15.6912 40.9536 24.2997 40.0444 32.8356C39.8697 34.4932 39.133 36.0407 37.9573 37.2201C36.7815 38.3995 35.2377 39.1396 33.5832 39.317Z" fill="#E60000"/>
<path d="M32.6563 13.9884C32.1572 12.4499 30.5056 11.5181 28.9855 11.3045C23.5183 10.7227 18.0048 10.7227 12.5376 11.3045C11.0175 11.5181 9.36139 12.4408 8.86681 13.9884C8.08867 17.9602 8.08867 22.0455 8.86681 26.0172C9.36592 27.5535 11.0175 28.4875 12.5376 28.7012C18.0048 29.283 23.5183 29.283 28.9855 28.7012C30.5056 28.4875 32.1617 27.5649 32.6563 26.0172C33.4344 22.0455 33.4344 17.9602 32.6563 13.9884ZM17.776 24.7923V15.2111L25.5621 20.0017C22.9372 21.6175 20.3895 23.1833 17.776 24.7923Z" fill="white"/>
</svg>
