<svg width="41" height="40" viewBox="0 0 41 40" fill="none" xmlns="http://www.w3.org/2000/svg">
<g clip-path="url(#clip0_306_14814)">
<path fill-rule="evenodd" clip-rule="evenodd" d="M30.6751 40H10.7094C8.06179 40 5.52261 38.9464 3.65047 37.0711C1.77832 35.1957 0.726563 32.6522 0.726562 30V10C0.726563 7.34784 1.77832 4.8043 3.65047 2.92893C5.52261 1.05357 8.06179 0 10.7094 0L30.6751 0C33.3227 0 35.8619 1.05357 37.734 2.92893C39.6062 4.8043 40.6579 7.34784 40.6579 10V30C40.6579 32.6522 39.6062 35.1957 37.734 37.0711C35.8619 38.9464 33.3227 40 30.6751 40Z" fill="#2864B4"/>
<path fill-rule="evenodd" clip-rule="evenodd" d="M19.4444 11.25H30.6751C32.1158 11.2518 33.5022 10.6988 34.5473 9.70541C35.5924 8.71201 36.2164 7.3542 36.2901 5.91286C36.3638 4.47153 35.8817 3.05694 34.9434 1.96173C34.0051 0.866514 32.6825 0.17447 31.2491 0.02875C31.0582 0.018125 30.8691 0 30.6751 0H10.7094C8.06179 0 5.52261 1.05357 3.65047 2.92893C1.77832 4.8043 0.726563 7.34783 0.726562 10L0.726563 30C0.726563 25.0272 2.69861 20.2581 6.20889 16.7417C9.71916 13.2254 14.4801 11.25 19.4444 11.25Z" fill="#417DCD"/>
<path fill-rule="evenodd" clip-rule="evenodd" d="M30.6743 20.0005C28.6998 20.0005 26.7698 20.587 25.1281 21.6858C23.4864 22.7846 22.2069 24.3464 21.4513 26.1737C20.6957 28.0009 20.498 30.0116 20.8832 31.9514C21.2684 33.8912 22.2192 35.673 23.6153 37.0716C25.0114 38.4701 26.7902 39.4225 28.7267 39.8083C30.6632 40.1942 32.6704 39.9962 34.4945 39.2393C36.3186 38.4824 37.8778 37.2007 38.9747 35.5562C40.0716 33.9117 40.6571 31.9783 40.6571 30.0005V10.0005C40.6571 12.6527 39.6053 15.1962 37.7332 17.0716C35.861 18.9469 33.3219 20.0005 30.6743 20.0005Z" fill="#0F4B9B"/>
<path d="M11.9565 15.6243H9.46075C8.77157 15.6243 8.21289 16.1839 8.21289 16.8743V31.2493C8.21289 31.9396 8.77157 32.4993 9.46075 32.4993H11.9565C12.6456 32.4993 13.2043 31.9396 13.2043 31.2493V16.8743C13.2043 16.1839 12.6456 15.6243 11.9565 15.6243Z" fill="white"/>
<path d="M10.7095 13.1255C12.4324 13.1255 13.8291 11.7264 13.8291 10.0005C13.8291 8.2746 12.4324 6.87549 10.7095 6.87549C8.98655 6.87549 7.58984 8.2746 7.58984 10.0005C7.58984 11.7264 8.98655 13.1255 10.7095 13.1255Z" fill="white"/>
<path fill-rule="evenodd" clip-rule="evenodd" d="M21.9406 17.899C22.4438 17.018 23.1704 16.2857 24.0469 15.7764C24.9235 15.2672 25.9188 14.999 26.9321 14.999C30.106 14.999 33.1713 16.874 33.1713 21.874V31.249C33.1713 31.5805 33.0399 31.8985 32.8058 32.1329C32.5718 32.3673 32.2544 32.499 31.9235 32.499H29.4278C29.0968 32.499 28.7794 32.3673 28.5454 32.1329C28.3114 31.8985 28.1799 31.5805 28.1799 31.249V22.499C28.1799 21.6702 27.8512 20.8754 27.2662 20.2893C26.6811 19.7033 25.8877 19.374 25.0603 19.374C24.2329 19.374 23.4394 19.7033 22.8544 20.2893C22.2693 20.8754 21.9406 21.6702 21.9406 22.499V31.249C21.9406 31.5805 21.8092 31.8985 21.5752 32.1329C21.3411 32.3673 21.0237 32.499 20.6928 32.499H18.1971C17.8661 32.499 17.5487 32.3673 17.3147 32.1329C17.0807 31.8985 16.9492 31.5805 16.9492 31.249V16.874C16.9492 16.5425 17.0807 16.2246 17.3147 15.9901C17.5487 15.7557 17.8661 15.624 18.1971 15.624H20.6928C21.0237 15.624 21.3411 15.7557 21.5752 15.9901C21.8092 16.2246 21.9406 16.5425 21.9406 16.874V17.899Z" fill="white"/>
</g>
<defs>
<clipPath id="clip0_306_14814">
<rect width="39.9314" height="40" fill="white" transform="translate(0.726562)"/>
</clipPath>
</defs>
</svg>
