<svg width="41" height="40" viewBox="0 0 41 40" fill="none" xmlns="http://www.w3.org/2000/svg">
<path fill-rule="evenodd" clip-rule="evenodd" d="M20.8287 39.9994H10.846C8.19839 39.9994 5.65926 38.9458 3.78714 37.0705C1.91503 35.1952 0.863281 32.6517 0.863281 29.9995V9.99985C0.863281 7.34772 1.91503 4.80422 3.78714 2.92889C5.65926 1.05355 8.19839 0 10.846 0L30.8113 0C33.4589 0 35.998 1.05355 37.8702 2.92889C39.7423 4.80422 40.794 7.34772 40.794 9.99985V29.9995C40.794 32.6517 39.7423 35.1952 37.8702 37.0705C35.998 38.9458 33.4589 39.9994 30.8113 39.9994H27.0678C27.0678 39.1706 26.7392 38.3758 26.1541 37.7897C25.5691 37.2037 24.7756 36.8744 23.9482 36.8744C23.1209 36.8744 22.3274 37.2037 21.7424 37.7897C21.1573 38.3758 20.8287 39.1706 20.8287 39.9994Z" fill="#3764B9"/>
<path fill-rule="evenodd" clip-rule="evenodd" d="M19.5808 11.2498H30.8113C32.2521 11.2516 33.6384 10.6987 34.6835 9.70526C35.7286 8.71187 36.3526 7.35409 36.4263 5.91277C36.5 4.47146 36.0179 3.05689 35.0796 1.9617C34.1413 0.8665 32.8187 0.174467 31.3853 0.0287496C31.1944 0.0181247 31.0054 0 30.8113 0H10.846C8.19839 0 5.65926 1.05355 3.78714 2.92889C1.91503 4.80422 0.863281 7.34772 0.863281 9.99984L0.863281 29.9995C0.863281 25.0268 2.8353 20.2577 6.34552 16.7415C9.85574 13.2252 14.6166 11.2498 19.5808 11.2498Z" fill="#507DD2"/>
<path fill-rule="evenodd" clip-rule="evenodd" d="M30.8108 20.0003C28.8364 20.0003 26.9064 20.5868 25.2647 21.6856C23.6231 22.7844 22.3436 24.3462 21.588 26.1734C20.8325 28.0006 20.6348 30.0113 21.0199 31.9511C21.4051 33.8908 22.3559 35.6726 23.752 37.0711C25.1481 38.4696 26.9268 39.422 28.8633 39.8079C30.7997 40.1937 32.8069 39.9957 34.631 39.2388C36.4551 38.482 38.0142 37.2003 39.1111 35.5558C40.208 33.9113 40.7935 31.978 40.7935 30.0002V10.0005C40.7935 12.6526 39.7418 15.1961 37.8696 17.0714C35.9975 18.9468 33.4584 20.0003 30.8108 20.0003Z" fill="#1E4BA0"/>
<path fill-rule="evenodd" clip-rule="evenodd" d="M33.3076 11.2502C33.3076 11.5817 33.1761 11.8996 32.9421 12.134C32.7081 12.3685 32.3907 12.5001 32.0598 12.5001H28.3162C27.9853 12.5001 27.6679 12.6318 27.4339 12.8663C27.1999 13.1007 27.0684 13.4186 27.0684 13.7501V18.7501H31.7852C31.9698 18.7501 32.1521 18.7911 32.319 18.8702C32.4858 18.9493 32.6331 19.0646 32.7501 19.2076C32.8671 19.3506 32.951 19.5178 32.9958 19.6972C33.0405 19.8766 33.0449 20.0637 33.0087 20.245L32.26 23.995C32.2035 24.2783 32.0507 24.5333 31.8276 24.7165C31.6046 24.8998 31.325 24.9999 31.0365 25H27.0684V39.9997H20.8292V25H17.0857C16.7548 25 16.4374 24.8683 16.2034 24.6338C15.9694 24.3994 15.8379 24.0815 15.8379 23.75V20C15.8379 19.6685 15.9694 19.3506 16.2034 19.1162C16.4374 18.8817 16.7548 18.7501 17.0857 18.7501H20.8292V13.7501C20.8292 11.761 21.618 9.85341 23.0221 8.44691C24.4262 7.04041 26.3306 6.25024 28.3162 6.25024H32.0598C32.3907 6.25024 32.7081 6.38194 32.9421 6.61636C33.1761 6.85077 33.3076 7.16871 33.3076 7.50022V11.2502Z" fill="white"/>
</svg>
