<svg width="28" height="28" viewBox="0 0 28 28" fill="none" xmlns="http://www.w3.org/2000/svg">
<g clip-path="url(#clip0_306_14786)">
<path d="M27.4484 5.50249L19.0499 13.8469L27.4484 22.1913C27.6002 21.874 27.6923 21.5232 27.6923 21.1486V6.54522C27.6923 6.17056 27.6002 5.81981 27.4484 5.50249ZM25.2584 4.11133H2.43389C2.05924 4.11133 1.70849 4.20344 1.39116 4.35526L12.1253 15.0353C13.0744 15.9845 14.6179 15.9845 15.567 15.0353L26.3011 4.35526C25.9838 4.20344 25.6331 4.11133 25.2584 4.11133ZM0.24393 5.50249C0.0921094 5.81981 0 6.17056 0 6.54522V21.1486C0 21.5232 0.0921094 21.8741 0.24393 22.1913L8.64243 13.8469L0.24393 5.50249Z" fill="#40AE39"/>
<path d="M17.9041 14.9941L16.7156 16.1826C15.1342 17.764 12.5609 17.764 10.9795 16.1826L9.79108 14.9941L1.39258 23.3386C1.7099 23.4904 2.06065 23.5825 2.43531 23.5825H25.2598C25.6345 23.5825 25.9852 23.4904 26.3026 23.3386L17.9041 14.9941Z" fill="#40AE39"/>
</g>
<defs>
<clipPath id="clip0_306_14786">
<rect width="27.6923" height="27.6923" fill="white"/>
</clipPath>
</defs>
</svg>
