<svg width="41" height="40" viewBox="0 0 41 40" fill="none" xmlns="http://www.w3.org/2000/svg">
<path d="M0.931641 19.1666C0.931641 10.1314 0.931641 5.61375 3.7337 2.80688C6.53576 0 11.0457 0 20.0654 0H21.7292C30.7489 0 35.2588 0 38.0609 2.80688C40.863 5.61375 40.863 10.1314 40.863 19.1666V20.8333C40.863 29.8685 40.863 34.3862 38.0609 37.193C35.2589 40 30.749 40 21.7292 40H20.0655C11.0457 40 6.53584 40 3.73378 37.1931C0.931641 34.3862 0.931641 29.8686 0.931641 20.8334V19.1666Z" fill="#2787F5"/>
<path fill-rule="evenodd" clip-rule="evenodd" d="M11.7487 12.5007H8.83641C8.00432 12.5007 7.83789 12.8931 7.83789 13.3256C7.83789 14.0982 8.82526 17.9297 12.4351 22.9973C14.8418 26.4581 18.2324 28.334 21.3178 28.334C23.1691 28.334 23.3981 27.9174 23.3981 27.1996V24.584C23.3981 23.7507 23.5735 23.5843 24.1596 23.5843C24.5916 23.5843 25.3321 23.8007 27.0599 25.4692C29.0346 27.4468 29.3601 28.334 30.4708 28.334H33.3831C34.2153 28.334 34.6313 27.9174 34.3913 27.0951C34.1286 26.2756 33.1859 25.0865 31.9348 23.6771C31.256 22.8737 30.2378 22.0085 29.9293 21.5759C29.4974 21.0197 29.6208 20.7725 29.9293 20.2782C29.9293 20.2782 33.4776 15.2723 33.8478 13.5729C34.0329 12.9549 33.8478 12.5007 32.967 12.5007H30.0547C29.3143 12.5007 28.9728 12.8931 28.7877 13.3256C28.7877 13.3256 27.3067 16.9409 25.2087 19.2893C24.5298 19.9691 24.2213 20.1854 23.851 20.1854C23.6659 20.1854 23.3979 19.9691 23.3979 19.3512V13.5729C23.3979 12.8313 23.1831 12.5007 22.5659 12.5007H17.9893C17.5266 12.5007 17.2483 12.8449 17.2483 13.1711C17.2483 13.8741 18.2973 14.0363 18.4054 16.0139V20.309C18.4054 21.2507 18.2356 21.4214 17.8653 21.4214C16.8781 21.4214 14.4764 17.79 13.0521 13.6346C12.7731 12.827 12.4931 12.5007 11.7487 12.5007Z" fill="white"/>
</svg>
