<svg width="41" height="40" viewBox="0 0 41 40" fill="none" xmlns="http://www.w3.org/2000/svg">
<path fill-rule="evenodd" clip-rule="evenodd" d="M30.6063 39.9994H10.6409C7.99332 39.9994 5.45418 38.9458 3.58206 37.0705C1.70995 35.1952 0.658203 32.6517 0.658203 29.9995V9.99985C0.658203 7.34772 1.70995 4.80422 3.58206 2.92889C5.45418 1.05355 7.99332 0 10.6409 0L30.6063 0C33.2538 0 35.793 1.05355 37.6651 2.92889C39.5372 4.80422 40.5889 7.34772 40.5889 9.99985V29.9995C40.5889 32.6517 39.5372 35.1952 37.6651 37.0705C35.793 38.9458 33.2538 39.9994 30.6063 39.9994Z" fill="#199BDF"/>
<path fill-rule="evenodd" clip-rule="evenodd" d="M19.3757 11.2498H30.6063C32.047 11.2516 33.4333 10.6987 34.4784 9.70526C35.5235 8.71187 36.1475 7.35409 36.2212 5.91277C36.2949 4.47146 35.8128 3.05689 34.8745 1.9617C33.9362 0.8665 32.6136 0.174467 31.1803 0.0287496C30.9893 0.0181247 30.8003 0 30.6063 0H10.6409C7.99332 0 5.45418 1.05355 3.58206 2.92889C1.70995 4.80422 0.658203 7.34772 0.658203 9.99984L0.658203 29.9995C0.658203 25.0268 2.63022 20.2577 6.14044 16.7415C9.65066 13.2252 14.4115 11.2498 19.3757 11.2498Z" fill="#32B4FF"/>
<path fill-rule="evenodd" clip-rule="evenodd" d="M30.6057 20.0003C28.6314 20.0003 26.7013 20.5868 25.0597 21.6856C23.418 22.7844 22.1385 24.3462 21.3829 26.1734C20.6274 28.0006 20.4297 30.0113 20.8149 31.9511C21.2 33.8908 22.1508 35.6726 23.5469 37.0711C24.943 38.4696 26.7218 39.422 28.6582 39.8079C30.5947 40.1937 32.6019 39.9957 34.4259 39.2388C36.25 38.482 37.8091 37.2003 38.906 35.5558C40.003 33.9113 40.5884 31.978 40.5884 30.0002V10.0005C40.5884 12.6526 39.5367 15.1961 37.6646 17.0714C35.7924 18.9468 33.2533 20.0003 30.6057 20.0003Z" fill="#0082BE"/>
<path fill-rule="evenodd" clip-rule="evenodd" d="M28.7853 10.6431C29.092 10.5163 29.4269 10.4734 29.7556 10.5188C30.0843 10.5643 30.395 10.6965 30.656 10.9018C30.9169 11.1072 31.1186 11.3783 31.2405 11.6875C31.3624 11.9966 31.4001 12.3327 31.3496 12.6612L28.5819 30.6853C28.533 31.0042 28.4027 31.305 28.2038 31.5587C28.0048 31.8123 27.7439 32.0103 27.4462 32.1334C27.1485 32.2565 26.8242 32.3006 26.5045 32.2614C26.1848 32.2222 25.8807 32.1011 25.6214 31.9097L17.4593 25.8854C17.3123 25.7768 17.1909 25.6372 17.1036 25.4764C17.0164 25.3157 16.9654 25.1377 16.9544 24.9551C16.9433 24.7724 16.9724 24.5896 17.0396 24.4195C17.1068 24.2493 17.2105 24.096 17.3433 23.9704L24.9595 16.7649C25.0162 16.7113 25.0508 16.6384 25.0565 16.5605C25.0622 16.4826 25.0386 16.4054 24.9903 16.344C24.942 16.2827 24.8725 16.2418 24.7955 16.2292C24.7186 16.2166 24.6397 16.2334 24.5745 16.2762L14.5057 22.8542C14.0741 23.1361 13.5891 23.3258 13.081 23.4113C12.5728 23.4968 12.0526 23.4763 11.5527 23.3511L6.8284 22.1679C6.57356 22.1042 6.34529 21.9615 6.17611 21.7603C6.00693 21.559 5.90547 21.3094 5.88618 21.047C5.86689 20.7846 5.93076 20.5228 6.06868 20.2988C6.2066 20.0749 6.41155 19.9003 6.65433 19.7999L28.7853 10.6431Z" fill="white"/>
</svg>
