<svg width="40" height="40" viewBox="0 0 40 40" fill="none" xmlns="http://www.w3.org/2000/svg">
<g clip-path="url(#clip0_306_14799)">
<path d="M2.49503 2.72166C-0.642911 5.98666 -0.000681974 9.455 -0.000681974 19.9917C-0.000681974 28.7417 -1.52473 37.5133 6.45156 39.5783C8.94228 40.22 31.011 40.22 33.4984 39.575C36.8194 38.7167 39.5214 36.0183 39.8907 31.3133C39.9423 30.6567 39.9423 9.33833 39.8891 8.66833C39.4964 3.65666 36.4167 0.768329 32.3587 0.183329C31.4286 0.0483293 31.2423 0.00832927 26.4705 -4.06057e-06C9.54458 0.00832927 5.83429 -0.746671 2.49503 2.72166Z" fill="url(#paint0_linear_306_14799)"/>
<path d="M19.9625 5.23105C13.9213 5.23105 8.18445 4.69272 5.99322 10.3261C5.08811 12.6527 5.21955 15.6744 5.21955 20.0011C5.21955 23.7977 5.09809 27.3661 5.99322 29.6744C8.17946 35.3111 13.9629 34.7711 19.9592 34.7711C25.7443 34.7711 31.709 35.3744 33.9269 29.6744C34.8336 27.3244 34.7005 24.3477 34.7005 20.0011C34.7005 14.2311 35.0183 10.5061 32.2248 7.70938C29.3963 4.87605 25.5712 5.23105 19.9559 5.23105H19.9625ZM18.6415 7.89272C31.2431 7.87272 32.8471 6.46939 31.9619 25.9644C31.6475 32.8594 26.4065 32.1027 19.9642 32.1027C8.21773 32.1027 7.87998 31.7661 7.87998 19.9944C7.87998 8.08605 8.81171 7.89938 18.6415 7.88938V7.89272ZM27.8323 10.3444C27.3633 10.3444 26.9134 10.531 26.5817 10.8633C26.2501 11.1955 26.0637 11.6462 26.0637 12.1161C26.0637 12.5859 26.2501 13.0366 26.5817 13.3688C26.9134 13.7011 27.3633 13.8877 27.8323 13.8877C28.3014 13.8877 28.7513 13.7011 29.083 13.3688C29.4146 13.0366 29.601 12.5859 29.601 12.1161C29.601 11.6462 29.4146 11.1955 29.083 10.8633C28.7513 10.531 28.3014 10.3444 27.8323 10.3444ZM19.9625 12.4161C18.9683 12.4162 17.9838 12.6124 17.0652 12.9937C16.1467 13.3749 15.3121 13.9337 14.6092 14.638C13.1895 16.0605 12.392 17.9896 12.3922 20.0011C12.3924 22.0125 13.1903 23.9415 14.6103 25.3636C16.0304 26.7858 17.9562 27.5846 19.9642 27.5844C21.9722 27.5842 23.8979 26.7849 25.3176 25.3624C26.7373 23.94 27.5347 22.0108 27.5345 19.9994C27.5343 17.9879 26.7364 16.059 25.3164 14.6368C23.8964 13.2147 21.9705 12.4158 19.9625 12.4161ZM19.9625 15.0777C26.4597 15.0777 26.468 24.9244 19.9625 24.9244C13.467 24.9244 13.4571 15.0777 19.9625 15.0777Z" fill="white"/>
</g>
<defs>
<linearGradient id="paint0_linear_306_14799" x1="2.5716" y1="37.4451" x2="39.7381" y2="5.33313" gradientUnits="userSpaceOnUse">
<stop stop-color="#FFDD55"/>
<stop offset="0.5" stop-color="#FF543E"/>
<stop offset="1" stop-color="#C837AB"/>
</linearGradient>
<clipPath id="clip0_306_14799">
<rect width="39.9314" height="40" fill="white"/>
</clipPath>
</defs>
</svg>
