<svg width="23" height="22" viewBox="0 0 23 22" fill="none" xmlns="http://www.w3.org/2000/svg">
<g clip-path="url(#clip0_306_14778)">
<path fill-rule="evenodd" clip-rule="evenodd" d="M21.9889 18.9451C21.8459 19.0877 21.6734 19.27 21.4905 19.4629C21.0342 19.9472 20.4641 20.5492 20.1068 20.7934C18.2268 22.0781 15.7117 21.4634 13.9326 20.7221C11.5857 19.7442 9.03057 17.9418 6.73635 15.6473C4.43998 13.3526 2.63773 10.7967 1.65987 8.45115C0.91949 6.67171 0.303498 4.15608 1.58836 2.27567C1.83235 1.9181 2.43581 1.34889 2.9195 0.891658C3.11301 0.709339 3.2939 0.537073 3.43692 0.394507C3.69085 0.141841 4.0345 0 4.39271 0C4.75093 0 5.09458 0.141841 5.3485 0.394507L8.80762 3.85261C9.06014 4.10652 9.2019 4.45008 9.2019 4.80819C9.2019 5.1663 9.06014 5.50985 8.80762 5.76377L7.86531 6.70418C7.55061 7.01658 7.3452 7.42224 7.27964 7.86079C7.21408 8.29935 7.29188 8.74734 7.50147 9.13811C8.79755 11.5843 10.7985 13.5849 13.2449 14.8806C13.6356 15.0901 14.0835 15.1678 14.5219 15.1021C14.9604 15.0365 15.3658 14.8309 15.678 14.5162L16.618 13.5757C16.8719 13.323 17.2156 13.1812 17.5738 13.1812C17.932 13.1812 18.2757 13.323 18.5296 13.5757L21.9889 17.0344C22.2414 17.2882 22.3832 17.6317 22.3832 17.9898C22.3832 18.3478 22.2414 18.6913 21.9889 18.9451Z" fill="#40AE39"/>
</g>
<defs>
<clipPath id="clip0_306_14778">
<rect width="21.5385" height="21.5385" fill="white" transform="translate(0.845703)"/>
</clipPath>
</defs>
</svg>
