<svg width="70" height="70" viewBox="0 0 70 70" fill="none" xmlns="http://www.w3.org/2000/svg">
<path d="M17.5 65.6251H13.2891L13.8031 62.0485L14.4047 62.9454L16.2203 61.7314L14.0328 58.4501C13.7812 58.0782 13.3219 57.8923 12.8844 57.9907C12.4469 58.0892 12.1078 58.4501 12.0422 58.8985L11.0797 65.6142H10.9375V62.3329C10.9375 59.0407 12.0203 55.7814 14 53.1454L12.25 51.8329C11.1328 53.3295 10.2615 54.9947 9.66875 56.7657L8.67344 54.272C8.55312 53.9657 8.30156 53.736 7.98437 53.6376C7.66719 53.5392 7.32812 53.5939 7.05469 53.7689L3.77344 55.9564L4.9875 57.772L7.14219 56.3282L8.82656 60.5501H8.84844C8.78281 61.1298 8.73906 61.7314 8.73906 62.3329V65.6142H8.575L7.63437 59.9704C7.56875 59.6095 7.32812 59.2923 6.98906 59.1501C6.65 59.0079 6.25625 59.0407 5.95 59.2485L2.66875 61.436L3.88281 63.2517L5.75312 62.0048L6.35469 65.6251H2.1875V67.8126H17.5V65.6251ZM7.65625 23.9642L6.78125 33.1189L4.97656 34.0267C4.68125 34.1689 4.47344 34.4423 4.39687 34.7704L2.20937 44.6142L4.34219 45.0845L6.42031 35.7439L12.5125 32.6923C12.6437 32.6267 12.7641 32.5282 12.8625 32.4189L18.3312 25.8564C18.4297 25.736 18.5062 25.5939 18.55 25.4517L23.8437 6.42042L35.0109 4.38605L47.2172 6.42042L51.4281 25.386C51.4719 25.561 51.5484 25.7142 51.6578 25.8454L57.1266 32.4079C57.2031 32.5064 57.3016 32.5829 57.4 32.6486L62.5187 35.722L65.6687 45.1829L67.7469 44.4939L66.7297 41.4314L67.8016 29.6298C67.8453 29.1814 67.6047 28.7548 67.2 28.547L60.9328 25.4189L56.7219 18.047C56.6515 17.9183 56.5547 17.806 56.4378 17.7174C56.321 17.6288 56.1867 17.5659 56.0437 17.5329L51.6797 16.4392L49.1859 5.22824C49.0875 4.79074 48.7375 4.46261 48.3 4.38605L35.175 2.19855C35.052 2.17666 34.9261 2.17666 34.8031 2.19855L22.7719 4.38605C22.3562 4.46261 22.0281 4.76886 21.9078 5.17355L21.1531 7.88605L16.9969 9.96417C16.7453 10.0845 16.5594 10.3032 16.4609 10.5548L13.2891 19.0204L8.05 23.2095C7.82031 23.3954 7.67812 23.6689 7.64531 23.9642H7.65625ZM55.0594 19.5454L59.2047 26.797C59.3141 26.9829 59.4672 27.136 59.6641 27.2345L65.5594 30.1767L65.0016 36.2579L64.4656 34.6501C64.3781 34.3985 64.2141 34.1907 63.9953 34.0595L58.6906 30.8767L53.5062 24.6642L52.2156 18.8345L55.0594 19.5454ZM9.8 24.6314L14.9078 20.5407C15.0609 20.4204 15.1812 20.2564 15.2469 20.0704L18.375 11.7251L20.3766 10.7298L16.5156 24.6423L11.3422 30.8439L9.1 31.9595L9.8 24.6204V24.6314Z" fill="white"/>
<path d="M14.5374 33.1297L10.1624 37.5047C9.93267 37.7344 9.81236 38.0625 9.84517 38.3906C9.87798 38.7187 10.053 39.0141 10.3264 39.1891L13.2905 41.1687L14.2639 44.0891L16.342 43.4L15.2483 40.1188C15.1717 39.8891 15.0186 39.6922 14.8217 39.55L12.6452 38.1062L16.0795 34.6719L14.5374 33.1297ZM60.1577 44.8438V41.5625C60.1577 41.0922 59.8514 40.6766 59.4139 40.5234L56.8764 39.6812V36.0938H54.6889V40.4688C54.6889 40.9391 54.9952 41.3547 55.4327 41.5078L57.9702 42.35V44.8438H60.1577ZM64.2374 62.0047L66.1077 63.2516L67.3217 61.4359L64.0405 59.2484C63.7342 59.0406 63.3405 59.0078 63.0014 59.15C62.6624 59.3031 62.4217 59.6094 62.3561 59.9703L61.4155 65.6141H61.2514V62.3328C61.2514 61.7313 61.2077 61.1406 61.142 60.5391H61.1639L62.8483 56.3281L65.003 57.7719L66.217 55.9562L62.9358 53.7687C62.6624 53.5828 62.3233 53.5391 62.0061 53.6375C61.6889 53.7359 61.4374 53.9656 61.317 54.2719L60.3217 56.7656C59.7311 55.0047 58.8561 53.3312 57.7405 51.8328L55.9905 53.1453C57.9702 55.7812 59.053 59.0406 59.053 62.3328V65.6141H58.9108L57.9483 58.8984C57.8827 58.45 57.5545 58.0891 57.1061 57.9906C56.6577 57.8922 56.2092 58.0781 55.9577 58.45L53.7702 61.7312L55.5858 62.9453L56.1874 62.0484L56.7014 65.625H52.4905V67.8125H67.803V65.625H63.6249L64.2264 62.0047H64.2374ZM35.0014 35C37.4186 35 39.3764 33.0422 39.3764 30.625C39.3764 28.2078 37.4186 26.25 35.0014 26.25C32.5842 26.25 30.6264 28.2078 30.6264 30.625C30.6264 33.0422 32.5842 35 35.0014 35ZM35.0014 28.4375C36.2045 28.4375 37.1889 29.4219 37.1889 30.625C37.1889 31.8281 36.2045 32.8125 35.0014 32.8125C33.7983 32.8125 32.8139 31.8281 32.8139 30.625C32.8139 29.4219 33.7983 28.4375 35.0014 28.4375Z" fill="white"/>
<path d="M36.0938 67.8125V45.9375H36.4437L44.9203 67.1234L46.9547 66.3141L38.8062 45.9375H39.375C39.9766 45.9375 40.4688 45.4453 40.4688 44.8438V40.4688C40.4688 39.8672 39.9766 39.375 39.375 39.375H36.0938V38.2812H40.4688C41.0703 38.2812 41.5625 37.7891 41.5625 37.1875V36.0938H44.8438C45.4453 36.0938 45.9375 35.6016 45.9375 35V26.25C45.9375 25.6484 45.4453 25.1562 44.8438 25.1562H41.5625V24.0625C41.5625 23.4609 41.0703 22.9688 40.4688 22.9688H39.375V20.7812C39.375 20.1797 38.8828 19.6875 38.2812 19.6875H31.7188C31.1172 19.6875 30.625 20.1797 30.625 20.7812V22.9688H29.5312C28.9297 22.9688 28.4375 23.4609 28.4375 24.0625V25.1562H25.1562C24.5547 25.1562 24.0625 25.6484 24.0625 26.25V35C24.0625 35.6016 24.5547 36.0938 25.1562 36.0938H28.4375V37.1875C28.4375 37.7891 28.9297 38.2812 29.5312 38.2812H33.9062V39.375H30.625C30.0234 39.375 29.5312 39.8672 29.5312 40.4688V44.8438C29.5312 45.4453 30.0234 45.9375 30.625 45.9375H31.1938L23.0453 66.3141L25.0797 67.1234L33.5563 45.9375H33.9062V67.8125H36.0938ZM41.5625 27.3438H43.75V33.9062H41.5625V27.3438ZM28.4375 33.9062H26.25V27.3438H28.4375V33.9062ZM32.8125 21.875H37.1875V22.9688H32.8125V21.875ZM30.625 36.0938V25.1562H39.375V36.0938H30.625ZM31.7188 43.75V41.5625H38.2812V43.75H31.7188ZM25.1562 15.8594L29.0938 12.9062C29.3672 12.6984 29.5312 12.3703 29.5312 12.0312V8.75H27.3438V11.4844L23.4062 14.4375C23.1328 14.6453 22.9688 14.9734 22.9688 15.3125V18.5938H25.1562V15.8594ZM46.9766 16.0563C46.9 15.8266 46.7469 15.6297 46.55 15.4875L43.6406 13.5516L42.6344 8.53125L40.4906 8.95781L41.5844 14.4266C41.6391 14.7109 41.8141 14.9625 42.0547 15.1266L45.0187 17.1062L45.9922 20.0266L48.0703 19.3375L46.9766 16.0563Z" fill="white"/>
</svg>
