<svg width="38" height="38" viewBox="0 0 38 38" fill="none" xmlns="http://www.w3.org/2000/svg">
<g clip-path="url(#clip0_637_44743)">
<path d="M27.7854 8.7334H30.2412C30.6667 8.7334 31.0116 9.07837 31.0116 9.50386V11.4845C31.0116 11.91 30.6667 12.255 30.2412 12.255H28.5244M10.0848 8.7334H7.75972C7.33423 8.7334 6.98926 9.07837 6.98926 9.50386V11.4845C6.98926 11.91 7.33423 12.255 7.75972 12.255H9.45132M28.5543 24.2889H30.2412C30.6667 24.2889 31.0116 24.6339 31.0116 25.0594V27.04C31.0116 27.4655 30.6667 27.8105 30.2412 27.8105H27.9699M9.26206 24.2889H7.7598C7.3343 24.2889 6.98933 24.6339 6.98933 25.0594V27.04C6.98933 27.4655 7.3343 27.8105 7.7598 27.8105H9.80334" stroke="#BBBDBF" stroke-width="1.17188" stroke-miterlimit="10" stroke-linecap="round" stroke-linejoin="round"/>
<path d="M14.537 0.556641H13.8533C13.6098 0.556506 13.3719 0.62931 13.1703 0.76566C12.9686 0.902011 12.8124 1.09565 12.7219 1.32161C11.785 3.66203 9.09473 10.9931 9.09473 18.005C9.09473 23.9425 9.84671 27.3952 10.2989 28.9346C10.468 29.5102 10.9967 29.9046 11.5966 29.9046H26.3809C26.9809 29.9046 27.5096 29.5102 27.6787 28.9346C28.1309 27.3953 28.8829 23.9426 28.8829 18.005C28.8829 10.9931 26.1926 3.66203 25.2557 1.32161C25.1651 1.09565 25.009 0.902011 24.8073 0.76566C24.6056 0.62931 24.3678 0.556506 24.1243 0.556641H17.1347M21.5567 22.592H9.48638M28.4186 22.592H24.1544M22.6067 7.2583C22.5201 7.54567 22.2545 7.74139 21.9545 7.74139H16.0232C15.7231 7.74139 15.4576 7.54567 15.371 7.2583C15.1813 6.62885 14.8882 5.39793 14.8236 3.64555C14.8094 3.26013 15.1195 2.94025 15.5051 2.94025H22.4725C22.8581 2.94025 23.1683 3.26013 23.1541 3.64555C23.0894 5.39793 22.7963 6.62885 22.6067 7.2583Z" stroke="#BBBDBF" stroke-width="1.17188" stroke-miterlimit="10" stroke-linecap="round" stroke-linejoin="round"/>
<path d="M22.7933 19.8854H15.1856C14.7692 19.8854 14.4316 19.5479 14.4316 19.1315V10.6631C14.4316 10.2467 14.7692 9.90918 15.1856 9.90918H22.7933C23.2096 9.90918 23.5472 10.2467 23.5472 10.6631V19.1315C23.5473 19.5479 23.2097 19.8854 22.7933 19.8854Z" stroke="#BBBDBF" stroke-width="1.17188" stroke-miterlimit="10" stroke-linecap="round" stroke-linejoin="round"/>
<path d="M18.9888 16.6544C20.2177 16.6544 21.214 15.6582 21.214 14.4293C21.214 13.2003 20.2177 12.2041 18.9888 12.2041C17.7599 12.2041 16.7637 13.2003 16.7637 14.4293C16.7637 15.6582 17.7599 16.6544 18.9888 16.6544Z" stroke="#BBBDBF" stroke-width="1.17188" stroke-miterlimit="10" stroke-linecap="round" stroke-linejoin="round"/>
<path d="M12.8477 29.9043H25.1296V32.4172H12.8477V29.9043ZM24.5944 37.4431H13.3828C13.3126 37.4431 13.243 37.4292 13.178 37.4023C13.1131 37.3755 13.0541 37.336 13.0044 37.2863C12.9547 37.2366 12.9153 37.1776 12.8884 37.1127C12.8615 37.0478 12.8476 36.9782 12.8477 36.9079V34.9302H25.1296V36.9079C25.1296 37.0498 25.0732 37.1859 24.9728 37.2863C24.8725 37.3867 24.7363 37.4431 24.5944 37.4431Z" stroke="#BBBDBF" stroke-width="1.17188" stroke-miterlimit="10" stroke-linecap="round" stroke-linejoin="round"/>
<path d="M26.3322 34.9303H11.6464C10.9528 34.9303 10.3906 34.368 10.3906 33.6745V33.6731C10.3906 32.9795 10.9528 32.4173 11.6464 32.4173H26.3322C27.0258 32.4173 27.588 32.9795 27.588 33.6731V33.6745C27.588 34.368 27.0258 34.9303 26.3322 34.9303ZM18.1601 27.8562H13.3713C12.9069 27.8562 12.5306 27.4798 12.5306 27.0155V25.3709C12.5306 24.9066 12.9069 24.5303 13.3713 24.5303H18.1601C18.6245 24.5303 19.0008 24.9066 19.0008 25.3709V27.0154C19.0008 27.4797 18.6245 27.8562 18.1601 27.8562Z" stroke="#BBBDBF" stroke-width="1.17188" stroke-miterlimit="10" stroke-linecap="round" stroke-linejoin="round"/>
<path d="M23.5475 27.4573C24.3245 27.4573 24.9544 26.8274 24.9544 26.0504C24.9544 25.2734 24.3245 24.6436 23.5475 24.6436C22.7705 24.6436 22.1406 25.2734 22.1406 26.0504C22.1406 26.8274 22.7705 27.4573 23.5475 27.4573Z" stroke="#BBBDBF" stroke-width="1.17188" stroke-miterlimit="10" stroke-linecap="round" stroke-linejoin="round"/>
</g>
<defs>
<clipPath id="clip0_637_44743">
<rect width="38" height="38" fill="white"/>
</clipPath>
</defs>
</svg>
