<svg width="30" height="30" viewBox="0 0 30 30" fill="none" xmlns="http://www.w3.org/2000/svg">
<g clip-path="url(#clip0_588_38515)">
<path fill-rule="evenodd" clip-rule="evenodd" d="M22.5 30H7.5C5.51088 30 3.60322 29.2098 2.1967 27.8033C0.790176 26.3968 0 24.4891 0 22.5V7.5C0 5.51088 0.790176 3.60322 2.1967 2.1967C3.60322 0.790176 5.51088 0 7.5 0L22.5 0C24.4891 0 26.3968 0.790176 27.8033 2.1967C29.2098 3.60322 30 5.51088 30 7.5V22.5C30 24.4891 29.2098 26.3968 27.8033 27.8033C26.3968 29.2098 24.4891 30 22.5 30Z" fill="#199BDF"/>
<path fill-rule="evenodd" clip-rule="evenodd" d="M14.0625 8.4375H22.5C23.5824 8.43886 24.624 8.02411 25.4091 7.27906C26.1943 6.534 26.6631 5.51565 26.7185 4.43465C26.7739 3.35364 26.4117 2.29271 25.7067 1.4713C25.0018 0.649885 24.0081 0.130852 22.9312 0.0215625C22.7878 0.0135937 22.6458 0 22.5 0H7.5C5.51088 0 3.60322 0.790176 2.1967 2.1967C0.790176 3.60322 0 5.51088 0 7.5L0 22.5C0 18.7704 1.48158 15.1935 4.11881 12.5563C6.75604 9.91908 10.3329 8.4375 14.0625 8.4375Z" fill="#32B4FF"/>
<path fill-rule="evenodd" clip-rule="evenodd" d="M22.5 15C21.0166 15 19.5666 15.4399 18.3332 16.264C17.0999 17.0881 16.1386 18.2594 15.5709 19.6299C15.0032 21.0003 14.8547 22.5083 15.1441 23.9632C15.4335 25.418 16.1478 26.7544 17.1967 27.8033C18.2456 28.8522 19.582 29.5665 21.0368 29.8559C22.4917 30.1453 23.9997 29.9968 25.3701 29.4291C26.7406 28.8614 27.9119 27.9001 28.736 26.6668C29.5601 25.4334 30 23.9834 30 22.5V7.5C30 9.48912 29.2098 11.3968 27.8033 12.8033C26.3968 14.2098 24.4891 15 22.5 15Z" fill="#0082BE"/>
<path fill-rule="evenodd" clip-rule="evenodd" d="M21.1315 7.98277C21.3619 7.88763 21.6135 7.85546 21.8604 7.88956C22.1074 7.92365 22.3409 8.02278 22.5369 8.1768C22.7329 8.33081 22.8845 8.53417 22.9761 8.76604C23.0676 8.99791 23.0959 9.24996 23.058 9.49636L20.9787 23.0146C20.9419 23.2538 20.844 23.4794 20.6945 23.6697C20.5451 23.8599 20.349 24.0084 20.1254 24.1007C19.9017 24.1931 19.6581 24.2261 19.4179 24.1967C19.1777 24.1673 18.9492 24.0765 18.7544 23.9329L12.6223 19.4146C12.5118 19.3332 12.4206 19.2285 12.355 19.1079C12.2895 18.9874 12.2512 18.8539 12.2429 18.7169C12.2345 18.5799 12.2564 18.4428 12.3069 18.3152C12.3574 18.1876 12.4353 18.0726 12.5351 17.9784L18.2571 12.5742C18.2997 12.534 18.3257 12.4793 18.33 12.4209C18.3343 12.3624 18.3165 12.3045 18.2803 12.2585C18.244 12.2125 18.1918 12.1818 18.134 12.1724C18.0761 12.163 18.0169 12.1755 17.9679 12.2076L10.4032 17.1412C10.0789 17.3527 9.71453 17.4949 9.33278 17.559C8.95102 17.6231 8.56014 17.6078 8.1846 17.5139L4.63522 16.6265C4.44376 16.5787 4.27226 16.4717 4.14516 16.3208C4.01806 16.1698 3.94183 15.9826 3.92734 15.7858C3.91284 15.589 3.96083 15.3926 4.06445 15.2247C4.16807 15.0567 4.32205 14.9258 4.50444 14.8504L21.1315 7.98277Z" fill="white"/>
</g>
<defs>
<clipPath id="clip0_588_38515">
<rect width="30" height="30" rx="15" fill="white"/>
</clipPath>
</defs>
</svg>
