<svg width="38" height="38" viewBox="0 0 38 38" fill="none" xmlns="http://www.w3.org/2000/svg">
<g clip-path="url(#clip0_637_44754)">
<path d="M10.5622 12.0157C10.5622 11.8583 10.6248 11.7072 10.7361 11.5959C10.8475 11.4845 10.9985 11.422 11.156 11.422H26.2376C26.3951 11.422 26.5461 11.4845 26.6574 11.5959C26.7688 11.7072 26.8314 11.8583 26.8314 12.0157C26.8314 12.1732 26.7688 12.3242 26.6574 12.4356C26.5461 12.5469 26.3951 12.6095 26.2376 12.6095H11.156C10.9985 12.6095 10.8475 12.5469 10.7361 12.4356C10.6248 12.3242 10.5622 12.1732 10.5622 12.0157ZM11.156 9.12143H21.8347C21.9922 9.12143 22.1432 9.05888 22.2546 8.94753C22.3659 8.83618 22.4285 8.68516 22.4285 8.52768C22.4285 8.37021 22.3659 8.21919 22.2546 8.10784C22.1432 7.99649 21.9922 7.93393 21.8347 7.93393H11.156C10.9985 7.93393 10.8475 7.99649 10.7361 8.10784C10.6248 8.21919 10.5622 8.37021 10.5622 8.52768C10.5622 8.68516 10.6248 8.83618 10.7361 8.94753C10.8475 9.05888 10.9985 9.12143 11.156 9.12143ZM11.156 16.0976H26.2376C26.3951 16.0976 26.5461 16.035 26.6574 15.9236C26.7688 15.8123 26.8314 15.6613 26.8314 15.5038C26.8314 15.3463 26.7688 15.1953 26.6574 15.084C26.5461 14.9726 26.3951 14.9101 26.2376 14.9101H11.156C10.9985 14.9101 10.8475 14.9726 10.7361 15.084C10.6248 15.1953 10.5622 15.3463 10.5622 15.5038C10.5622 15.6613 10.6248 15.8123 10.7361 15.9236C10.8475 16.035 10.9985 16.0976 11.156 16.0976ZM11.156 19.5856H26.2376C26.3951 19.5856 26.5461 19.5231 26.6574 19.4117C26.7688 19.3004 26.8314 19.1493 26.8314 18.9919C26.8314 18.8344 26.7688 18.6834 26.6574 18.572C26.5461 18.4607 26.3951 18.3981 26.2376 18.3981H11.156C10.9985 18.3981 10.8475 18.4607 10.7361 18.572C10.6248 18.6834 10.5622 18.8344 10.5622 18.9919C10.5622 19.1493 10.6248 19.3004 10.7361 19.4117C10.8475 19.5231 10.9985 19.5856 11.156 19.5856ZM37.5794 28.1294C37.5794 32.6933 33.8665 36.4062 29.3027 36.4062C27.4291 36.4062 25.6992 35.7801 24.3104 34.7266H7.01465C6.85718 34.7266 6.70615 34.6641 6.5948 34.5527C6.48345 34.4413 6.4209 34.2903 6.4209 34.1329V3.85072C6.4209 3.69324 6.48345 3.54222 6.5948 3.43087C6.70615 3.31952 6.85718 3.25696 7.01465 3.25696H10.0841V0.1875C10.0841 0.0300277 10.1467 -0.120995 10.258 -0.232345C10.3694 -0.343694 10.5204 -0.40625 10.6779 -0.40625H30.2557C30.2587 -0.405805 30.2614 -0.406176 30.2643 -0.406176H30.2656C30.42 -0.403986 30.5674 -0.341617 30.6764 -0.232355L34.4619 3.5531C34.5727 3.66369 34.6352 3.8137 34.6358 3.97028V21.8056C36.4347 23.325 37.5794 25.5959 37.5794 28.1294ZM30.8504 3.3792H32.6087L30.8504 1.62096V3.3792ZM11.2717 3.25696H26.5934C26.6714 3.25696 26.7486 3.27232 26.8206 3.30215C26.8927 3.33199 26.9581 3.37573 27.0133 3.43086L30.7987 7.21631C30.9101 7.32768 30.9726 7.4787 30.9726 7.63617V20.022C31.8436 20.2014 32.6797 20.521 33.4484 20.9682V4.5667H30.2567C30.0992 4.5667 29.9482 4.50415 29.8369 4.3928C29.7255 4.28145 29.6629 4.13043 29.6629 3.97295V0.78125H11.2717V3.25696ZM27.1872 7.04242H28.9454L27.1872 5.28418V7.04242ZM7.6084 33.5391H23.0433C22.1887 32.5517 21.5638 31.3606 21.2512 30.0497H11.156C10.9985 30.0497 10.8475 29.9872 10.7361 29.8758C10.6248 29.7645 10.5622 29.6134 10.5622 29.456C10.5622 29.2985 10.6248 29.1475 10.7361 29.0361C10.8475 28.9248 10.9985 28.8622 11.156 28.8622H21.0587C21.037 28.6186 21.0261 28.3741 21.0259 28.1294C21.0259 27.5935 21.0777 27.0695 21.1755 26.5617H11.156C10.9985 26.5617 10.8475 26.4991 10.7361 26.3877C10.6248 26.2764 10.5622 26.1254 10.5622 25.9679C10.5622 25.8104 10.6248 25.6594 10.7361 25.5481C10.8475 25.4367 10.9985 25.3742 11.156 25.3742H21.498C21.7918 24.5454 22.2159 23.7688 22.7543 23.0736H11.156C10.9985 23.0736 10.8475 23.011 10.7361 22.8997C10.6248 22.7883 10.5622 22.6373 10.5622 22.4798C10.5622 22.3224 10.6248 22.1714 10.7361 22.06C10.8475 21.9487 10.9985 21.8861 11.156 21.8861H23.8748C25.329 20.6202 27.2278 19.8527 29.3027 19.8527C29.4646 19.8527 29.6254 19.8579 29.7851 19.8671V8.22992H26.5934C26.4359 8.22992 26.2849 8.16736 26.1736 8.05601C26.0622 7.94466 25.9997 7.79364 25.9997 7.63617V4.44447H7.6084V33.5391ZM36.3919 28.1294C36.3919 24.2204 33.2117 21.0401 29.3027 21.0401C25.3937 21.0401 22.2134 24.2204 22.2134 28.1294C22.2134 32.0385 25.3936 35.2188 29.3027 35.2188C33.2117 35.2188 36.3919 32.0385 36.3919 28.1294ZM34.9912 26.1777C34.9925 26.6638 34.8045 27.1213 34.4618 27.4659C33.4515 28.4862 30.7065 31.2962 29.3629 32.6399C29.0185 32.9842 28.5607 33.1738 28.0737 33.1738C27.5867 33.1738 27.1289 32.9842 26.7845 32.6399L24.148 30.0033C23.9782 29.8344 23.8435 29.6335 23.7519 29.4123C23.6602 29.191 23.6133 28.9537 23.614 28.7142C23.614 28.2272 23.8036 27.7693 24.148 27.425C24.4923 27.0807 24.9501 26.8911 25.4371 26.8911C25.9241 26.8911 26.3819 27.0808 26.7263 27.4251L28.0687 28.7675L31.8792 24.9015C32.5887 24.1881 33.743 24.1849 34.4546 24.8925C34.7993 25.2351 34.9898 25.6917 34.9912 26.1777ZM33.8037 26.181C33.8037 26.0979 33.7872 26.0157 33.7552 25.9391C33.7232 25.8624 33.6763 25.7929 33.6172 25.7345C33.37 25.4886 32.969 25.4899 32.7231 25.7369L28.4947 30.027C28.4397 30.0828 28.3742 30.1271 28.302 30.1575C28.2298 30.1879 28.1523 30.2036 28.0739 30.2039H28.0718C27.9143 30.2039 27.7633 30.1414 27.6519 30.03L25.8866 28.2647C25.7665 28.1447 25.6069 28.0785 25.4371 28.0785C25.2673 28.0785 25.1077 28.1447 24.9877 28.2647C24.9285 28.3236 24.8815 28.3936 24.8496 28.4708C24.8176 28.548 24.8012 28.6307 24.8015 28.7142C24.8015 28.884 24.8676 29.0436 24.9876 29.1636L27.6242 31.8002C27.7442 31.9202 27.9039 31.9864 28.0736 31.9864C28.2434 31.9864 28.403 31.9202 28.5231 31.8002C29.8618 30.4615 32.6047 27.6536 33.6187 26.6295C33.6777 26.5707 33.7244 26.5008 33.7562 26.4238C33.788 26.3468 33.8041 26.2643 33.8037 26.181Z" fill="#BBBDBF"/>
</g>
<defs>
<clipPath id="clip0_637_44754">
<rect width="38" height="38" fill="white"/>
</clipPath>
</defs>
</svg>
