<svg width="38" height="38" viewBox="0 0 38 38" fill="none" xmlns="http://www.w3.org/2000/svg">
<g clip-path="url(#clip0_637_44760)">
<path d="M37.9611 34.7467C37.9464 34.7133 37.3878 33.4729 37.0303 32.6784C36.9714 32.5476 36.863 32.4456 36.7289 32.3947C36.5948 32.3439 36.4459 32.3483 36.3151 32.4072C36.1843 32.466 36.0822 32.5744 36.0313 32.7085C35.9805 32.8426 35.9849 32.9914 36.0438 33.1223L36.3014 33.6946L28.6844 29.2978C28.6844 29.0131 28.6845 19.1236 28.6841 19.0414C28.6831 18.9473 28.6577 18.8551 28.6104 18.7738C28.563 18.6925 28.4953 18.6249 28.4139 18.5777L19.5339 13.4518V4.48161C19.7934 4.77789 19.897 5.18424 20.3176 5.18424C20.7528 5.18424 21.0154 4.68727 20.756 4.32731C19.3722 2.40734 19.3928 2.35969 19.1443 2.28725C18.9315 2.22536 18.696 2.29735 18.5541 2.48987L17.2301 4.32731C17.1885 4.38492 17.1588 4.45016 17.1425 4.51928C17.1262 4.5884 17.1236 4.66006 17.135 4.73016C17.1464 4.80026 17.1715 4.86743 17.2089 4.92783C17.2462 4.98823 17.2951 5.04068 17.3527 5.08218C17.4104 5.12371 17.4756 5.15348 17.5448 5.16979C17.6139 5.1861 17.6856 5.18863 17.7557 5.17724C17.8258 5.16584 17.893 5.14075 17.9534 5.10339C18.0138 5.06603 18.0663 5.01714 18.1078 4.9595L18.4521 4.48168V13.4519C8.91704 18.9562 9.51094 18.5868 9.40993 18.722C9.2537 18.9309 9.30157 18.127 9.3015 29.2979L1.71374 33.6777L1.96371 33.1223C1.99286 33.0576 2.00897 32.9877 2.01111 32.9167C2.01325 32.8457 2.00139 32.775 1.9762 32.7086C1.95101 32.6422 1.91298 32.5814 1.8643 32.5297C1.81561 32.478 1.75721 32.4364 1.69244 32.4072C1.56162 32.3484 1.41278 32.3439 1.27866 32.3948C1.14453 32.4457 1.0361 32.5477 0.977195 32.6785C0.77814 33.1209 0.0598509 34.7162 0.0464915 34.7467C-0.101946 35.0815 0.121081 35.4679 0.488093 35.5038C2.86955 35.7436 2.74397 35.7342 2.79526 35.7342C2.93392 35.7341 3.06721 35.6806 3.16761 35.585C3.268 35.4893 3.32783 35.3588 3.33473 35.2203C3.34162 35.0818 3.29507 34.946 3.20467 34.8408C3.11428 34.7357 2.98695 34.6693 2.84899 34.6553L2.28285 34.5981L9.84233 30.2345C19.1941 35.6019 18.718 35.4328 18.9929 35.4328C19.2053 35.4328 18.4752 35.8154 28.1434 30.2345L35.7061 34.5999L35.1584 34.6553C35.0871 34.6616 35.0178 34.6821 34.9545 34.7154C34.8911 34.7487 34.835 34.7943 34.7894 34.8495C34.7438 34.9046 34.7096 34.9683 34.6888 35.0368C34.668 35.1053 34.661 35.1772 34.6682 35.2484C34.6754 35.3196 34.6967 35.3887 34.7308 35.4517C34.7649 35.5146 34.8111 35.5701 34.8668 35.6151C34.9225 35.66 34.9866 35.6934 35.0554 35.7134C35.1241 35.7333 35.1961 35.7395 35.2672 35.7314C37.702 35.481 37.6637 35.5391 37.8552 35.3412C37.9482 35.2451 38.0607 34.9719 37.9611 34.7467ZM18.9929 14.3885L27.0616 19.0461L18.9929 23.7036L10.9242 19.0461L18.9929 14.3885ZM10.3833 19.9828L18.452 24.6403V33.9554L10.3832 29.2979L10.3833 19.9828ZM19.5338 33.9554V24.6402L27.6025 19.9827V29.2978L19.5338 33.9554Z" fill="#BBBDBF"/>
</g>
<defs>
<clipPath id="clip0_637_44760">
<rect width="38" height="38" fill="white"/>
</clipPath>
</defs>
</svg>
