<svg width="38" height="38" viewBox="0 0 38 38" fill="none" xmlns="http://www.w3.org/2000/svg">
<g clip-path="url(#clip0_637_44713)">
<path d="M34.5956 22.4994L37.8787 20.2597L34.4963 18.2378L37.7605 16.0105L35.1418 14.1779C35.0754 13.5967 34.7311 11.2883 33.2669 8.97949C32.0852 7.11568 30.8942 6.20957 29.6258 6.20957C28.2861 6.20957 27.2131 7.22143 26.3516 8.03427C25.946 8.41662 25.563 8.77774 25.3093 8.86136C25.2791 8.87175 25.2473 8.87716 25.2153 8.87737C24.7333 8.87755 24.1496 7.56449 23.585 6.29488C22.9759 4.92554 22.2858 3.37347 21.2985 2.16828C20.6024 1.31854 19.7835 0.887695 18.8642 0.887695C17.3352 0.887695 16.1061 2.09563 16.0546 2.14713L16.0404 2.1612L5.69043 15.8717L0.000976562 16.7089L3.41012 18.7983L0.41315 21.1742L3.52365 23.0803L0.534642 25.4488L19.5655 37.1117L38.0002 24.5348L34.5956 22.4994ZM34.588 14.359L34.5989 14.4927L36.7594 16.0047L33.2636 18.3898C33.0709 17.5801 32.5203 15.8545 31.2049 15.0481C30.8843 14.8515 30.5395 14.7266 30.1746 14.6664C30.6406 12.376 32.5067 10.5724 33.1908 9.97612C34.4034 12.2257 34.5863 14.3358 34.588 14.359ZM32.7564 18.7356L29.6735 20.8391C29.7502 20.2473 29.7749 19.6037 29.8014 18.8895C29.8402 17.8556 29.8848 16.688 30.0859 15.2287C30.3783 15.2775 30.6527 15.3773 30.906 15.5325C32.1619 16.3009 32.6365 18.1591 32.7564 18.7356ZM29.9373 6.80598C30.8802 6.95676 31.8372 7.78686 32.7865 9.28424C32.8262 9.34662 32.8641 9.40927 32.9023 9.47183C32.2359 10.0322 30.1023 12.0016 29.6036 14.6255C29.233 14.6338 28.8437 14.7035 28.4367 14.838C27.6183 15.109 26.8758 15.5896 26.1581 16.0548L25.9877 16.165C26.0091 15.8292 26.0356 15.4974 26.0771 15.1739C26.5466 11.521 27.8461 8.70783 29.9373 6.80598ZM13.4669 21.9267C13.1971 20.8622 12.918 19.7614 12.3179 18.9638C11.6887 18.1269 10.921 17.4533 10.0367 16.948C10.761 16.0846 11.4262 15.1037 12.057 14.0637C12.2711 14.1061 12.4808 14.1524 12.6811 14.2057C14.7329 14.752 15.2124 16.5512 15.7203 18.456L15.8157 18.8131C15.9975 19.4855 16.2327 20.3522 16.6596 21.0744C16.2769 23.4838 15.9674 25.0572 15.826 25.7397L15.2282 25.3735C14.1767 24.7278 13.832 23.3674 13.4669 21.9267ZM13.6917 24.432L6.24064 19.8656C7.53256 19.3631 8.65032 18.4902 9.65324 17.3858C10.5151 17.8596 11.2588 18.5024 11.8634 19.306C12.3947 20.0121 12.6475 21.01 12.9154 22.0666C13.123 22.8857 13.3352 23.7194 13.6917 24.432ZM17.3889 15.9832C17.2126 17.3526 17.0208 18.7199 16.8133 20.085C16.6186 19.5971 16.4797 19.0881 16.3651 18.6646L16.27 18.3093C15.7427 16.3317 15.198 14.2869 12.8274 13.6556C12.6743 13.6157 12.5203 13.5794 12.3655 13.5467C13.0005 12.4637 13.6042 11.3289 14.2022 10.2035C14.5269 9.59279 14.8404 9.00497 15.1541 8.43272C16.5784 8.83357 17.7495 9.7672 18.6345 10.9842C18.0861 12.4772 17.6239 14.1628 17.3889 15.9832ZM19.0265 11.572C19.5664 12.454 19.9731 13.4468 20.2337 14.4739C20.3421 14.9002 20.796 16.491 21.7333 17.3665C21.6082 18.6341 21.4563 19.9935 21.2316 21.3041C21.1614 21.3307 21.0911 21.3572 21.0214 21.3838C20.0318 21.7611 19.0965 22.1171 18.2345 21.791C17.8262 21.6363 17.5092 21.328 17.2553 20.9486C17.4717 19.5738 17.7099 17.9403 17.9532 16.056C18.1619 14.4384 18.5542 12.9291 19.0265 11.572ZM17.1332 21.713C17.3828 21.9758 17.6788 22.1888 18.033 22.3232C19.0594 22.7119 20.1015 22.3424 21.1124 21.9582C20.6513 24.3295 19.9154 26.4513 18.6121 27.4474L16.341 26.0555C16.4485 25.5499 16.7477 24.083 17.1332 21.713ZM21.7327 21.7254C22.2484 21.5397 22.7408 21.3956 23.2102 21.3955H23.2112C23.9148 21.3955 24.5527 21.5802 25.0803 21.919C24.8987 22.9155 24.5842 23.8584 24.027 24.6914L19.3365 27.8913L19.1263 27.7625C20.5165 26.5666 21.2709 24.2438 21.7327 21.7254ZM21.8433 21.0855C22.0257 19.968 22.1575 18.8293 22.2672 17.7471C22.5784 17.9069 22.929 17.9858 23.3229 17.9405C24.0654 17.8553 24.7358 17.5673 25.3714 17.21C25.3627 17.5205 25.3558 17.8309 25.3503 18.1383C25.3311 19.1989 25.3102 20.2754 25.1754 21.3089C24.6042 20.9951 23.9373 20.8262 23.2112 20.8262H23.2102C22.7579 20.8265 22.299 20.9365 21.8433 21.0855ZM25.5824 22.3226C25.8344 22.5718 26.0468 22.866 26.2105 23.2018L25.0565 23.9889C25.2921 23.4552 25.4613 22.8969 25.5824 22.3226ZM25.7018 21.6634C25.8751 20.5171 25.898 19.3235 25.9196 18.1487C25.9275 17.7092 25.937 17.2821 25.9522 16.8625C26.1247 16.7537 26.2964 16.6437 26.4674 16.5325C27.1869 16.0664 27.8663 15.6263 28.6156 15.3783C28.9298 15.2741 29.2298 15.2158 29.5158 15.1996C29.316 16.6703 29.2692 17.8833 29.233 18.8684C29.1976 19.8265 29.1676 20.5923 29.0223 21.2833L26.6841 22.8786C26.4368 22.3947 26.1033 21.986 25.7018 21.6634ZM24.7616 9.31972C24.9043 9.40237 25.0548 9.44643 25.2155 9.44643C25.3077 9.4462 25.3994 9.4312 25.4869 9.40201C25.8614 9.27884 26.25 8.91241 26.7419 8.44839C27.3968 7.83066 28.185 7.08931 29.0714 6.85491C27.1606 8.82977 25.9631 11.5976 25.5127 15.1014C25.4532 15.5654 25.4185 16.0485 25.3957 16.5373C24.7096 16.9521 24.0233 17.2872 23.2582 17.3751C22.9105 17.4147 22.6016 17.3099 22.3298 17.1184C22.3545 16.8643 22.3784 16.6139 22.4017 16.3693C22.5094 15.2365 22.6024 14.2583 22.7241 13.4774C23.1741 10.588 24.3666 9.58005 24.7616 9.31972ZM23.065 6.52609C23.5241 7.55838 23.9057 8.41423 24.3263 8.92754C23.751 9.35087 22.6077 10.5281 22.1617 13.3898C22.0378 14.1875 21.9437 15.1736 21.8351 16.3154C21.8262 16.4094 21.8169 16.505 21.8079 16.6005C21.1688 15.7679 20.8384 14.5423 20.7853 14.3339C20.473 13.1035 19.9631 11.919 19.2732 10.8966C20.3833 7.98082 21.806 5.8658 22.3925 5.05942C22.6319 5.55459 22.854 6.05154 23.065 6.52609ZM20.8584 2.52904C21.335 3.11111 21.7431 3.78848 22.1075 4.48903C21.6774 5.0557 20.1183 7.22054 18.8749 10.3511C17.9748 9.20946 16.8231 8.32849 15.4428 7.91056C15.5397 7.73669 15.6378 7.56343 15.7369 7.39079C17.9884 3.48293 19.8188 2.2757 20.324 1.99874C20.5203 2.15614 20.6995 2.3339 20.8584 2.52904ZM16.4692 2.5378C16.5966 2.41631 17.6437 1.45693 18.8642 1.45693C19.1824 1.45693 19.4872 1.52763 19.7784 1.66028C18.9828 2.1712 17.2772 3.57744 15.2437 7.10683C15.117 7.32675 14.9921 7.54768 14.869 7.7696C14.1511 7.62572 13.3782 7.60307 12.5526 7.72615L16.4692 2.5378ZM12.0421 8.40237C12.9517 8.19036 13.7984 8.16753 14.5773 8.30097C14.2879 8.83127 13.9987 9.37423 13.6997 9.93665C13.0726 11.1166 12.4394 12.3079 11.7713 13.4342C10.7243 13.2639 9.55652 13.2109 8.35796 13.2826L12.0421 8.40237ZM7.90066 13.888C9.14222 13.778 10.3618 13.8049 11.4519 13.9614C10.8454 14.9459 10.2077 15.8687 9.51785 16.6765C8.58652 16.2355 7.54017 15.9665 6.39727 15.8798L7.90066 13.888ZM1.63586 17.0436L5.86165 16.4218C7.06278 16.4547 8.15577 16.6941 9.12081 17.1243C8.09055 18.2298 6.94235 19.0693 5.61469 19.4819L1.63586 17.0436ZM1.40447 21.1143L3.92671 19.1151L14.9295 25.8581C14.9305 25.8586 14.9314 25.8592 14.9323 25.8599V25.8597L19.353 28.5689L33.9782 18.5911L36.8225 20.2914L19.4272 32.1592L1.40447 21.1143ZM19.5488 36.434L1.52632 25.3892L4.04024 23.3969L19.4438 32.8367L34.0779 22.8528L36.9441 24.5664L19.5488 36.434Z" fill="#BBBDBF" stroke="#BBBDBF" stroke-width="0.5"/>
</g>
<defs>
<clipPath id="clip0_637_44713">
<rect width="38" height="38" fill="white"/>
</clipPath>
</defs>
</svg>
