<svg width="30" height="28" viewBox="0 0 30 28" fill="none" xmlns="http://www.w3.org/2000/svg">
<path d="M29.0319 12.7594C28.6173 12.4941 28.1239 12.38 27.6349 12.4363C27.1459 12.4926 26.6914 12.7158 26.3478 13.0683L24.47 14.9462C23.2542 13.9139 22.1076 12.8028 21.0376 11.6201C21.0169 11.5978 21.0054 11.5684 21.0054 11.538C21.0054 11.5076 21.0169 11.4783 21.0376 11.4559C21.0503 11.4422 21.0663 11.432 21.084 11.426C21.1017 11.4201 21.1206 11.4188 21.139 11.4221C21.9429 11.6988 22.8082 11.7446 23.6367 11.5543C24.4653 11.364 25.2239 10.9453 25.8265 10.3456C26.2815 9.92874 26.6474 9.42415 26.9024 8.86219C27.1574 8.30023 27.2961 7.69251 27.3101 7.07558C27.3242 6.45865 27.2133 5.84524 26.9842 5.27226C26.7551 4.69927 26.4125 4.17854 25.9769 3.74137C25.5414 3.30421 25.0219 2.95964 24.4498 2.7284C23.8777 2.49715 23.2647 2.384 22.6477 2.39575C22.0307 2.4075 21.4225 2.54391 20.8596 2.79677C20.2967 3.04964 19.7907 3.41373 19.3722 3.86716C19.2344 4.00882 19.1054 4.15875 18.986 4.31612C18.9223 4.11376 18.8819 3.90485 18.8653 3.69337C18.8334 3.20874 18.6975 2.73665 18.4668 2.30929C18.236 1.88193 17.9158 1.50933 17.5281 1.21688C15.8143 -0.139634 14.873 0.352768 13.7819 0.922409C13.1851 1.25061 12.5471 1.49739 11.8848 1.65618C11.6351 1.69587 11.3978 1.79221 11.1911 1.93781C10.9844 2.08341 10.8138 2.27441 10.6924 2.49616C10.5184 2.8853 10.491 3.32422 10.6151 3.73199C9.78836 3.84299 9.02047 4.221 8.42829 4.80852L6.338 6.89398C6.12902 7.08616 5.96079 7.31836 5.84329 7.5768C5.72579 7.83525 5.66141 8.11467 5.65398 8.39847C5.64656 8.68228 5.69623 8.96468 5.80005 9.22892C5.90387 9.49316 6.05972 9.73384 6.25836 9.93668C6.45699 10.1395 6.69436 10.3004 6.95637 10.4097C7.21837 10.5191 7.49967 10.5746 7.78357 10.5732C8.06747 10.5717 8.34818 10.5132 8.60903 10.4011C8.86988 10.289 9.10555 10.1257 9.30206 9.92081L11.233 7.96085L11.2765 7.99947L12.7247 9.42358C12.7647 9.46349 12.7965 9.51089 12.8181 9.56308C12.8398 9.61526 12.8509 9.67121 12.8509 9.72771C12.8509 9.78421 12.8398 9.84015 12.8181 9.89234C12.7965 9.94453 12.7647 9.99193 12.7247 10.0318L10.311 12.4456C10.0889 12.4456 9.62067 12.4697 8.58759 12.518C7.6221 12.5614 7.13935 12.5856 6.87384 12.6242V12.6C6.24003 12.6305 5.61897 12.7891 5.04814 13.0662C4.4773 13.3434 3.96854 13.7333 3.55255 14.2124L0.520898 17.7268C0.167426 18.1328 -0.0183002 18.6581 0.00142447 19.1961C0.0211492 19.734 0.244847 20.2443 0.627102 20.6233C0.813684 20.8141 1.04055 20.9608 1.29112 21.0527C1.54169 21.1446 1.80963 21.1793 2.07534 21.1543C2.43832 21.1387 2.79417 21.0483 3.12061 20.8888C3.44706 20.7293 3.73708 20.5041 3.97254 20.2274L6.73385 17.0268C6.81665 16.9368 6.93052 16.8816 7.05246 16.8724L9.9248 16.742C9.97702 16.7392 10.0293 16.7472 10.0783 16.7655C10.1272 16.7838 10.172 16.8119 10.2096 16.8482L11.7544 18.393C11.8237 18.465 11.8625 18.561 11.8625 18.6609C11.8625 18.7609 11.8237 18.8569 11.7544 18.9289L6.87384 23.7901C6.5826 24.0705 6.37764 24.4283 6.28313 24.8214C6.18862 25.2145 6.20851 25.6264 6.34046 26.0085C6.4724 26.3907 6.71089 26.7271 7.0278 26.9781C7.3447 27.2291 7.72679 27.3842 8.12899 27.4252H8.34139C8.61954 27.4249 8.8949 27.3698 9.15169 27.2629C9.40849 27.1561 9.64168 26.9996 9.83791 26.8025L12.9082 23.7322C13.0927 23.9991 13.3312 24.2244 13.6082 24.3936C13.9514 24.5739 14.3274 24.6835 14.7139 24.7159C15.1003 24.7482 15.4893 24.7026 15.8578 24.5818C18.1074 23.988 17.8853 23.1674 19.3577 23.3943C21.0231 23.6453 22.4762 23.7081 23.4707 21.8833C23.7996 21.1517 23.8776 20.3321 23.6927 19.5516C23.6927 19.4213 23.6589 19.3006 23.6445 19.1799C23.8797 19.2297 24.1187 19.2604 24.3589 19.2716C24.8926 19.2962 25.4256 19.2098 25.9241 19.0178C26.4227 18.8259 26.876 18.5326 27.2554 18.1565L29.3747 16.0372C29.5992 15.8145 29.7709 15.5443 29.8771 15.2464C29.9833 14.9486 30.0214 14.6307 29.9885 14.3162C29.9556 14.0017 29.8526 13.6985 29.6871 13.4291C29.5215 13.1597 29.2976 12.9308 29.0319 12.7594ZM11.5565 2.94512C11.6192 2.85442 11.7009 2.7785 11.7959 2.72263C11.891 2.66677 11.9971 2.63232 12.1068 2.62168C12.8476 2.43771 13.5604 2.1552 14.2261 1.7817C15.2398 1.25068 15.7033 1.01413 16.9246 1.97962C17.2142 2.1965 17.4513 2.4757 17.6184 2.79657C17.7855 3.11744 17.8784 3.47178 17.8901 3.83337C17.9072 4.34565 18.0998 4.8365 18.4356 5.22368C17.9629 6.28016 17.9027 7.47527 18.2667 8.57394C18.2667 8.6367 18.1218 8.87325 18.0012 8.75256L16.355 7.10639C14.4819 5.24299 13.5937 3.97337 11.653 3.7513H11.6241C11.4976 3.50158 11.4733 3.21241 11.5565 2.94512ZM22.7272 19.6819C22.8794 20.2673 22.8422 20.8859 22.621 21.4488C21.9838 22.6219 21.2549 22.7329 19.5073 22.4674C17.5763 22.1729 17.7018 23.1288 15.6116 23.6791C15.3303 23.7895 15.0254 23.8257 14.7262 23.7843C14.4269 23.7428 14.1433 23.6252 13.9026 23.4425C13.7846 23.332 13.6852 23.2033 13.6082 23.0612L19.7342 16.9158C19.7741 16.8758 19.8215 16.8441 19.8737 16.8224C19.9259 16.8008 19.9818 16.7896 20.0383 16.7896C20.0948 16.7896 20.1508 16.8008 20.203 16.8224C20.2552 16.8441 20.3026 16.8758 20.3425 16.9158C21.308 17.8813 21.7328 18.4075 22.6355 18.8468C22.6493 19.1268 22.6799 19.4057 22.7272 19.6819ZM28.694 15.3372L26.5892 17.4758C26.3019 17.7593 25.9585 17.9795 25.5811 18.1225C25.2037 18.2655 24.8006 18.328 24.3975 18.3061C22.7079 18.2434 21.8535 16.9786 21.0473 16.2351C20.78 15.9895 20.4303 15.8532 20.0673 15.8532C19.7043 15.8532 19.3546 15.9895 19.0873 16.2351L9.15241 26.1314C9.03288 26.253 8.88747 26.3462 8.72701 26.4038C8.56653 26.4615 8.39513 26.4822 8.22553 26.4645C8.00482 26.443 7.79507 26.358 7.6216 26.2198C7.44813 26.0816 7.31834 25.8962 7.24791 25.686C7.17747 25.4757 7.1694 25.2495 7.22466 25.0347C7.27992 24.82 7.39616 24.6258 7.55934 24.4756L12.4399 19.5902C12.565 19.4659 12.6643 19.3181 12.732 19.1553C12.7998 18.9925 12.8346 18.818 12.8346 18.6416C12.8346 18.4653 12.7998 18.2907 12.732 18.1279C12.6643 17.9651 12.565 17.8173 12.4399 17.693L10.8951 16.1386C10.1951 15.4338 9.36964 15.8827 7.03315 15.8827C6.84253 15.8911 6.65562 15.9382 6.48382 16.0212C6.31201 16.1042 6.15891 16.2214 6.03386 16.3655L3.24842 19.5757C3.09904 19.7517 2.91547 19.8955 2.70885 19.9984C2.50222 20.1013 2.27684 20.1612 2.04638 20.1743C1.91388 20.1889 1.77979 20.174 1.65376 20.1306C1.52772 20.0872 1.41286 20.0164 1.31743 19.9233C1.11294 19.7176 0.993426 19.4424 0.982691 19.1526C0.971956 18.8627 1.07079 18.5795 1.2595 18.3592L4.26701 14.8738C4.59714 14.4923 5.00156 14.1821 5.45557 13.9622C5.90958 13.7422 6.40366 13.6171 6.90764 13.5945C7.13935 13.5945 10.2096 13.4352 10.4896 13.4352C10.6163 13.4347 10.7376 13.3844 10.8275 13.2952L13.3909 10.7318C13.6503 10.4771 13.7979 10.1298 13.8013 9.76633C13.8017 9.58243 13.7657 9.40027 13.6952 9.2304C13.6248 9.06053 13.5214 8.90632 13.3909 8.7767L11.9427 7.35259C11.797 7.17043 11.5886 7.04918 11.3582 7.01257C11.1279 6.97597 10.8922 7.02664 10.6972 7.15467L8.57794 9.27393C8.45679 9.39586 8.30982 9.48906 8.14786 9.54665C7.9859 9.60424 7.81309 9.62476 7.64215 9.60669C7.47121 9.58863 7.30651 9.53243 7.16017 9.44226C7.01383 9.35208 6.88959 9.23022 6.7966 9.08565C6.6599 8.85879 6.60364 8.59246 6.63693 8.32969C6.67021 8.06692 6.79109 7.82303 6.98005 7.63741L9.10896 5.51816C9.39179 5.2396 9.72885 5.02216 10.0992 4.87932C10.4696 4.73649 10.8654 4.67131 11.262 4.68783C12.1461 4.72084 12.9847 5.08837 13.6082 5.71608L15.6791 7.78707L17.3301 9.43806C17.4298 9.53902 17.5486 9.61917 17.6796 9.67386C17.8105 9.72856 17.951 9.75671 18.0929 9.75667C18.2708 9.75125 18.4453 9.70556 18.603 9.62302C18.7608 9.54048 18.8978 9.42325 19.0038 9.28014C19.1097 9.13703 19.1818 8.97177 19.2147 8.79677C19.2476 8.62178 19.2403 8.44161 19.1935 8.26981C18.9789 7.63102 18.946 6.94512 19.0986 6.28872C19.2512 5.63232 19.5832 5.03126 20.0577 4.55266C20.3961 4.20665 20.8023 3.93417 21.2508 3.75226C21.6994 3.57035 22.1806 3.48293 22.6645 3.49545C23.1479 3.50036 23.6252 3.60345 24.0675 3.79846C24.5098 3.99348 24.9079 4.27635 25.2375 4.6299C25.875 5.32006 26.2208 6.22995 26.2028 7.16926C26.1849 8.10857 25.8044 9.00454 25.141 9.66978C24.6649 10.1434 24.0657 10.474 23.4112 10.6242C22.7567 10.7744 22.0732 10.7381 21.4383 10.5194C21.2137 10.4562 20.9746 10.4677 20.757 10.5522C20.5395 10.6367 20.3553 10.7896 20.2322 10.9879C20.1091 11.1861 20.0538 11.419 20.0746 11.6515C20.0953 11.8839 20.191 12.1033 20.3473 12.2766C23.7893 15.9744 24.3348 15.9841 24.5375 15.9889C24.6129 15.996 24.6888 15.9853 24.7593 15.9576C24.8297 15.93 24.8927 15.8861 24.9431 15.8296L27.0333 13.7442C27.2174 13.5529 27.4612 13.4301 27.7244 13.3958C27.9877 13.3616 28.2547 13.4181 28.4816 13.5559C28.6301 13.6475 28.7559 13.7715 28.8496 13.9187C28.9432 14.066 29.0022 14.2325 29.0222 14.4059C29.0422 14.5792 29.0226 14.7548 28.9649 14.9195C28.9072 15.0841 28.813 15.2336 28.6892 15.3565L28.694 15.3372ZM3.38359 1.86376H2.06569C1.93765 1.86376 1.81487 1.91463 1.72433 2.00516C1.6338 2.09569 1.58294 2.21848 1.58294 2.34651C1.58294 2.47454 1.6338 2.59733 1.72433 2.68786C1.81487 2.7784 1.93765 2.82926 2.06569 2.82926H3.38359C3.51162 2.82926 3.63441 2.7784 3.72494 2.68786C3.81547 2.59733 3.86633 2.47454 3.86633 2.34651C3.86633 2.21848 3.81547 2.09569 3.72494 2.00516C3.63441 1.91463 3.51162 1.86376 3.38359 1.86376Z" fill="#3B3D41"/>
<path d="M0.0390625 4.6009C0.0390625 4.72893 0.0899231 4.85172 0.180456 4.94225C0.270988 5.03279 0.393777 5.08365 0.521809 5.08365H4.90998C5.03801 5.08365 5.1608 5.03279 5.25133 4.94225C5.34186 4.85172 5.39272 4.72893 5.39272 4.6009V4.20988H7.14992C7.23725 4.20964 7.32288 4.18572 7.39769 4.14067C7.4725 4.09561 7.53369 4.03111 7.57474 3.95402C7.61279 3.87812 7.63015 3.79352 7.62506 3.70876C7.61998 3.624 7.59263 3.54208 7.54577 3.47127L5.31548 0.207907C5.27338 0.141747 5.21468 0.0877711 5.14523 0.0513514C5.07577 0.0149318 4.99799 -0.00266061 4.91963 0.000325693H0.521809C0.393777 0.000325693 0.270988 0.0511863 0.180456 0.141719C0.0899231 0.232251 0.0390625 0.35504 0.0390625 0.483072V4.6009ZM5.39272 3.24438V2.04234L6.22787 3.24438H5.39272ZM1.00456 0.980301H4.42723V4.11815H1.00456V0.980301Z" fill="#3B3D41"/>
</svg>
