<svg width="144" height="144" viewBox="0 0 144 144" fill="none" xmlns="http://www.w3.org/2000/svg">
<mask id="mask0_611_43992" style="mask-type:luminance" maskUnits="userSpaceOnUse" x="0" y="0" width="144" height="144">
<path d="M142 142V2H2V142H142Z" fill="white" stroke="white" stroke-width="4"/>
</mask>
<g mask="url(#mask0_611_43992)">
<path d="M106.333 0.0058612C104.984 0.0901559 104.085 1.42014 104.085 2.5347V69.4553H101.313C100.658 69.4578 100.03 69.7191 99.5672 70.1823C99.104 70.6455 98.8427 71.273 98.8402 71.928C98.8402 72.5846 99.1005 73.2145 99.5639 73.6797C100.027 74.1449 100.656 74.4075 101.313 74.41H138.787V89.2646H126.405C125.748 89.2646 125.118 89.5248 124.653 89.9883C124.188 90.4517 123.925 91.0806 123.923 91.7373C123.923 92.3955 124.184 93.0268 124.65 93.4923C125.115 93.9578 125.746 94.2193 126.405 94.2193H138.796V99.1833H126.405C125.748 99.1833 125.118 99.4435 124.653 99.9069C124.188 100.37 123.925 100.999 123.923 101.656C123.925 102.313 124.188 102.941 124.653 103.405C125.118 103.868 125.748 104.129 126.405 104.129H128.887V141.312C128.887 141.967 129.146 142.595 129.607 143.06C130.068 143.525 130.695 143.789 131.35 143.794H141.269C141.925 143.791 142.554 143.529 143.018 143.064C143.481 142.598 143.741 141.969 143.741 141.312V22.5594C143.741 21.6415 143.432 20.9578 142.364 20.3396L107.794 0.389871C107.355 0.12132 106.847 -0.0122256 106.333 0.0058612ZM37.1927 0.0058612C36.7537 0.0377953 36.3278 0.169107 35.947 0.389871L1.24569 20.4333C0.00936568 21.1451 0 21.9974 0 22.5781V141.321C-2.32627e-06 141.648 0.0645055 141.972 0.189824 142.273C0.315142 142.575 0.498803 142.849 0.730272 143.08C0.961742 143.31 1.23646 143.493 1.53868 143.617C1.84089 143.741 2.16465 143.805 2.49138 143.803H12.4007C13.0573 143.801 13.6862 143.538 14.1497 143.073C14.6131 142.608 14.8733 141.978 14.8733 141.321V104.138H17.3553C18.0104 104.135 18.6379 103.874 19.101 103.411C19.5642 102.948 19.8255 102.32 19.828 101.665C19.828 101.009 19.5678 100.379 19.1043 99.9136C18.6409 99.4484 18.012 99.1858 17.3553 99.1833H4.95466V94.2193H17.3553V94.238C18.012 94.2355 18.6409 93.9729 19.1043 93.5077C19.5678 93.0425 19.828 92.4126 19.828 91.756C19.8255 91.101 19.5642 90.4735 19.101 90.0103C18.6379 89.5471 18.0104 89.2858 17.3553 89.2833L17.3928 89.274H4.96402V74.41H42.4283C43.0866 74.41 43.7179 74.1485 44.1834 73.683C44.6489 73.2176 44.9104 72.5863 44.9104 71.928C44.9079 71.273 44.6466 70.6455 44.1834 70.1823C43.7202 69.7191 43.0927 69.4578 42.4377 69.4553H39.6653V2.52534C39.6653 0.745781 38.4665 -0.0784335 37.1927 0.0058612ZM71.8753 1.00803C70.5628 1.01048 69.3044 1.5317 68.3745 2.45805C67.4447 3.38441 66.9187 4.64079 66.9113 5.95332H61.966C61.5846 5.95417 61.2085 6.0429 60.867 6.21263C60.5254 6.38236 60.2276 6.62852 59.9965 6.93201C59.7655 7.23549 59.6076 7.58813 59.5349 7.96256C59.4623 8.33698 59.4769 8.7231 59.5776 9.09096L62.5186 20.0774H59.5027C52.6748 20.0774 47.0927 25.6596 47.0927 32.4781C47.0927 36.5055 49.0595 40.0459 52.0567 42.3124V64.9503C52.0567 65.6069 52.3169 66.2368 52.7803 66.702C53.2438 67.1672 53.8727 67.4298 54.5293 67.4323C55.1876 67.4323 55.8189 67.1708 56.2844 66.7053C56.7498 66.2398 57.0113 65.6085 57.0113 64.9503V44.6165C57.8168 44.7757 58.6504 44.8694 59.5027 44.8694H61.966V59.2276C61.9685 59.8842 62.2311 60.5131 62.6963 60.9766C63.1615 61.44 63.7913 61.7002 64.448 61.7002C65.1047 61.7002 65.7345 61.44 66.1997 60.9766C66.6649 60.5131 66.9275 59.8842 66.93 59.2276V44.8694H76.8393V59.2276C76.8393 59.8859 77.1008 60.5172 77.5663 60.9826C78.0318 61.4481 78.6631 61.7096 79.3213 61.7096C79.9796 61.7096 80.6109 61.4481 81.0764 60.9826C81.5418 60.5172 81.8033 59.8859 81.8033 59.2276V44.8788H84.2666C85.1189 44.8788 85.9525 44.7851 86.758 44.6259V64.9596C86.758 65.6163 87.0182 66.2462 87.4817 66.7114C87.9451 67.1766 88.574 67.4392 89.2307 67.4416C89.8889 67.4416 90.5202 67.1801 90.9857 66.7147C91.4512 66.2492 91.7127 65.6179 91.7127 64.9596V42.3124C94.7098 40.0459 96.6767 36.5055 96.6767 32.4781C96.6767 25.6596 91.0851 20.0774 84.2666 20.0774H81.2507L84.1917 9.09096C84.2924 8.7231 84.3071 8.33698 84.2344 7.96256C84.1618 7.58813 84.0038 7.23549 83.7728 6.93201C83.5418 6.62852 83.2439 6.38236 82.9024 6.21263C82.5608 6.0429 82.1848 5.95417 81.8033 5.95332H76.8393C76.8319 4.64079 76.3059 3.38441 75.3761 2.45805C74.4462 1.5317 73.1879 1.01048 71.8753 1.00803ZM34.692 6.815V20.0774H11.7451L34.692 6.815ZM109.04 6.815L132.006 20.0774H109.04V6.815ZM65.2066 10.9173H78.544L76.09 20.0774H67.6418L65.2066 10.9173ZM4.94529 25.032H34.7107V29.996H4.95466L4.94529 25.032ZM59.484 25.032H84.2573C88.4158 25.032 91.7033 28.3102 91.7033 32.4781C91.7033 36.6366 88.4252 39.9054 84.2573 39.9054H59.4933C58.5143 39.9153 57.5431 39.7302 56.6364 39.3607C55.7298 38.9912 54.9058 38.4448 54.2126 37.7534C53.5194 37.0619 52.9709 36.2393 52.5992 35.3336C52.2274 34.4278 52.0398 33.4571 52.0473 32.4781C52.0473 28.3195 55.3161 25.032 59.484 25.032ZM109.031 25.032H138.777V29.996H109.031V25.032ZM4.95466 34.9507H9.91868V69.4553H4.95466V34.9507ZM14.8733 34.9507H24.7826V69.4553H14.8546L14.8733 34.9507ZM29.7467 34.9507H34.7013V69.4553H29.7373L29.7467 34.9507ZM109.04 34.9507H114.004V69.4553H109.04V34.9507ZM118.968 34.9507H128.877V69.4553H118.959L118.968 34.9507ZM133.832 34.9507H138.796V69.4553H133.832V34.9507ZM71.8659 63.4611C71.4263 63.4807 70.9997 63.6164 70.6296 63.8544L26.0845 89.555C25.0543 90.1544 24.792 90.8006 24.792 91.7373V141.303C24.792 141.628 24.8562 141.951 24.9809 142.252C25.1057 142.553 25.2885 142.827 25.519 143.058C25.7495 143.288 26.0231 143.471 26.3242 143.596C26.6253 143.72 26.9481 143.785 27.274 143.785H37.1646C37.4921 143.787 37.8169 143.725 38.1202 143.601C38.4235 143.477 38.6993 143.295 38.9318 143.064C39.1642 142.834 39.3487 142.559 39.4746 142.257C39.6005 141.954 39.6654 141.63 39.6653 141.303V104.119H49.5747V141.537C49.5796 142.19 49.842 142.815 50.3049 143.276C50.7678 143.738 51.3939 143.998 52.0473 144H61.9566C62.6133 144.002 63.2442 143.745 63.7111 143.283C64.1781 142.821 64.443 142.193 64.448 141.537V104.129H79.3026V141.537C79.3076 142.193 79.5725 142.821 80.0395 143.283C80.5064 143.745 81.1373 144.002 81.794 144H91.7033C92.3551 143.995 92.9788 143.734 93.4397 143.273C93.9006 142.812 94.1617 142.188 94.1666 141.537V104.129H104.095V141.303C104.095 141.958 104.354 142.586 104.815 143.051C105.276 143.516 105.903 143.78 106.558 143.785H116.477C117.135 143.785 117.766 143.523 118.232 143.058C118.697 142.592 118.959 141.961 118.959 141.303V91.7373C118.959 90.5852 118.509 90.042 117.619 89.5269L73.1116 63.8544C72.7369 63.6115 72.3029 63.4755 71.8566 63.4611H71.8659ZM71.8659 68.8465L107.232 89.2646H36.5183L71.8659 68.8465ZM29.7467 94.2193H114.004V99.1833H29.7467V94.2193ZM4.95466 104.138H9.91868V138.839H4.95466V104.138ZM29.7467 104.138H34.7013V138.839H29.7373L29.7467 104.138ZM54.5293 104.138H59.4933V139.055H54.5293V104.138ZM84.2573 104.138H89.2213V139.055H84.2573V104.138ZM109.04 104.138H114.004V138.839H109.04V104.138ZM133.832 104.138H138.796V138.839H133.832V104.138Z" fill="#3B3D41"/>
</g>
</svg>
