<svg width="30" height="30" viewBox="0 0 30 30" fill="none" xmlns="http://www.w3.org/2000/svg">
<mask id="mask0_865_17207" style="mask-type:luminance" maskUnits="userSpaceOnUse" x="0" y="0" width="30" height="30">
<path d="M28 28V2H2V28H28Z" fill="white" stroke="white" stroke-width="4"/>
</mask>
<g mask="url(#mask0_865_17207)">
<path d="M22.1527 0.00122108C21.8717 0.0187825 21.6844 0.295862 21.6844 0.528063V14.4699H21.1069C20.9704 14.4704 20.8397 14.5248 20.7432 14.6213C20.6467 14.7178 20.5922 14.8485 20.5917 14.985C20.5917 15.1218 20.6459 15.253 20.7425 15.3499C20.839 15.4469 20.9701 15.5016 21.1069 15.5021H28.9139V18.5968H26.3343C26.1975 18.5968 26.0663 18.651 25.9694 18.7476C25.8724 18.8441 25.8177 18.9751 25.8172 19.1119C25.8172 19.2491 25.8717 19.3806 25.9687 19.4776C26.0656 19.5745 26.1972 19.629 26.3343 19.629H28.9158V20.6632H26.3343C26.1975 20.6632 26.0663 20.7174 25.9694 20.8139C25.8724 20.9105 25.8177 21.0415 25.8172 21.1783C25.8177 21.3151 25.8724 21.4461 25.9694 21.5427C26.0663 21.6392 26.1975 21.6935 26.3343 21.6935H26.8514V29.44C26.8514 29.5765 26.9053 29.7074 27.0015 29.8042C27.0976 29.9011 27.2281 29.956 27.3646 29.9571H29.431C29.5678 29.9566 29.6988 29.9018 29.7953 29.8049C29.8919 29.708 29.9461 29.5768 29.9461 29.44V4.69987C29.9461 4.50865 29.8817 4.3662 29.6593 4.23742L22.4571 0.081223C22.3657 0.0252749 22.2598 -0.00254699 22.1527 0.00122108ZM7.74848 0.00122108C7.65703 0.00787402 7.56829 0.0352307 7.48896 0.081223L0.259518 4.25693C0.00195118 4.40523 0 4.5828 0 4.70377V29.4419C-4.84639e-07 29.51 0.0134387 29.5774 0.0395466 29.6403C0.0656545 29.7031 0.103917 29.7602 0.15214 29.8083C0.200363 29.8563 0.257596 29.8944 0.320557 29.9202C0.383519 29.9461 0.450968 29.9593 0.519037 29.959H2.58348C2.72028 29.9585 2.8513 29.9038 2.94785 29.8069C3.0444 29.71 3.09861 29.5787 3.09861 29.4419V21.6954H3.6157C3.75216 21.6949 3.88289 21.6405 3.97938 21.544C4.07588 21.4475 4.13032 21.3167 4.13083 21.1803C4.13083 21.0435 4.07662 20.9122 3.98007 20.8153C3.88352 20.7184 3.7525 20.6637 3.6157 20.6632H1.03222V19.629H3.6157V19.6329C3.7525 19.6324 3.88352 19.5777 3.98007 19.4808C4.07662 19.3839 4.13083 19.2526 4.13083 19.1158C4.13032 18.9794 4.07588 18.8486 3.97938 18.7521C3.88289 18.6556 3.75216 18.6012 3.6157 18.6007L3.6235 18.5987H1.03417V15.5021H8.83924C8.97638 15.5021 9.1079 15.4476 9.20487 15.3506C9.30185 15.2537 9.35632 15.1221 9.35632 14.985C9.35581 14.8485 9.30137 14.7178 9.20488 14.6213C9.10838 14.5248 8.97765 14.4704 8.84119 14.4699H8.26361V0.526112C8.26361 0.155371 8.01385 -0.0163403 7.74848 0.00122108ZM14.974 0.210007C14.7006 0.210517 14.4384 0.319104 14.2447 0.512095C14.051 0.705086 13.9414 0.966832 13.9398 1.24028H12.9096C12.8301 1.24045 12.7518 1.25894 12.6806 1.2943C12.6095 1.32966 12.5474 1.38094 12.4993 1.44417C12.4512 1.50739 12.4182 1.58086 12.4031 1.65887C12.388 1.73687 12.391 1.81731 12.412 1.89395L13.0247 4.18279H12.3964C10.9739 4.18279 9.81097 5.34574 9.81097 6.76626C9.81097 7.60531 10.2207 8.34289 10.8451 8.81509V13.5313C10.8451 13.6681 10.8993 13.7993 10.9959 13.8963C11.0925 13.9932 11.2235 14.0479 11.3603 14.0484C11.4974 14.0484 11.6289 13.9939 11.7259 13.8969C11.8229 13.8 11.8774 13.6684 11.8774 13.5313V9.2951C12.0452 9.32828 12.2188 9.34779 12.3964 9.34779H12.9096V12.3391C12.9101 12.4759 12.9648 12.6069 13.0617 12.7035C13.1586 12.8 13.2899 12.8542 13.4267 12.8542C13.5635 12.8542 13.6947 12.8 13.7916 12.7035C13.8885 12.6069 13.9432 12.4759 13.9438 12.3391V9.34779H16.0082V12.3391C16.0082 12.4762 16.0627 12.6077 16.1596 12.7047C16.2566 12.8017 16.3881 12.8562 16.5253 12.8562C16.6624 12.8562 16.7939 12.8017 16.8909 12.7047C16.9879 12.6077 17.0424 12.4762 17.0424 12.3391V9.34974H17.5555C17.7331 9.34974 17.9068 9.33023 18.0746 9.29706V13.5333C18.0746 13.6701 18.1288 13.8013 18.2253 13.8982C18.3219 13.9951 18.4529 14.0498 18.5897 14.0503C18.7269 14.0503 18.8584 13.9959 18.9554 13.8989C19.0523 13.8019 19.1068 13.6704 19.1068 13.5333V8.81509C19.7312 8.34289 20.141 7.60531 20.141 6.76626C20.141 5.34574 18.9761 4.18279 17.5555 4.18279H16.9272L17.5399 1.89395C17.5609 1.81731 17.564 1.73687 17.5488 1.65887C17.5337 1.58086 17.5008 1.50739 17.4527 1.44417C17.4045 1.38094 17.3425 1.32966 17.2713 1.2943C17.2002 1.25894 17.1218 1.24045 17.0424 1.24028H16.0082C16.0066 0.966832 15.8971 0.705086 15.7034 0.512095C15.5096 0.319104 15.2475 0.210517 14.974 0.210007ZM7.22749 1.41979V4.18279H2.44689L7.22749 1.41979ZM22.7166 1.41979L27.5012 4.18279H22.7166V1.41979ZM13.5847 2.27445H16.3633L15.8521 4.18279H14.092L13.5847 2.27445ZM1.03027 5.21501H7.23139V6.24918H1.03222L1.03027 5.21501ZM12.3925 5.21501H17.5536C18.42 5.21501 19.1049 5.89795 19.1049 6.76626C19.1049 7.63263 18.4219 8.31362 17.5536 8.31362H12.3944C12.1905 8.3157 11.9881 8.27712 11.7993 8.20015C11.6104 8.12317 11.4387 8.00933 11.2943 7.86528C11.1499 7.72123 11.0356 7.54986 10.9582 7.36116C10.8807 7.17247 10.8416 6.97023 10.8432 6.76626C10.8432 5.8999 11.5242 5.21501 12.3925 5.21501ZM22.7147 5.21501H28.9119V6.24918H22.7147V5.21501ZM1.03222 7.2814H2.06639V14.4699H1.03222V7.2814ZM3.09861 7.2814H5.16305V14.4699H3.09471L3.09861 7.2814ZM6.19722 7.2814H7.22944V14.4699H6.19527L6.19722 7.2814ZM22.7166 7.2814H23.7508V14.4699H22.7166V7.2814ZM24.785 7.2814H26.8494V14.4699H24.783L24.785 7.2814ZM27.8817 7.2814H28.9158V14.4699H27.8817V7.2814ZM14.9721 13.2211C14.8805 13.2251 14.7916 13.2534 14.7145 13.303L5.43428 18.6573C5.21964 18.7822 5.165 18.9168 5.165 19.1119V29.438C5.165 29.5059 5.17838 29.5732 5.20436 29.6359C5.23035 29.6986 5.26844 29.7557 5.31645 29.8037C5.36447 29.8517 5.42147 29.8898 5.48421 29.9158C5.54694 29.9417 5.61418 29.9551 5.68209 29.9551H7.74263C7.81086 29.9556 7.87852 29.9426 7.94171 29.9169C8.00489 29.8911 8.06236 29.8531 8.11079 29.8051C8.15922 29.757 8.19765 29.6998 8.22388 29.6368C8.25011 29.5738 8.26362 29.5063 8.26361 29.438V21.6915H10.3281V29.4868C10.3291 29.6229 10.3837 29.7532 10.4802 29.8492C10.5766 29.9453 10.7071 29.9995 10.8432 30H12.9076C13.0444 30.0005 13.1759 29.9468 13.2732 29.8506C13.3704 29.7544 13.4256 29.6236 13.4267 29.4868V21.6935H16.5214V29.4868C16.5224 29.6236 16.5776 29.7544 16.6749 29.8506C16.7722 29.9468 16.9036 30.0005 17.0404 30H19.1049C19.2406 29.999 19.3706 29.9446 19.4666 29.8486C19.5626 29.7525 19.617 29.6226 19.618 29.4868V21.6935H21.6864V29.438C21.6864 29.5745 21.7403 29.7054 21.8364 29.8023C21.9326 29.8992 22.0631 29.9541 22.1996 29.9551H24.266C24.4031 29.9551 24.5346 29.9006 24.6316 29.8037C24.7286 29.7067 24.783 29.5752 24.783 29.438V19.1119C24.783 18.8719 24.6894 18.7587 24.504 18.6514L15.2316 13.303C15.1535 13.2524 15.0631 13.2241 14.9701 13.2211H14.9721ZM14.9721 14.343L22.3401 18.5968H7.60799L14.9721 14.343ZM6.19722 19.629H23.7508V20.6632H6.19722V19.629ZM1.03222 21.6954H2.06639V28.9249H1.03222V21.6954ZM6.19722 21.6954H7.22944V28.9249H6.19527L6.19722 21.6954ZM11.3603 21.6954H12.3944V28.9697H11.3603V21.6954ZM17.5536 21.6954H18.5878V28.9697H17.5536V21.6954ZM22.7166 21.6954H23.7508V28.9249H22.7166V21.6954ZM27.8817 21.6954H28.9158V28.9249H27.8817V21.6954Z" fill="#3B3D41"/>
</g>
</svg>
