<svg width="30" height="30" viewBox="0 0 30 30" fill="none" xmlns="http://www.w3.org/2000/svg">
<mask id="mask0_865_17219" style="mask-type:luminance" maskUnits="userSpaceOnUse" x="0" y="0" width="30" height="30">
<path d="M29.5 29.5V0.5H0.5V29.5H29.5Z" fill="white" stroke="white"/>
</mask>
<g mask="url(#mask0_865_17219)">
<path d="M4.3987 12.0261L14.915 17.3915L25.3216 12.082M14.9188 28.5207V22.4358M14.9188 20.5634V17.3915M13.3549 2.73843L14.8602 1.23315L16.3655 2.73843M14.9188 1.35031V6.46372M2.59783 26.258H0.452153C0.416009 26.258 0.386719 26.2287 0.386719 26.1925V24.0469M0.494213 26.0412L4.18377 23.2443M27.2396 26.258H29.3853C29.4215 26.258 29.4507 26.2287 29.4507 26.1925V24.0469M29.3433 26.0412L25.6538 23.2443" stroke="#3B3D41" stroke-miterlimit="10" stroke-linecap="round" stroke-linejoin="round"/>
<path d="M18.2826 8.1595L14.9587 6.46367C14.9451 6.45674 14.93 6.45312 14.9147 6.45312C14.8995 6.45312 14.8844 6.45674 14.8708 6.46367L4.23637 11.8894C4.22048 11.8975 4.20714 11.9099 4.19783 11.9251C4.18851 11.9403 4.18359 11.9578 4.18359 11.9756V23.2443C4.18359 23.2806 4.20398 23.3139 4.23637 23.3304L6.02864 24.2449M7.75956 25.128L14.8708 28.7562C14.8984 28.7702 14.9311 28.7702 14.9588 28.7562L25.5932 23.3304C25.6091 23.3223 25.6225 23.31 25.6318 23.2948C25.6411 23.2796 25.646 23.2621 25.646 23.2443V11.9756C25.646 11.9393 25.6256 11.9059 25.5932 11.8894L19.9628 9.01677" stroke="#3B3D41" stroke-miterlimit="10" stroke-linecap="round" stroke-linejoin="round"/>
</g>
</svg>
