<svg width="200" height="200" viewBox="0 0 200 200" fill="none" xmlns="http://www.w3.org/2000/svg">
<mask id="mask0_611_44020" style="mask-type:luminance" maskUnits="userSpaceOnUse" x="0" y="0" width="200" height="200">
<path d="M198 198V2H2V198H198Z" fill="white" stroke="white" stroke-width="4"/>
</mask>
<g mask="url(#mask0_611_44020)">
<path d="M198.434 81.5549V74.213C198.907 73.9647 199.302 73.592 199.578 73.1353C199.854 72.6785 200 72.1551 200 71.6215C200 70.8444 199.691 70.0992 199.141 69.5497C198.592 69.0003 197.847 68.6916 197.07 68.6916H143.636V43.2383H143.838C144.491 43.2383 145.126 43.0199 145.641 42.6178C146.156 42.2157 146.522 41.6529 146.68 41.019L149.812 28.494C149.92 28.062 149.928 27.6112 149.836 27.1756C149.743 26.74 149.553 26.3313 149.279 25.9803C149.005 25.6294 148.654 25.3455 148.254 25.1502C147.854 24.955 147.415 24.8535 146.969 24.8535H134.444C133.999 24.8537 133.56 24.9553 133.159 25.1505C132.759 25.3458 132.409 25.6297 132.135 25.9806C131.861 26.3315 131.671 26.7402 131.578 27.1757C131.486 27.6112 131.494 28.0621 131.602 28.494L134.733 41.019C134.892 41.653 135.257 42.2157 135.772 42.6179C136.287 43.02 136.922 43.2384 137.576 43.2383H137.777V68.6916H62.2229V43.2383H62.4245C63.0779 43.2383 63.7125 43.0199 64.2275 42.6178C64.7425 42.2157 65.1084 41.6529 65.2668 41.019L68.3983 28.494C68.5063 28.062 68.5144 27.6112 68.422 27.1756C68.3297 26.74 68.1392 26.3313 67.8652 25.9803C67.5912 25.6294 67.2408 25.3455 66.8407 25.1502C66.4405 24.955 66.0012 24.8535 65.5559 24.8535H53.0305C52.5853 24.8537 52.146 24.9553 51.7459 25.1505C51.3458 25.3458 50.9955 25.6297 50.7215 25.9806C50.4476 26.3315 50.2571 26.7402 50.1647 27.1757C50.0723 27.6112 50.0803 28.0621 50.1881 28.494L53.3195 41.019C53.478 41.653 53.8438 42.2157 54.3588 42.6179C54.8738 43.02 55.5085 43.2384 56.1619 43.2383H56.3635V68.6916H2.92988C2.15283 68.6916 1.4076 69.0003 0.858142 69.5497C0.308683 70.0992 6.63159e-10 70.8444 6.63159e-10 71.6215C3.47205e-06 72.1552 0.145864 72.6787 0.421817 73.1355C0.697771 73.5924 1.09332 73.9651 1.56573 74.2134V81.5549C1.09333 81.8032 0.697765 82.1758 0.421806 82.6326C0.145847 83.0893 -1.13562e-05 83.6129 6.63159e-10 84.1465C6.63159e-10 84.9236 0.308683 85.6688 0.858142 86.2182C1.4076 86.7677 2.15283 87.0764 2.92988 87.0764H178.284C179.061 87.0764 179.806 86.7677 180.355 86.2182C180.905 85.6688 181.214 84.9236 181.214 84.1465C181.214 83.3694 180.905 82.6242 180.355 82.0748C179.806 81.5253 179.061 81.2166 178.284 81.2166H170.252V74.5509H192.574V81.2166H190.806C190.029 81.2166 189.284 81.5253 188.735 82.0748C188.185 82.6242 187.877 83.3694 187.877 84.1465C187.877 84.9236 188.185 85.6688 188.735 86.2182C189.284 86.7677 190.029 87.0764 190.806 87.0764H197.07C197.847 87.0764 198.592 86.7677 199.141 86.2182C199.691 85.6688 200 84.9236 200 84.1465C200 83.6129 199.854 83.0894 199.578 82.6326C199.302 82.1759 198.907 81.8032 198.434 81.5549ZM29.7473 81.2166H7.42549V74.5509H29.7473V81.2166ZM56.3635 81.2166H35.607V74.5509H56.3635V81.2166ZM60.1368 37.3782H58.4496L56.7831 30.7129H61.8033L60.1368 37.3782ZM82.9793 81.2166H62.2229V74.5509H82.9793V81.2166ZM111.161 81.2166H88.8391V74.5509H111.161V81.2166ZM137.777 81.2166H117.02V74.5509H137.777V81.2166ZM141.55 37.3782H139.863L138.197 30.7129H143.217L141.55 37.3782ZM164.393 81.2166H143.636V74.5509H164.393V81.2166ZM197.07 137.58H156.162V127.985C156.162 127.208 155.853 126.462 155.304 125.913C154.754 125.363 154.009 125.055 153.232 125.055H153.03V114.068C153.03 110.533 155.753 107.074 160.695 104.328C166.181 101.28 173.54 99.6014 181.414 99.6014C186.623 99.6014 191.731 100.359 196.185 101.792C196.921 102.018 197.718 101.946 198.401 101.59C199.084 101.233 199.6 100.622 199.836 99.8885C200.072 99.1549 200.01 98.3578 199.662 97.6699C199.315 96.982 198.71 96.4587 197.98 96.2133C192.953 94.596 187.224 93.7413 181.414 93.7413C162.212 93.7413 147.171 102.67 147.171 114.067V125.054H134.242V114.067C134.242 102.67 119.201 93.7413 100 93.7413C80.7983 93.7413 65.7571 102.67 65.7571 114.067V125.054H46.7679C45.9909 125.054 45.2457 125.363 44.6962 125.912C44.1467 126.462 43.8381 127.207 43.8381 127.984V137.58H2.92988C2.15283 137.58 1.4076 137.888 0.858142 138.438C0.308683 138.987 6.63159e-10 139.733 6.63159e-10 140.51C6.63159e-10 141.287 0.308683 142.032 0.858142 142.581C1.4076 143.131 2.15283 143.439 2.92988 143.439H197.07C197.841 143.431 198.578 143.118 199.12 142.57C199.662 142.021 199.966 141.281 199.966 140.51C199.966 139.739 199.662 138.999 199.12 138.45C198.578 137.902 197.841 137.589 197.07 137.58ZM68.8882 137.58H49.6978V130.914H68.8885V137.58H68.8882ZM128.383 125.055H128.182C127.404 125.055 126.659 125.363 126.11 125.913C125.56 126.462 125.252 127.208 125.252 127.985V137.58H74.7479V127.985C74.7479 127.208 74.4392 126.462 73.8898 125.913C73.3403 125.363 72.5951 125.055 71.818 125.055H71.6165V114.068C71.6165 110.533 74.3385 107.074 79.281 104.328C84.7673 101.28 92.1256 99.6014 100 99.6014C107.874 99.6014 115.233 101.28 120.719 104.328C125.661 107.074 128.383 110.533 128.383 114.068V125.055H128.383ZM150.302 137.58H131.111V130.914H150.302V137.58Z" fill="white"/>
<path d="M18.5902 93.7422C12.7824 93.7422 7.05699 94.5969 2.03204 96.2142C1.29241 96.4523 0.677649 96.9745 0.322995 97.6659C-0.0316592 98.3572 -0.0971597 99.1612 0.140901 99.9008C0.258714 100.267 0.447539 100.607 0.69659 100.9C0.945642 101.193 1.25004 101.435 1.59239 101.61C1.93474 101.786 2.30834 101.892 2.69185 101.923C3.07535 101.955 3.46124 101.91 3.82747 101.792C8.27933 100.359 13.3844 99.602 18.5906 99.602C26.4606 99.602 33.8146 101.28 39.2978 104.328C44.238 107.074 46.9581 110.533 46.9581 114.068V115.46C46.9581 116.237 47.2668 116.982 47.8162 117.532C48.3657 118.081 49.1109 118.39 49.888 118.39C50.665 118.39 51.4102 118.081 51.9597 117.532C52.5092 116.982 52.8178 116.237 52.8178 115.46V114.068C52.8178 102.671 37.7832 93.7422 18.5902 93.7422Z" fill="white"/>
</g>
</svg>
