<svg width="194" height="200" viewBox="0 0 194 200" fill="none" xmlns="http://www.w3.org/2000/svg">
<path d="M173.948 200C173.655 199.999 173.367 199.926 173.109 199.787C172.851 199.647 172.632 199.445 172.471 199.2C172.311 198.954 172.214 198.673 172.189 198.38C172.165 198.088 172.213 197.794 172.331 197.526C172.484 197.175 187.686 162.095 189.847 129.684C191.036 111.849 182.36 98.6552 174.872 90.7273C165.354 80.6493 154.121 75.1425 147.21 74.1548C139.829 73.1006 127.485 69.3893 116.542 63.4746C107.686 58.687 97.1286 50.9891 97.1286 41.5018C97.1286 34.5328 104.034 25.4358 117.654 14.4646C118.179 14.0416 118.705 13.624 119.228 13.2121C105.446 21.1034 89.6227 32.9809 89.6227 45.9172C89.6227 68.5249 134.173 79.4117 134.623 79.519C135.106 79.6395 146.117 82.4479 157.018 89.9948C171.633 100.113 178.86 113.913 177.919 129.906C176.759 149.623 168.907 167.458 162.524 178.948C155.618 191.378 149.075 199.062 148.8 199.383C148.495 199.739 148.062 199.959 147.594 199.995C147.127 200.031 146.665 199.88 146.309 199.575C145.954 199.27 145.734 198.837 145.698 198.37C145.662 197.902 145.813 197.44 146.117 197.085C146.379 196.78 172.248 166.171 174.393 129.698C175.27 114.792 168.748 102.411 155.007 92.8986C144.631 85.715 133.893 82.9773 133.786 82.9503C131.857 82.4912 86.0912 71.3028 86.0912 45.9176C86.0912 20.7197 135.867 0.95261 137.986 0.123481C138.397 -0.0370923 138.853 -0.0379672 139.265 0.121027C139.677 0.280021 140.014 0.587376 140.211 0.982632C140.407 1.3782 140.448 1.83288 140.326 2.25714C140.204 2.6814 139.927 3.04448 139.55 3.27488C128.734 9.88716 100.661 29.6445 100.661 41.5027C100.661 55.201 131.555 68.3514 147.709 70.6591C164.388 73.0418 195.624 96.1188 193.371 129.919C191.168 162.957 175.722 198.586 175.567 198.942C175.429 199.257 175.203 199.524 174.915 199.712C174.628 199.9 174.292 200 173.948 200ZM26.0495 199.999C25.6822 199.999 25.3239 199.885 25.0246 199.672C24.7253 199.459 24.4999 199.158 24.3797 198.811C24.2595 198.464 24.2505 198.088 24.3541 197.736C24.4576 197.383 24.6684 197.072 24.9573 196.845C25.2654 196.603 55.9308 172.476 68.9492 159.458C80.5442 147.862 86.4952 133.431 84.8683 120.854C83.5424 110.606 77.3986 102.015 67.1007 96.0076C41.1778 80.8859 41.7438 67.4357 41.9425 65.6711C41.9959 51.3357 52.1035 36.6003 72.0026 21.827C52.2218 33.49 32.2296 49.7829 32.2296 67.9924C32.2296 68.0348 32.2896 72.7694 35.1726 78.7111C39.0343 86.6704 45.8656 92.9211 55.4765 97.2897C67.6353 102.817 71.317 111.934 72.2644 118.609C73.9651 130.591 68.2737 144.499 58.1021 153.218C42.8171 166.318 3.29393 199.259 2.89658 199.59C2.5367 199.89 2.07246 200.034 1.60598 199.992C1.1395 199.949 0.709006 199.723 0.409192 199.364C0.109378 199.004 -0.0351935 198.539 0.00728112 198.073C0.0497557 197.606 0.275798 197.176 0.63568 196.876C1.03258 196.545 40.5376 163.62 55.8041 150.535C64.951 142.695 70.2817 129.77 68.7678 119.104C67.5872 110.786 62.4857 104.354 54.0152 100.504C40.9884 94.5829 34.8017 86.122 31.906 80.0669C28.7342 73.4352 28.6976 68.211 28.6976 67.9916C28.6976 51.7635 42.3557 35.3778 69.2927 19.2906C89.077 7.47483 109.132 0.178226 109.333 0.106263C109.765 -0.0507219 110.241 -0.0332085 110.66 0.155083C111.079 0.343375 111.408 0.687618 111.578 1.11472C111.747 1.54183 111.743 2.01817 111.567 2.4426C111.391 2.86702 111.057 3.20612 110.635 3.3879C109.983 3.67046 45.474 32.0304 45.474 65.7845C45.474 65.8817 45.4661 65.9788 45.4502 66.075C45.4365 66.1748 44.0325 78.4616 68.8804 92.9564C80.1593 99.536 86.8991 109.026 88.3706 120.4C90.164 134.261 83.9954 149.406 71.4468 161.955C58.2796 175.122 27.4495 199.379 27.1396 199.622C26.829 199.867 26.445 200 26.0495 199.999ZM96.6889 180.132C96.3151 180.132 95.9508 180.014 95.6486 179.794C95.3464 179.574 95.1218 179.264 95.007 178.908C94.8923 178.552 94.8935 178.169 95.0103 177.814C95.1271 177.459 95.3536 177.15 95.6571 176.932C98.7877 174.681 101.746 172.408 104.448 170.174C104.809 169.875 105.273 169.732 105.74 169.777C106.206 169.821 106.636 170.048 106.934 170.409C107.233 170.77 107.376 171.235 107.331 171.701C107.287 172.168 107.059 172.597 106.698 172.896C103.935 175.18 100.914 177.503 97.7189 179.8C97.4189 180.016 97.0585 180.132 96.6889 180.132ZM116.779 162.722C116.34 162.723 115.917 162.559 115.592 162.264C115.421 162.108 115.281 161.92 115.182 161.711C115.083 161.501 115.026 161.274 115.015 161.042C115.004 160.811 115.038 160.579 115.116 160.361C115.195 160.142 115.315 159.942 115.471 159.77C118.378 156.566 120.832 152.919 122.762 148.931C122.974 148.522 123.337 148.213 123.774 148.068C124.21 147.923 124.686 147.954 125.1 148.155C125.514 148.355 125.834 148.709 125.991 149.142C126.148 149.574 126.13 150.051 125.942 150.47C123.863 154.762 121.221 158.69 118.087 162.143C117.921 162.326 117.72 162.472 117.494 162.572C117.269 162.671 117.025 162.723 116.779 162.722ZM128.883 135.984C128.633 135.984 128.387 135.932 128.159 135.83C127.931 135.728 127.728 135.579 127.562 135.393C127.396 135.207 127.271 134.987 127.196 134.75C127.121 134.512 127.097 134.261 127.126 134.013C127.726 128.892 127.432 123.896 126.253 119.164C126.195 118.938 126.182 118.703 126.215 118.473C126.248 118.242 126.327 118.021 126.446 117.82C126.565 117.62 126.723 117.446 126.91 117.307C127.097 117.168 127.31 117.067 127.536 117.011C127.762 116.955 127.997 116.943 128.227 116.978C128.458 117.013 128.679 117.093 128.878 117.214C129.077 117.335 129.251 117.493 129.388 117.681C129.526 117.869 129.625 118.083 129.68 118.309C130.963 123.456 131.284 128.877 130.634 134.424C130.584 134.853 130.378 135.249 130.055 135.537C129.732 135.824 129.315 135.984 128.883 135.984ZM121.792 107.311C121.516 107.312 121.243 107.247 120.997 107.123C120.75 106.999 120.536 106.819 120.372 106.597C118.364 103.887 115.94 101.459 113.169 99.3802C112.794 99.0991 112.546 98.6807 112.48 98.217C112.414 97.7533 112.535 97.2823 112.816 96.9076C113.097 96.5329 113.515 96.2852 113.979 96.219C114.443 96.1528 114.914 96.2735 115.288 96.5546C118.333 98.8384 120.999 101.509 123.21 104.494C123.404 104.756 123.522 105.068 123.549 105.394C123.577 105.719 123.514 106.046 123.367 106.338C123.22 106.63 122.995 106.876 122.717 107.048C122.439 107.219 122.119 107.311 121.792 107.311ZM94.6054 89.5357C94.3694 89.5377 94.1355 89.4914 93.918 89.3997C89.0625 87.3454 85.0303 85.5944 81.0255 83.338C80.6265 83.1033 80.3356 82.7215 80.2153 82.2745C80.095 81.8276 80.1549 81.3513 80.3822 80.9481C80.6094 80.5449 80.9858 80.247 81.4304 80.1185C81.875 79.9899 82.3523 80.041 82.7597 80.2607C86.6033 82.4267 90.5432 84.1366 95.2946 86.1472C95.5082 86.2375 95.7019 86.369 95.8647 86.5343C96.0274 86.6995 96.156 86.8951 96.2431 87.11C96.3302 87.3249 96.3742 87.5549 96.3724 87.7868C96.3706 88.0187 96.3232 88.248 96.2328 88.4615C95.9507 89.1273 95.2902 89.5308 94.6054 89.5357ZM70.143 74.2983C69.9025 74.3005 69.6642 74.253 69.4429 74.159C69.2215 74.0649 69.0219 73.9263 68.8565 73.7518C67.0548 71.837 65.5603 69.92 64.4142 68.0538C63.1528 66 62.2787 63.8252 61.8169 61.5908C61.7678 61.3629 61.7644 61.1275 61.8068 60.8983C61.8492 60.6691 61.9365 60.4506 62.0638 60.2553C62.191 60.06 62.3557 59.8918 62.5482 59.7605C62.7408 59.6291 62.9575 59.5372 63.1857 59.49C63.414 59.4428 63.6494 59.4412 63.8782 59.4854C64.1071 59.5296 64.3249 59.6187 64.5192 59.7475C64.7135 59.8763 64.8803 60.0423 65.0101 60.2359C65.14 60.4295 65.2302 60.6469 65.2755 60.8755C65.6544 62.7077 66.3775 64.5011 67.4239 66.2053C68.4446 67.8671 69.7916 69.5915 71.4287 71.331C71.7496 71.6721 71.9219 72.1267 71.9077 72.5949C71.8934 73.063 71.6938 73.5063 71.3527 73.8273C71.0239 74.1321 70.5914 74.3005 70.143 74.2983ZM68.0609 45.3238C67.7176 45.3288 67.3806 45.2315 67.0927 45.0444C66.8989 44.917 66.7321 44.7527 66.6017 44.5608C66.4714 44.369 66.3801 44.1533 66.3332 43.9262C66.2862 43.6991 66.2844 43.4649 66.3279 43.2371C66.3714 43.0093 66.4594 42.7923 66.5868 42.5985C69.034 38.8745 72.3196 35.1116 76.3531 31.4154C76.6984 31.0989 77.1552 30.9326 77.6231 30.953C78.0909 30.9733 78.5316 31.1787 78.848 31.524C79.1645 31.8692 79.3308 32.3261 79.3104 32.7939C79.2901 33.2618 79.0846 33.7024 78.7394 34.0189C74.9213 37.5182 71.8256 41.0577 69.5386 44.538C69.2079 45.0417 68.6371 45.319 68.0609 45.3238Z" fill="white"/>
</svg>
