<svg width="30" height="31" viewBox="0 0 30 31" fill="none" xmlns="http://www.w3.org/2000/svg">
<path d="M26.9707 31.0099C26.9252 31.0099 26.8804 30.9985 26.8404 30.9769C26.8005 30.9552 26.7665 30.9239 26.7416 30.8859C26.7167 30.8478 26.7017 30.8041 26.6979 30.7588C26.6941 30.7135 26.7016 30.668 26.7198 30.6263C26.7437 30.5719 29.1006 25.1328 29.4357 20.1075C29.62 17.3422 28.2748 15.2965 27.1139 14.0672C25.6381 12.5046 23.8964 11.6508 22.8248 11.4977C21.6805 11.3342 19.7664 10.7588 18.0699 9.84172C16.6967 9.09941 15.0598 7.90585 15.0598 6.43484C15.0598 5.3543 16.1305 3.94381 18.2422 2.24273C18.3236 2.17715 18.4051 2.1124 18.4863 2.04853C16.3494 3.27207 13.896 5.11368 13.896 7.11945C13.896 10.6248 20.8035 12.3128 20.8733 12.3294C20.9481 12.3481 22.6554 12.7835 24.3457 13.9537C26.6116 15.5224 27.7322 17.6622 27.5863 20.1418C27.4065 23.199 26.189 25.9644 25.1993 27.7458C24.1285 29.6731 23.114 30.8645 23.0714 30.9143C23.0241 30.9694 22.9569 31.0035 22.8845 31.0091C22.8121 31.0147 22.7404 30.9913 22.6852 30.944C22.6301 30.8968 22.596 30.8296 22.5904 30.7571C22.5848 30.6847 22.6082 30.6131 22.6555 30.5579C22.696 30.5107 26.707 25.7648 27.0396 20.1096C27.1755 17.7985 26.1643 15.8788 24.0339 14.4039C22.425 13.2901 20.76 12.8656 20.7435 12.8614C20.4444 12.7902 13.3484 11.0555 13.3484 7.11952C13.3484 3.21258 21.0661 0.147702 21.3946 0.0191457C21.4584 -0.00575115 21.5292 -0.0058868 21.593 0.0187652C21.6569 0.0434172 21.7092 0.0910724 21.7397 0.152357C21.7701 0.213689 21.7765 0.284188 21.7575 0.349969C21.7385 0.41575 21.6956 0.472045 21.6372 0.507769C19.9601 1.533 15.6074 4.59638 15.6074 6.43498C15.6074 8.5589 20.3975 10.5979 22.9022 10.9557C25.4884 11.3251 30.3314 14.9032 29.9821 20.144C29.6406 25.2665 27.2457 30.7906 27.2216 30.8459C27.2003 30.8947 27.1652 30.9362 27.1206 30.9653C27.076 30.9944 27.0239 31.0099 26.9707 31.0099ZM4.03897 31.0098C3.98201 31.0099 3.92647 30.9921 3.88006 30.9591C3.83365 30.9261 3.7987 30.8794 3.78006 30.8256C3.76143 30.7718 3.76004 30.7135 3.77609 30.6588C3.79214 30.6042 3.82483 30.5559 3.86961 30.5207C3.9174 30.4832 8.67206 26.7424 10.6906 24.7239C12.4884 22.926 13.4111 20.6884 13.1588 18.7383C12.9532 17.1494 12.0006 15.8173 10.4039 14.8859C6.38461 12.5413 6.47237 10.4559 6.50317 10.1823C6.51145 7.95958 8.07864 5.67487 11.164 3.38427C8.09698 5.19261 4.99719 7.71883 4.99719 10.5422C4.99719 10.5488 5.0065 11.2829 5.4535 12.2041C6.05227 13.4382 7.11145 14.4074 8.60162 15.0847C10.4868 15.9417 11.0577 17.3553 11.2046 18.3902C11.4683 20.2481 10.5858 22.4046 9.00872 23.7564C6.63878 25.7876 0.510722 30.895 0.449114 30.9464C0.393314 30.9929 0.321334 31.0153 0.249007 31.0087C0.17668 31.0021 0.109931 30.9671 0.0634451 30.9113C0.0169591 30.8555 -0.00545674 30.7835 0.00112894 30.7112C0.00771461 30.6388 0.0427623 30.5721 0.098562 30.5256C0.160102 30.4743 6.28535 25.3693 8.65242 23.3404C10.0706 22.1248 10.8972 20.1208 10.6624 18.467C10.4794 17.1774 9.68839 16.1801 8.37504 15.5831C6.35524 14.665 5.396 13.3532 4.94701 12.4144C4.45524 11.3861 4.44956 10.5761 4.44956 10.5421C4.44956 8.02592 6.56724 5.48532 10.7438 2.991C13.8114 1.15897 16.921 0.027634 16.952 0.016476C17.019 -0.00786442 17.0928 -0.00514897 17.1578 0.0240456C17.2228 0.0532403 17.2738 0.106615 17.3001 0.172838C17.3264 0.23906 17.3258 0.312916 17.2985 0.378724C17.2712 0.444531 17.2193 0.497109 17.1539 0.525293C17.0529 0.569104 7.05073 4.9663 7.05073 10.1999C7.05073 10.2149 7.0495 10.23 7.04704 10.2449C7.04491 10.2604 6.82723 12.1655 10.6799 14.4129C12.4287 15.433 13.4737 16.9044 13.7018 18.668C13.9799 20.8171 13.0235 23.1654 11.0778 25.111C9.03624 27.1526 4.25604 30.9136 4.20798 30.9513C4.15983 30.9893 4.10029 31.0099 4.03897 31.0098ZM14.9916 27.9294C14.9336 27.9294 14.8772 27.9111 14.8303 27.877C14.7834 27.8429 14.7486 27.7948 14.7308 27.7396C14.713 27.6845 14.7132 27.6251 14.7313 27.57C14.7494 27.515 14.7845 27.4671 14.8316 27.4333C15.317 27.0843 15.7757 26.7317 16.1946 26.3854C16.2506 26.3391 16.3226 26.3169 16.3949 26.3238C16.4672 26.3307 16.5338 26.3659 16.5801 26.4219C16.6264 26.4779 16.6485 26.55 16.6417 26.6223C16.6348 26.6946 16.5995 26.7612 16.5436 26.8075C16.1151 27.1616 15.6467 27.5218 15.1513 27.8779C15.1048 27.9114 15.0489 27.9294 14.9916 27.9294ZM18.1065 25.2301C18.0385 25.2301 17.9729 25.2048 17.9226 25.159C17.8959 25.1349 17.8743 25.1057 17.8589 25.0732C17.8436 25.0407 17.8348 25.0055 17.833 24.9696C17.8313 24.9336 17.8366 24.8977 17.8488 24.8639C17.8609 24.83 17.8796 24.7989 17.9038 24.7723C18.3545 24.2756 18.7349 23.7101 19.0343 23.0916C19.0671 23.0283 19.1234 22.9804 19.1911 22.9579C19.2588 22.9354 19.3326 22.9403 19.3968 22.9713C19.461 23.0024 19.5105 23.0573 19.5349 23.1244C19.5592 23.1914 19.5565 23.2653 19.5272 23.3303C19.205 23.9958 18.7953 24.6048 18.3093 25.1403C18.2837 25.1686 18.2524 25.1912 18.2174 25.2067C18.1825 25.2221 18.1447 25.2301 18.1065 25.2301ZM19.9832 21.0843C19.9446 21.0844 19.9063 21.0762 19.871 21.0604C19.8357 21.0446 19.8042 21.0215 19.7784 20.9926C19.7527 20.9638 19.7334 20.9298 19.7218 20.8929C19.7101 20.856 19.7064 20.8171 19.7109 20.7787C19.8039 19.9846 19.7584 19.21 19.5755 18.4763C19.5665 18.4414 19.5645 18.4049 19.5696 18.3692C19.5748 18.3334 19.5869 18.2991 19.6054 18.268C19.6239 18.237 19.6484 18.2099 19.6774 18.1884C19.7064 18.1668 19.7393 18.1513 19.7744 18.1425C19.8094 18.1338 19.8459 18.1321 19.8816 18.1375C19.9173 18.1429 19.9516 18.1553 19.9825 18.174C20.0134 18.1927 20.0403 18.2173 20.0616 18.2465C20.0829 18.2756 20.0983 18.3087 20.1068 18.3438C20.3057 19.1418 20.3556 19.9824 20.2548 20.8424C20.247 20.909 20.215 20.9704 20.165 21.0149C20.1149 21.0595 20.0503 21.0842 19.9832 21.0843ZM18.8838 16.6386C18.841 16.6386 18.7988 16.6286 18.7605 16.6094C18.7223 16.5902 18.6891 16.5622 18.6636 16.5278C18.3523 16.1076 17.9765 15.7311 17.5468 15.4089C17.4887 15.3653 17.4503 15.3004 17.44 15.2285C17.4297 15.1566 17.4484 15.0836 17.492 15.0255C17.5356 14.9674 17.6005 14.929 17.6724 14.9187C17.7443 14.9085 17.8173 14.9272 17.8754 14.9708C18.3475 15.3249 18.7608 15.739 19.1036 16.2017C19.1337 16.2424 19.152 16.2908 19.1563 16.3413C19.1606 16.3918 19.1509 16.4425 19.1281 16.4877C19.1053 16.533 19.0704 16.5711 19.0273 16.5977C18.9842 16.6243 18.9345 16.6385 18.8838 16.6386ZM14.6685 13.8825C14.632 13.8828 14.5957 13.8756 14.562 13.8614C13.8091 13.5429 13.1839 13.2714 12.563 12.9215C12.5011 12.8851 12.456 12.8259 12.4374 12.7566C12.4187 12.6874 12.428 12.6135 12.4632 12.551C12.4985 12.4885 12.5568 12.4423 12.6258 12.4223C12.6947 12.4024 12.7687 12.4103 12.8319 12.4444C13.4278 12.7802 14.0387 13.0454 14.7754 13.3571C14.8085 13.3711 14.8386 13.3915 14.8638 13.4171C14.889 13.4427 14.909 13.4731 14.9225 13.5064C14.936 13.5397 14.9428 13.5754 14.9425 13.6113C14.9422 13.6473 14.9349 13.6828 14.9209 13.7159C14.8771 13.8192 14.7747 13.8817 14.6685 13.8825ZM10.8757 11.5199C10.8384 11.5203 10.8014 11.5129 10.7671 11.4983C10.7328 11.4837 10.7018 11.4623 10.6762 11.4352C10.3968 11.1383 10.1651 10.8411 9.9874 10.5517C9.79183 10.2333 9.65629 9.89607 9.58469 9.54963C9.57709 9.5143 9.57656 9.47781 9.58313 9.44227C9.5897 9.40673 9.60324 9.37284 9.62297 9.34256C9.6427 9.31228 9.66823 9.28621 9.69809 9.26584C9.72795 9.24548 9.76154 9.23123 9.79693 9.22391C9.83232 9.21659 9.86881 9.21635 9.9043 9.2232C9.93979 9.23005 9.97356 9.24387 10.0037 9.26384C10.0338 9.28381 10.0597 9.30954 10.0798 9.33956C10.0999 9.36958 10.1139 9.40328 10.121 9.43873C10.1797 9.72282 10.2918 10.0009 10.4541 10.2651C10.6123 10.5228 10.8212 10.7901 11.075 11.0599C11.1248 11.1127 11.1515 11.1832 11.1493 11.2558C11.1471 11.3284 11.1161 11.3971 11.0632 11.4469C11.0122 11.4942 10.9452 11.5203 10.8757 11.5199ZM10.5528 7.02745C10.4996 7.02822 10.4473 7.01314 10.4027 6.98412C10.3727 6.96437 10.3468 6.93889 10.3266 6.90915C10.3064 6.8794 10.2922 6.84596 10.2849 6.81075C10.2777 6.77553 10.2774 6.73923 10.2841 6.7039C10.2909 6.66858 10.3045 6.63493 10.3243 6.60488C10.7037 6.02747 11.2131 5.44404 11.8385 4.87095C11.8921 4.82188 11.9629 4.79609 12.0354 4.79925C12.108 4.80241 12.1763 4.83426 12.2254 4.88779C12.2744 4.94132 12.3002 5.01215 12.2971 5.08469C12.2939 5.15724 12.2621 5.22555 12.2085 5.27462C11.6165 5.81718 11.1365 6.36598 10.7819 6.9056C10.7307 6.98371 10.6422 7.02669 10.5528 7.02745Z" fill="#3B3D41"/>
</svg>
