<svg width="30" height="30" viewBox="0 0 30 30" fill="none" xmlns="http://www.w3.org/2000/svg">
<mask id="mask0_865_17232" style="mask-type:luminance" maskUnits="userSpaceOnUse" x="0" y="0" width="30" height="30">
<path d="M28 28V2H2V28H28Z" fill="white" stroke="white" stroke-width="4"/>
</mask>
<g mask="url(#mask0_865_17232)">
<path d="M29.7651 12.2332V11.132C29.836 11.0947 29.8953 11.0388 29.9367 10.9703C29.9781 10.9018 29.9999 10.8233 29.9999 10.7432C29.9999 10.6267 29.9536 10.5149 29.8712 10.4325C29.7888 10.35 29.677 10.3037 29.5605 10.3037H21.5455V6.48575H21.5757C21.6737 6.48575 21.7689 6.45298 21.8462 6.39267C21.9234 6.33235 21.9783 6.24794 22.0021 6.15286L22.4718 4.2741C22.488 4.20931 22.4892 4.14167 22.4753 4.07634C22.4615 4.01101 22.4329 3.94969 22.3918 3.89705C22.3507 3.84441 22.2982 3.80182 22.2381 3.77254C22.1781 3.74325 22.1122 3.72803 22.0454 3.72803H20.1666C20.0998 3.72805 20.0339 3.74329 19.9739 3.77258C19.9139 3.80188 19.8614 3.84446 19.8203 3.89709C19.7792 3.94973 19.7506 4.01104 19.7367 4.07636C19.7229 4.14168 19.7241 4.20931 19.7403 4.2741L20.21 6.15286C20.2337 6.24795 20.2886 6.33236 20.3659 6.39268C20.4431 6.453 20.5383 6.48576 20.6363 6.48575H20.6666V10.3037H9.33343V6.48575H9.36367C9.46168 6.48575 9.55688 6.45298 9.63413 6.39267C9.71138 6.33235 9.76625 6.24794 9.79002 6.15286L10.2597 4.2741C10.2759 4.20931 10.2772 4.14167 10.2633 4.07634C10.2494 4.01101 10.2209 3.94969 10.1798 3.89705C10.1387 3.84441 10.0861 3.80182 10.0261 3.77254C9.96608 3.74325 9.90017 3.72803 9.83339 3.72803H7.95457C7.88779 3.72805 7.8219 3.74329 7.76188 3.77258C7.70187 3.80188 7.64933 3.84446 7.60823 3.89709C7.56713 3.94973 7.53857 4.01104 7.5247 4.07636C7.51084 4.14168 7.51204 4.20931 7.52821 4.2741L7.99793 6.15286C8.02169 6.24795 8.07656 6.33236 8.15382 6.39268C8.23107 6.453 8.32628 6.48576 8.42429 6.48575H8.45453V10.3037H0.439482C0.322924 10.3037 0.21114 10.35 0.128721 10.4325C0.0463025 10.5149 0 10.6267 0 10.7432C5.20807e-07 10.8233 0.0218795 10.9018 0.0632726 10.9703C0.104666 11.0389 0.163999 11.0948 0.234859 11.132V12.2332C0.163999 12.2705 0.104665 12.3264 0.0632709 12.3949C0.021877 12.4634 -1.70344e-06 12.5419 0 12.622C0 12.7385 0.0463025 12.8503 0.128721 12.9327C0.21114 13.0152 0.322924 13.0615 0.439482 13.0615H26.7426C26.8591 13.0615 26.9709 13.0152 27.0533 12.9327C27.1357 12.8503 27.182 12.7385 27.182 12.622C27.182 12.5054 27.1357 12.3936 27.0533 12.3112C26.9709 12.2288 26.8591 12.1825 26.7426 12.1825H25.5378V11.1826H28.8862V12.1825H28.621C28.5044 12.1825 28.3926 12.2288 28.3102 12.3112C28.2278 12.3936 28.1815 12.5054 28.1815 12.622C28.1815 12.7385 28.2278 12.8503 28.3102 12.9327C28.3926 13.0152 28.5044 13.0615 28.621 13.0615H29.5605C29.677 13.0615 29.7888 13.0152 29.8712 12.9327C29.9536 12.8503 29.9999 12.7385 29.9999 12.622C29.9999 12.5419 29.9781 12.4634 29.9367 12.3949C29.8953 12.3264 29.836 12.2705 29.7651 12.2332ZM4.46209 12.1825H1.11382V11.1826H4.46209V12.1825ZM8.45453 12.1825H5.34106V11.1826H8.45453V12.1825ZM9.02052 5.60673H8.76744L8.51746 4.60693H9.2705L9.02052 5.60673ZM12.4469 12.1825H9.33343V11.1826H12.4469V12.1825ZM16.6742 12.1825H13.3259V11.1826H16.6742V12.1825ZM20.6665 12.1825H17.553V11.1826H20.6665V12.1825ZM21.2326 5.60673H20.9795L20.7295 4.60693H21.4825L21.2326 5.60673ZM24.6589 12.1825H21.5454V11.1826H24.6589V12.1825ZM29.5605 20.637H23.4243V19.1977C23.4243 19.0811 23.378 18.9693 23.2956 18.8869C23.2131 18.8045 23.1014 18.7582 22.9848 18.7582H22.9546V17.1101C22.9546 16.5799 23.3629 16.0611 24.1043 15.6492C24.9272 15.192 26.0309 14.9402 27.2121 14.9402C27.9934 14.9402 28.7596 15.0538 29.4277 15.2688C29.5382 15.3028 29.6577 15.2919 29.7602 15.2384C29.8627 15.185 29.94 15.0933 29.9754 14.9833C30.0108 14.8732 30.0014 14.7537 29.9493 14.6505C29.8972 14.5473 29.8065 14.4688 29.6969 14.432C28.9429 14.1894 28.0836 14.0612 27.2121 14.0612C24.3318 14.0612 22.0757 15.4004 22.0757 17.1101V18.7581H20.1364V17.1101C20.1364 15.4004 17.8802 14.0612 15 14.0612C12.1197 14.0612 9.86356 15.4004 9.86356 17.1101V18.7581H7.01519C6.89863 18.7581 6.78685 18.8044 6.70443 18.8869C6.62201 18.9693 6.57571 19.0811 6.57571 19.1976V20.637H0.439482C0.322924 20.637 0.21114 20.6833 0.128721 20.7657C0.0463025 20.8481 0 20.9599 0 21.0764C0 21.193 0.0463025 21.3048 0.128721 21.3872C0.21114 21.4696 0.322924 21.5159 0.439482 21.5159H29.5605C29.6762 21.5146 29.7867 21.4677 29.868 21.3854C29.9493 21.3032 29.9949 21.1922 29.9949 21.0765C29.9949 20.9608 29.9493 20.8498 29.868 20.7675C29.7867 20.6852 29.6762 20.6384 29.5605 20.637ZM10.3332 20.637H7.45467V19.6372H10.3333V20.637H10.3332ZM19.2575 18.7582H19.2272C19.1107 18.7582 18.9989 18.8045 18.9165 18.8869C18.8341 18.9693 18.7877 19.0811 18.7877 19.1977V20.637H11.2122V19.1977C11.2122 19.0811 11.1659 18.9693 11.0835 18.8869C11.001 18.8045 10.8893 18.7582 10.7727 18.7582H10.7425V17.1101C10.7425 16.5799 11.1508 16.0611 11.8922 15.6492C12.7151 15.192 13.8188 14.9402 15 14.9402C16.1812 14.9402 17.2849 15.192 18.1078 15.6492C18.8492 16.0611 19.2575 16.5799 19.2575 17.1101V18.7582H19.2575ZM22.5453 20.637H19.6667V19.6372H22.5453V20.637Z" fill="#3B3D41"/>
<path d="M2.78853 14.0613C1.91735 14.0613 1.05855 14.1895 0.304806 14.4321C0.193861 14.4678 0.101647 14.5461 0.0484492 14.6498C-0.00474887 14.7535 -0.014574 14.8741 0.0211352 14.9851C0.0388071 15.04 0.0671309 15.0909 0.104489 15.1349C0.141846 15.1789 0.187506 15.2151 0.238859 15.2415C0.290211 15.2678 0.346251 15.2838 0.403777 15.2885C0.461302 15.2931 0.519186 15.2864 0.574121 15.2687C1.2419 15.0539 2.00765 14.9402 2.78858 14.9402C3.96909 14.9402 5.07219 15.192 5.89467 15.6492C6.63569 16.061 7.04371 16.5799 7.04371 17.1102V17.319C7.04371 17.4355 7.09001 17.5473 7.17243 17.6297C7.25485 17.7121 7.36663 17.7584 7.48319 17.7584C7.59975 17.7584 7.71154 17.7121 7.79395 17.6297C7.87637 17.5473 7.92268 17.4355 7.92268 17.319V17.1102C7.92268 15.4005 5.66749 14.0613 2.78853 14.0613Z" fill="#3B3D41"/>
</g>
</svg>
