<svg width="164" height="164" viewBox="0 0 164 164" fill="none" xmlns="http://www.w3.org/2000/svg">
<mask id="mask0_611_44007" style="mask-type:luminance" maskUnits="userSpaceOnUse" x="0" y="0" width="164" height="164">
<path d="M162 162V2H2V162H162Z" fill="white" stroke="white" stroke-width="4"/>
</mask>
<g mask="url(#mask0_611_44007)">
<path d="M24.0493 65.7428L81.5382 95.0737L138.428 66.0483M81.559 155.914V122.649M81.559 112.414V95.0737M73.0099 14.9703L81.2388 6.74146L89.4676 14.9703M81.559 7.38193V35.3352M14.2046 143.544H2.47489C2.27731 143.544 2.11719 143.384 2.11719 143.186V131.456M2.70482 142.359L22.8744 127.069M148.913 143.544H160.643C160.84 143.544 161.001 143.384 161.001 143.186V131.456M160.413 142.359L140.244 127.069" stroke="#3B3D41" stroke-width="6" stroke-miterlimit="10" stroke-linecap="round" stroke-linejoin="round"/>
<path d="M99.9493 44.6058L81.779 35.3352C81.7045 35.2973 81.6222 35.2776 81.5387 35.2776C81.4551 35.2776 81.3728 35.2973 81.2983 35.3352L23.1635 64.996C23.0767 65.0403 23.0037 65.1077 22.9528 65.1908C22.9019 65.274 22.875 65.3696 22.875 65.4671V127.069C22.875 127.268 22.9864 127.45 23.1635 127.54L32.9612 132.539M42.4236 137.367L81.2986 157.201C81.4495 157.278 81.6282 157.278 81.7793 157.201L139.914 127.54C140.001 127.496 140.074 127.428 140.125 127.345C140.176 127.262 140.203 127.167 140.203 127.069V65.4671C140.203 65.2685 140.092 65.0863 139.914 64.996L109.135 49.2922" stroke="#3B3D41" stroke-width="6" stroke-miterlimit="10" stroke-linecap="round" stroke-linejoin="round"/>
</g>
</svg>
