<svg width="174" height="174" viewBox="0 0 174 174" fill="none" xmlns="http://www.w3.org/2000/svg">
<path d="M172.249 62.7097C111.313 39.496 115.428 40.7812 112.92 40.7812C107.622 40.7812 103.312 45.0911 103.312 50.3886V95.1562H97.7241L92.7264 7.69066C92.4793 3.37805 88.9028 0 84.5834 0H70.3857C66.0663 0 62.4898 3.37805 62.2427 7.691L57.2446 95.1562H51.5054L46.5076 7.69066C46.2606 3.37805 42.684 0 38.3646 0H24.1666C19.8472 0 16.2707 3.37805 16.0236 7.691L11.0259 95.1562H8.15625C3.6591 95.1562 0 98.815 0 103.312V171.281C0 172.002 0.286439 172.694 0.796303 173.204C1.30617 173.714 1.99769 174 2.71875 174H171.281C172.002 174 172.694 173.714 173.204 173.204C173.714 172.694 174 172.002 174 171.281V65.2503C174 64.6993 173.833 64.1613 173.52 63.7076C173.207 63.2538 172.764 62.9058 172.249 62.7097ZM112.92 46.2188C114.032 46.2188 109.856 44.7591 168.562 67.1239V73.4062H108.75V50.3886C108.75 48.0893 110.62 46.2188 112.92 46.2188ZM168.562 84.2812H108.75V78.8438H168.562V84.2812ZM66.8857 21.75H88.0831L88.549 29.9062H66.4194L66.8857 21.75ZM70.3854 5.4375H84.583C85.2771 5.438 85.9447 5.70374 86.4492 6.18035C86.9538 6.65696 87.257 7.30838 87.297 8.00128L87.7721 16.3125H67.1963L67.671 8.00128C67.7112 7.30838 68.0146 6.657 68.5191 6.18042C69.0237 5.70384 69.6913 5.43807 70.3854 5.4375ZM66.1088 35.3438H88.8596L92.2778 95.1562H62.691L66.1088 35.3438ZM20.6669 21.75H41.8643L42.3303 29.9062H20.201L20.6669 21.75ZM24.1666 5.4375H38.3643C39.0583 5.438 39.7259 5.70374 40.2305 6.18035C40.735 6.65696 41.0383 7.30838 41.0783 8.00128L41.5534 16.3125H20.9779L21.4526 8.00128C21.4926 7.30838 21.7959 6.65696 22.3004 6.18035C22.805 5.70374 23.4726 5.438 24.1666 5.4375ZM19.89 35.3438H42.6409L46.059 95.1562H16.4722L19.89 35.3438ZM5.4375 103.312C5.4375 101.813 6.6572 100.594 8.15625 100.594H103.312V168.562H57.0938V160.406H65.25C81.7402 160.406 95.1562 146.99 95.1562 130.5V122.344C95.1562 121.623 94.8698 120.931 94.3599 120.421C93.8501 119.911 93.1586 119.625 92.4375 119.625H81.5625C69.5133 119.625 59.107 126.788 54.375 137.079C49.643 126.788 39.2367 119.625 27.1875 119.625H16.3125C15.5914 119.625 14.8999 119.911 14.3901 120.421C13.8802 120.931 13.5938 121.623 13.5938 122.344V130.5C13.5938 146.99 27.0098 160.406 43.5 160.406H51.6562V168.562H5.4375V103.312ZM78.1712 136.866C77.9361 136.597 77.6504 136.378 77.3304 136.219C77.0103 136.061 76.6623 135.967 76.3061 135.944C75.9498 135.92 75.5924 135.967 75.2542 136.081C74.916 136.195 74.6037 136.375 74.335 136.61L57.0938 151.696V149.531C57.0938 136.039 68.0704 125.062 81.5625 125.062H89.7188V130.5C89.7188 143.992 78.7421 154.969 65.25 154.969H61.6106L77.9153 140.702C78.4579 140.228 78.7897 139.557 78.8377 138.837C78.8857 138.118 78.646 137.409 78.1712 136.866ZM51.6562 151.696L34.4153 136.61C34.1466 136.375 33.8343 136.195 33.4961 136.081C33.1579 135.966 32.8005 135.92 32.4443 135.943C32.0881 135.967 31.74 136.061 31.42 136.219C31.0999 136.377 30.8142 136.597 30.5791 136.866C30.1044 137.408 29.8646 138.117 29.9126 138.837C29.9606 139.556 30.2924 140.227 30.835 140.702L47.1394 154.969H43.5C30.0079 154.969 19.0312 143.992 19.0312 130.5V125.062H27.1875C40.6796 125.062 51.6562 136.039 51.6562 149.531V151.696ZM127.781 168.562V141.375C127.781 139.876 129.001 138.656 130.5 138.656H146.812C148.312 138.656 149.531 139.876 149.531 141.375V168.562H127.781ZM154.969 168.562V141.375C154.969 136.878 151.31 133.219 146.812 133.219H130.5C126.003 133.219 122.344 136.878 122.344 141.375V168.562H108.75V89.7188H168.562V168.562H154.969Z" fill="#3B3D41"/>
<path d="M125.062 119.625H119.625C118.904 119.625 118.212 119.911 117.703 120.421C117.193 120.931 116.906 121.623 116.906 122.344C116.906 123.065 117.193 123.756 117.703 124.266C118.212 124.776 118.904 125.062 119.625 125.062H125.062C125.784 125.062 126.475 124.776 126.985 124.266C127.495 123.756 127.781 123.065 127.781 122.344C127.781 121.623 127.495 120.931 126.985 120.421C126.475 119.911 125.784 119.625 125.062 119.625ZM141.375 119.625H135.938C135.216 119.625 134.525 119.911 134.015 120.421C133.505 120.931 133.219 121.623 133.219 122.344C133.219 123.065 133.505 123.756 134.015 124.266C134.525 124.776 135.216 125.062 135.938 125.062H141.375C142.096 125.062 142.788 124.776 143.297 124.266C143.807 123.756 144.094 123.065 144.094 122.344C144.094 121.623 143.807 120.931 143.297 120.421C142.788 119.911 142.096 119.625 141.375 119.625ZM157.688 119.625H152.25C151.529 119.625 150.837 119.911 150.328 120.421C149.818 120.931 149.531 121.623 149.531 122.344C149.531 123.065 149.818 123.756 150.328 124.266C150.837 124.776 151.529 125.062 152.25 125.062H157.688C158.409 125.062 159.1 124.776 159.61 124.266C160.12 123.756 160.406 123.065 160.406 122.344C160.406 121.623 160.12 120.931 159.61 120.421C159.1 119.911 158.409 119.625 157.688 119.625ZM125.062 108.75H119.625C118.904 108.75 118.212 109.036 117.703 109.546C117.193 110.056 116.906 110.748 116.906 111.469C116.906 112.19 117.193 112.881 117.703 113.391C118.212 113.901 118.904 114.188 119.625 114.188H125.062C125.784 114.188 126.475 113.901 126.985 113.391C127.495 112.881 127.781 112.19 127.781 111.469C127.781 110.748 127.495 110.056 126.985 109.546C126.475 109.036 125.784 108.75 125.062 108.75ZM141.375 108.75H135.938C135.216 108.75 134.525 109.036 134.015 109.546C133.505 110.056 133.219 110.748 133.219 111.469C133.219 112.19 133.505 112.881 134.015 113.391C134.525 113.901 135.216 114.188 135.938 114.188H141.375C142.096 114.188 142.788 113.901 143.297 113.391C143.807 112.881 144.094 112.19 144.094 111.469C144.094 110.748 143.807 110.056 143.297 109.546C142.788 109.036 142.096 108.75 141.375 108.75ZM157.688 108.75H152.25C151.529 108.75 150.837 109.036 150.328 109.546C149.818 110.056 149.531 110.748 149.531 111.469C149.531 112.19 149.818 112.881 150.328 113.391C150.837 113.901 151.529 114.188 152.25 114.188H157.688C158.409 114.188 159.1 113.901 159.61 113.391C160.12 112.881 160.406 112.19 160.406 111.469C160.406 110.748 160.12 110.056 159.61 109.546C159.1 109.036 158.409 108.75 157.688 108.75ZM125.062 97.875H119.625C118.904 97.875 118.212 98.1614 117.703 98.6713C117.193 99.1812 116.906 99.8727 116.906 100.594C116.906 101.315 117.193 102.006 117.703 102.516C118.212 103.026 118.904 103.312 119.625 103.312H125.062C125.784 103.312 126.475 103.026 126.985 102.516C127.495 102.006 127.781 101.315 127.781 100.594C127.781 99.8727 127.495 99.1812 126.985 98.6713C126.475 98.1614 125.784 97.875 125.062 97.875ZM141.375 97.875H135.938C135.216 97.875 134.525 98.1614 134.015 98.6713C133.505 99.1812 133.219 99.8727 133.219 100.594C133.219 101.315 133.505 102.006 134.015 102.516C134.525 103.026 135.216 103.312 135.938 103.312H141.375C142.096 103.312 142.788 103.026 143.297 102.516C143.807 102.006 144.094 101.315 144.094 100.594C144.094 99.8727 143.807 99.1812 143.297 98.6713C142.788 98.1614 142.096 97.875 141.375 97.875ZM157.688 97.875H152.25C151.529 97.875 150.837 98.1614 150.328 98.6713C149.818 99.1812 149.531 99.8727 149.531 100.594C149.531 101.315 149.818 102.006 150.328 102.516C150.837 103.026 151.529 103.312 152.25 103.312H157.688C158.409 103.312 159.1 103.026 159.61 102.516C160.12 102.006 160.406 101.315 160.406 100.594C160.406 99.8727 160.12 99.1812 159.61 98.6713C159.1 98.1614 158.409 97.875 157.688 97.875Z" fill="#3B3D41"/>
</svg>
