<svg width="200" height="200" viewBox="0 0 200 200" fill="none" xmlns="http://www.w3.org/2000/svg">
<mask id="mask0_610_43971" style="mask-type:luminance" maskUnits="userSpaceOnUse" x="0" y="0" width="200" height="200">
<path d="M198 198V2H2V198H198Z" fill="white" stroke="white" stroke-width="4"/>
</mask>
<g mask="url(#mask0_610_43971)">
<path d="M119.103 9.00002C105.53 8.99049 92.2324 12.827 80.7504 20.0651C69.2685 27.3032 60.0725 37.6465 54.2278 49.8966C48.3832 62.1467 46.1293 75.8021 47.7272 89.2807C49.3251 102.759 54.7094 115.509 63.2562 126.053L56.5594 132.75C54.8681 131.243 52.6837 130.409 50.4188 130.403H50.3531C49.1097 130.408 47.8798 130.662 46.7361 131.15C45.5923 131.638 44.5579 132.35 43.6938 133.244L9 168.944L31.0375 190.975L66.7344 156.288C68.4606 154.62 69.4758 152.351 69.5679 149.952C69.6599 147.554 68.8216 145.213 67.2281 143.419L73.925 136.722C82.8641 143.953 93.4079 148.934 104.671 151.245C115.934 153.557 127.587 153.132 138.652 150.006C149.716 146.881 159.87 141.145 168.258 133.282C176.647 125.419 183.026 115.658 186.861 104.819C190.695 93.979 191.872 82.3776 190.293 70.9888C188.714 59.6 184.425 48.7563 177.787 39.3686C171.148 29.9809 162.354 22.3233 152.143 17.0389C141.931 11.7546 130.601 8.99773 119.103 9.00002ZM62.3781 151.813L31.0969 182.2L17.7781 168.881L48.1656 137.6C48.4554 137.304 48.8011 137.069 49.1825 136.908C49.5639 136.747 49.9735 136.664 50.3875 136.663C50.804 136.64 51.2203 136.711 51.6063 136.869C51.9922 137.027 52.338 137.27 52.6188 137.578L62.4 147.359C62.6932 147.652 62.9253 148 63.0827 148.384C63.24 148.767 63.3196 149.178 63.3167 149.592C63.3138 150.007 63.2285 150.417 63.0657 150.798C62.903 151.179 62.6661 151.524 62.3687 151.813H62.3781ZM62.8531 138.956L61.0219 137.125L67.4094 130.738C68.0094 131.363 68.6198 131.973 69.2406 132.569L62.8531 138.956ZM119.103 146.5C106.124 146.5 93.4358 142.651 82.6438 135.44C71.8519 128.229 63.4405 117.98 58.4735 105.989C53.5065 93.9972 52.2069 80.8022 54.7391 68.0722C57.2712 55.3422 63.5214 43.649 72.6992 34.4711C81.8771 25.2933 93.5703 19.0431 106.3 16.511C119.03 13.9788 132.225 15.2784 144.217 20.2454C156.208 25.2124 166.457 33.6237 173.668 44.4157C180.879 55.2077 184.728 67.8956 184.728 80.875C184.708 98.2738 177.788 114.954 165.485 127.257C153.182 139.56 136.502 146.48 119.103 146.5Z" fill="#3B3D41"/>
<path d="M119.102 21.5C107.358 21.5 95.8788 24.9823 86.1146 31.5065C76.3504 38.0307 68.7402 47.3038 64.2462 58.1532C59.7523 69.0025 58.5765 80.9409 60.8675 92.4585C63.1585 103.976 68.8134 114.556 77.1171 122.859C85.4209 131.163 96.0005 136.818 107.518 139.109C119.036 141.4 130.974 140.224 141.823 135.73C152.673 131.236 161.946 123.626 168.47 113.862C174.994 104.098 178.477 92.6183 178.477 80.875C178.459 65.1331 172.198 50.0409 161.067 38.9097C149.936 27.7785 134.843 21.5174 119.102 21.5ZM119.102 134C108.594 134 98.3233 130.884 89.5869 125.047C80.8506 119.209 74.0414 110.912 70.0205 101.205C65.9996 91.4977 64.9475 80.8161 66.9974 70.5108C69.0472 60.2056 74.1069 50.7396 81.5365 43.31C88.9662 35.8803 98.4322 30.8206 108.737 28.7708C119.043 26.7209 129.724 27.773 139.432 31.7939C149.139 35.8148 157.436 42.624 163.273 51.3603C169.111 60.0967 172.227 70.3679 172.227 80.875C172.211 94.9598 166.609 108.463 156.649 118.423C146.69 128.382 133.186 133.984 119.102 134Z" fill="#3B3D41"/>
<path d="M119.102 52.7501C112.745 52.7327 106.447 53.9763 100.574 56.4089C94.7 58.8415 89.3671 62.4148 84.8836 66.9219L70.9336 80.8751L84.8836 94.8282C93.9595 103.903 106.268 109 119.102 109C131.937 109 144.245 103.903 153.321 94.8282L167.271 80.8751L153.321 66.9219C148.838 62.4148 143.505 58.8415 137.631 56.4089C131.757 53.9763 125.46 52.7327 119.102 52.7501ZM140.977 80.8751C140.977 85.2015 139.694 89.4308 137.291 93.0282C134.887 96.6255 131.471 99.4292 127.474 101.085C123.476 102.741 119.078 103.174 114.835 102.33C110.591 101.486 106.694 99.4023 103.634 96.343C100.575 93.2837 98.4917 89.386 97.6477 85.1427C96.8036 80.8993 97.2368 76.501 98.8925 72.5039C100.548 68.5067 103.352 65.0903 106.949 62.6867C110.547 60.283 114.776 59.0001 119.102 59.0001C124.902 59.0067 130.462 61.3135 134.563 65.4144C138.664 69.5153 140.971 75.0755 140.977 80.8751ZM79.7711 80.8751L89.3023 71.3407C91.0131 69.6472 92.8645 68.1021 94.8367 66.7219C92.31 71.0106 90.9774 75.8974 90.9774 80.8751C90.9774 85.8527 92.31 90.7396 94.8367 95.0282C92.8645 93.648 91.0131 92.1029 89.3023 90.4094L79.7711 80.8751ZM148.902 90.4094C147.192 92.1029 145.34 93.648 143.368 95.0282C145.895 90.7396 147.227 85.8527 147.227 80.8751C147.227 75.8974 145.895 71.0106 143.368 66.7219C145.34 68.1021 147.192 69.6472 148.902 71.3407L158.434 80.8751L148.902 90.4094Z" fill="#3B3D41"/>
<path d="M119.102 96.5C122.192 96.5 125.213 95.5836 127.782 93.8667C130.352 92.1498 132.355 89.7095 133.537 86.8544C134.72 83.9993 135.029 80.8577 134.426 77.8267C133.823 74.7958 132.335 72.0117 130.15 69.8265C127.965 67.6413 125.181 66.1531 122.15 65.5502C119.119 64.9473 115.977 65.2568 113.122 66.4394C110.267 67.622 107.827 69.6247 106.11 72.1942C104.393 74.7637 103.477 77.7847 103.477 80.875C103.482 85.0175 105.129 88.9889 108.059 91.9181C110.988 94.8473 114.959 96.495 119.102 96.5ZM119.102 71.5C120.956 71.5 122.768 72.0498 124.31 73.08C125.852 74.1101 127.053 75.5743 127.763 77.2874C128.472 79.0004 128.658 80.8854 128.296 82.704C127.935 84.5226 127.042 86.193 125.731 87.5041C124.42 88.8153 122.749 89.7081 120.931 90.0699C119.112 90.4316 117.227 90.246 115.514 89.5364C113.801 88.8268 112.337 87.6252 111.307 86.0835C110.276 84.5418 109.727 82.7292 109.727 80.875C109.727 78.3886 110.714 76.004 112.472 74.2459C114.231 72.4877 116.615 71.5 119.102 71.5Z" fill="#3B3D41"/>
</g>
</svg>
