<svg width="30" height="30" viewBox="0 0 30 30" fill="none" xmlns="http://www.w3.org/2000/svg">
<mask id="mask0_865_17174" style="mask-type:luminance" maskUnits="userSpaceOnUse" x="0" y="0" width="30" height="30">
<path d="M0 0H30V30H0V0Z" fill="white"/>
</mask>
<g mask="url(#mask0_865_17174)">
<path d="M27.1484 13.0876H25.7422C25.6179 13.0876 25.4986 13.137 25.4107 13.2249C25.3228 13.3128 25.2734 13.4321 25.2734 13.5564V15.9001H23.8672V8.8689C23.8672 8.74458 23.8178 8.62535 23.7299 8.53744C23.642 8.44953 23.5228 8.40015 23.3984 8.40015H22.4609V6.0564C22.4609 5.93208 22.4116 5.81285 22.3236 5.72494C22.2357 5.63703 22.1165 5.58765 21.9922 5.58765H21.5234V3.2439C21.5234 3.11958 21.4741 3.00035 21.3861 2.91244C21.2982 2.82453 21.179 2.77515 21.0547 2.77515H20.1172V1.3689C20.1172 1.24458 20.0678 1.12535 19.9799 1.03744C19.892 0.949532 19.7728 0.900146 19.6484 0.900146C19.5241 0.900146 19.4049 0.949532 19.317 1.03744C19.2291 1.12535 19.1797 1.24458 19.1797 1.3689V2.77515H18.2422C18.1179 2.77515 17.9986 2.82453 17.9107 2.91244C17.8228 3.00035 17.7734 3.11958 17.7734 3.2439V5.58765H17.3047C17.1804 5.58765 17.0611 5.63703 16.9732 5.72494C16.8853 5.81285 16.8359 5.93208 16.8359 6.0564V8.40015H15.8984C15.7741 8.40015 15.6549 8.44953 15.567 8.53744C15.4791 8.62535 15.4297 8.74458 15.4297 8.8689V10.2751H14.4922V8.8689C14.4922 8.74458 14.4428 8.62535 14.3549 8.53744C14.267 8.44953 14.1478 8.40015 14.0234 8.40015H13.5547V6.9939C13.5547 6.86958 13.5053 6.75035 13.4174 6.66244C13.3295 6.57453 13.2103 6.52515 13.0859 6.52515C12.9616 6.52515 12.8424 6.57453 12.7545 6.66244C12.6666 6.75035 12.6172 6.86958 12.6172 6.9939V8.40015H12.1484C12.0241 8.40015 11.9049 8.44953 11.817 8.53744C11.7291 8.62535 11.6797 8.74458 11.6797 8.8689V20.1189C11.6797 20.2432 11.7291 20.3624 11.817 20.4504C11.9049 20.5383 12.0241 20.5876 12.1484 20.5876C12.2728 20.5876 12.392 20.5383 12.4799 20.4504C12.5678 20.3624 12.6172 20.2432 12.6172 20.1189V11.2126H15.4297V20.1189C15.4297 20.2432 15.4791 20.3624 15.567 20.4504C15.6549 20.5383 15.7741 20.5876 15.8984 20.5876C16.0228 20.5876 16.142 20.5383 16.2299 20.4504C16.3178 20.3624 16.3672 20.2432 16.3672 20.1189V18.7126H17.7734V20.1189C17.7734 20.2432 17.8228 20.3624 17.9107 20.4504C17.9986 20.5383 18.1179 20.5876 18.2422 20.5876C18.3665 20.5876 18.4857 20.5383 18.5736 20.4504C18.6616 20.3624 18.7109 20.2432 18.7109 20.1189V18.7126H20.5859V20.1189C20.5859 20.2432 20.6353 20.3624 20.7232 20.4504C20.8111 20.5383 20.9304 20.5876 21.0547 20.5876C21.179 20.5876 21.2982 20.5383 21.3861 20.4504C21.4741 20.3624 21.5234 20.2432 21.5234 20.1189V16.8376H22.9297V20.1189C22.9297 20.2432 22.9791 20.3624 23.067 20.4504C23.1549 20.5383 23.2741 20.5876 23.3984 20.5876C23.5228 20.5876 23.642 20.5383 23.7299 20.4504C23.8178 20.3624 23.8672 20.2432 23.8672 20.1189V16.8376H25.2734V25.7439C25.2734 25.8682 25.3228 25.9874 25.4107 26.0754C25.4986 26.1633 25.6179 26.2126 25.7422 26.2126H27.1484C27.3971 26.2126 27.6355 26.3114 27.8114 26.4872C27.9872 26.663 28.0859 26.9015 28.0859 27.1501C28.0859 27.3988 27.9872 27.6372 27.8114 27.8131C27.6355 27.9889 27.3971 28.0876 27.1484 28.0876H6.52344V25.5512C6.52344 25.4269 6.47405 25.3077 6.38614 25.2198C6.29824 25.1319 6.17901 25.0825 6.05469 25.0825C5.93037 25.0825 5.81114 25.1319 5.72323 25.2198C5.63532 25.3077 5.58594 25.4269 5.58594 25.5512V28.5564C5.58594 28.6807 5.63532 28.7999 5.72323 28.8879C5.81114 28.9758 5.93037 29.0251 6.05469 29.0251H27.1484C27.6457 29.0251 28.1226 28.8276 28.4743 28.476C28.8259 28.1243 29.0234 27.6474 29.0234 27.1501V14.9626C29.0234 14.4654 28.8259 13.9885 28.4743 13.6368C28.1226 13.2852 27.6457 13.0876 27.1484 13.0876ZM12.6172 10.2751V9.33765H13.5547V10.2751H12.6172ZM18.7109 14.9626H20.5859V15.9001H18.7109V14.9626ZM18.7109 14.0251V13.0876H20.5859V14.0251H18.7109ZM16.3672 13.0876H17.7734V14.0251H16.3672V13.0876ZM20.5859 9.33765V10.2751H18.7109V9.33765H20.5859ZM18.7109 11.2126H20.5859V12.1501H18.7109V11.2126ZM21.5234 11.2126H22.9297V14.0251H21.5234V11.2126ZM22.9297 10.2751H21.5234V9.33765H22.9297V10.2751ZM20.5859 8.40015V6.52515H21.5234V8.40015H20.5859ZM18.7109 3.71265H20.5859V5.58765H18.7109V3.71265ZM17.7734 6.52515H19.6484V8.40015H17.7734V6.52515ZM16.3672 9.33765H17.7734V12.1501H16.3672V9.33765ZM16.3672 17.7751V14.9626H17.7734V17.7751H16.3672ZM20.5859 17.7751H18.7109V16.8376H20.5859V17.7751ZM21.5234 14.9626H22.9297V15.9001H21.5234V14.9626ZM27.1484 25.2751H26.2109V14.0251H27.1484C27.3971 14.0251 27.6355 14.1239 27.8114 14.2997C27.9872 14.4755 28.0859 14.714 28.0859 14.9626V25.5269C27.8012 25.3615 27.4777 25.2746 27.1484 25.2751Z" fill="#3B3D41"/>
<path d="M9.94531 16.8376H10.2734C10.3978 16.8376 10.517 16.7883 10.6049 16.7004C10.6928 16.6124 10.7422 16.4932 10.7422 16.3689C10.7422 16.2446 10.6928 16.1253 10.6049 16.0374C10.517 15.9495 10.3978 15.9001 10.2734 15.9001H9.94531C9.82099 15.9001 9.70176 15.9495 9.61386 16.0374C9.52595 16.1253 9.47656 16.2446 9.47656 16.3689C9.47656 16.4932 9.52595 16.6124 9.61386 16.7004C9.70176 16.7883 9.82099 16.8376 9.94531 16.8376Z" fill="#3B3D41"/>
<path d="M14.0234 13.0876C14.2823 13.0876 14.4922 12.8778 14.4922 12.6189C14.4922 12.36 14.2823 12.1501 14.0234 12.1501C13.7646 12.1501 13.5547 12.36 13.5547 12.6189C13.5547 12.8778 13.7646 13.0876 14.0234 13.0876Z" fill="#3B3D41"/>
<path d="M14.0234 14.9626C14.2823 14.9626 14.4922 14.7528 14.4922 14.4939C14.4922 14.235 14.2823 14.0251 14.0234 14.0251C13.7646 14.0251 13.5547 14.235 13.5547 14.4939C13.5547 14.7528 13.7646 14.9626 14.0234 14.9626Z" fill="#3B3D41"/>
<path d="M14.0234 16.8376C14.2823 16.8376 14.4922 16.6278 14.4922 16.3689C14.4922 16.11 14.2823 15.9001 14.0234 15.9001C13.7646 15.9001 13.5547 16.11 13.5547 16.3689C13.5547 16.6278 13.7646 16.8376 14.0234 16.8376Z" fill="#3B3D41"/>
<path d="M14.0234 18.7126C14.2823 18.7126 14.4922 18.5028 14.4922 18.2439C14.4922 17.985 14.2823 17.7751 14.0234 17.7751C13.7646 17.7751 13.5547 17.985 13.5547 18.2439C13.5547 18.5028 13.7646 18.7126 14.0234 18.7126Z" fill="#3B3D41"/>
<path d="M6.17293 23.4892C6.19729 23.5579 6.23724 23.62 6.28964 23.6706L9.33371 26.553C9.42081 26.6355 9.53623 26.6815 9.65621 26.6814H23.399C23.5233 26.6814 23.6426 26.632 23.7305 26.5441C23.8184 26.4562 23.8678 26.337 23.8678 26.2127V22.4627C23.8678 22.3384 23.8184 22.2191 23.7305 22.1312C23.6426 22.0433 23.5233 21.9939 23.399 21.9939C23.2747 21.9939 23.1555 22.0433 23.0676 22.1312C22.9797 22.2191 22.9303 22.3384 22.9303 22.4627V23.4424C22.3556 23.5406 21.8256 23.8147 21.4133 24.227C21.0011 24.6392 20.7269 25.1693 20.6287 25.7439H17.3053V22.4627C17.3053 22.3384 17.2559 22.2191 17.168 22.1312C17.0801 22.0433 16.9608 21.9939 16.8365 21.9939H14.024C13.8997 21.9939 13.7805 22.0433 13.6926 22.1312C13.6047 22.2191 13.5553 22.3384 13.5553 22.4627V25.7439H10.1803L10.5993 22.1013C10.609 22.0105 10.5917 21.9189 10.5496 21.8378L6.40589 10.435L5.76464 8.67346L5.44589 7.79081C5.23337 7.2065 4.79743 6.73055 4.23399 6.46767C3.67055 6.20478 3.02575 6.17648 2.44144 6.38901C1.85714 6.60153 1.38119 7.03747 1.1183 7.60091C0.855412 8.16436 0.827119 8.80916 1.03964 9.39346L2.00293 12.0377L3.20011 15.3264C3.2449 15.4401 3.33228 15.5317 3.44364 15.5819C3.555 15.6321 3.68155 15.6368 3.79635 15.5951C3.91115 15.5534 4.00512 15.4685 4.05827 15.3585C4.11141 15.2485 4.11953 15.1221 4.08089 15.0063L3.04402 12.1577L3.92527 11.8371L7.77277 22.4088L6.88636 22.7313L4.72214 16.7683C4.70112 16.7104 4.66891 16.6573 4.62734 16.6119C4.58578 16.5665 4.53568 16.5297 4.4799 16.5036C4.42412 16.4776 4.36375 16.4628 4.30225 16.46C4.24074 16.4573 4.1793 16.4667 4.12144 16.4878C4.06358 16.5088 4.01042 16.541 3.96501 16.5826C3.91959 16.6241 3.88281 16.6742 3.85676 16.73C3.83071 16.7858 3.8159 16.8462 3.81318 16.9077C3.81045 16.9692 3.81987 17.0306 3.84089 17.0885L6.16496 23.4939L6.17293 23.4892ZM22.9303 24.3967V25.7439H21.5835C21.6679 25.4199 21.8371 25.1242 22.0739 24.8874C22.3106 24.6506 22.6062 24.4812 22.9303 24.3967ZM14.4928 22.9314H16.3678V23.8689H15.899C15.7747 23.8689 15.6555 23.9183 15.5676 24.0062C15.4797 24.0941 15.4303 24.2134 15.4303 24.3377C15.4303 24.462 15.4797 24.5812 15.5676 24.6691C15.6555 24.757 15.7747 24.8064 15.899 24.8064H16.3678V25.7439H14.4928V22.9314ZM2.7623 7.2719C3.11276 7.14436 3.49953 7.16126 3.83753 7.31887C4.17553 7.47649 4.43708 7.76192 4.56464 8.11237L4.72496 8.55299L2.08214 9.51487L1.92183 9.07424C1.79429 8.72378 1.81119 8.33701 1.9688 7.99901C2.12642 7.66101 2.41185 7.39946 2.7623 7.2719ZM2.72339 11.2769L2.40277 10.3961L5.04558 9.43424L5.36621 10.315L2.72339 11.2769ZM4.80605 11.5164L5.68683 11.1958L9.53058 21.7694L8.65496 22.0882L4.80605 11.5164ZM9.58308 22.7472L9.29761 25.2283L7.48449 23.5117L9.58308 22.7472Z" fill="#3B3D41"/>
</g>
</svg>
