<svg width="30" height="18" viewBox="0 0 30 18" fill="none" xmlns="http://www.w3.org/2000/svg">
<path fill-rule="evenodd" clip-rule="evenodd" d="M10.8406 17.3058H0.341427C0.0776279 17.3058 -0.0806515 17.0244 0.0424547 16.7958L4.12255 9.25111C4.28083 8.96973 4.93153 9.07525 5.51189 9.07525C5.95155 8.30144 10.0141 1.21404 10.1372 1.10852L11.2451 0.10608C11.4034 -0.0521993 11.6848 0.000560522 11.7903 0.194013L14.569 5.78655C15.079 5.78655 15.8352 5.69862 16.0111 5.92725L17.5587 7.87936C17.6466 8.00247 17.6642 8.17833 17.5587 8.30144L11.122 17.1651C11.0693 17.253 10.9637 17.3058 10.8406 17.3058ZM0.939371 16.6023H10.6648L16.8377 8.0904L15.5714 6.49002H14.358C14.2173 6.49002 14.0942 6.41967 14.0414 6.29656L11.3682 0.932651L10.6472 1.58335L6.00431 9.60285C5.84603 9.88423 5.2305 9.77871 4.65014 9.77871L0.939371 16.6023Z" fill="#3B3D41"/>
<path fill-rule="evenodd" clip-rule="evenodd" d="M29.6403 17.3057H10.8403C10.5589 17.3057 10.4006 16.9891 10.5589 16.7605L19.6512 4.22125C19.8094 4.01022 20.126 4.04539 20.2491 4.25643L23.8368 10.9393L26.3165 10.9218C26.4396 10.9218 26.5627 10.9745 26.6155 11.08L29.9569 16.7781C30.08 17.0243 29.9217 17.3057 29.6403 17.3057ZM11.5437 16.6022H29.0248L26.123 11.6252L23.6257 11.6428C23.5026 11.6428 23.3795 11.5725 23.3092 11.4669L19.8974 5.083L11.5437 16.6022Z" fill="#3B3D41"/>
<path fill-rule="evenodd" clip-rule="evenodd" d="M17.9971 12.7508C17.8036 12.7508 17.663 12.6101 17.6454 12.4166L17.5047 10.6052L15.3767 11.2031C14.9194 11.3263 14.7436 10.6404 15.1832 10.5173L17.7509 9.81381C17.9619 9.76105 18.173 9.90174 18.1905 10.1304L18.2785 11.3087L19.1754 9.90174L19.5799 4.39713C19.6151 3.93988 20.3185 3.99264 20.2834 4.44989C20.2482 5.08301 19.9316 10.0248 19.8085 10.2007L18.2961 12.5925C18.2257 12.698 18.1202 12.7508 17.9971 12.7508ZM26.7025 14.5798C26.6145 14.5798 26.5266 14.5446 26.4563 14.4743L23.3786 11.5373C23.0445 11.2207 23.5369 10.7107 23.871 11.0273L26.2276 13.2784L25.9638 11.3087C25.9111 10.8514 26.6145 10.7459 26.6673 11.2207L27.0542 14.1753C27.0894 14.4039 26.8959 14.5798 26.7025 14.5798ZM9.39725 9.19828C9.22138 9.19828 9.0631 9.05758 9.0631 8.88172L8.92241 6.91202L7.18134 7.38685C6.88236 7.47479 6.61857 7.14064 6.77684 6.87684L10.1359 1.10844L11.2438 0.0884136C11.4725 -0.122626 11.8418 0.070827 11.8242 0.387386C11.7714 1.05568 11.4373 6.31407 11.3142 6.48994L9.69622 9.04C9.64346 9.14552 9.52035 9.19828 9.39725 9.19828ZM9.23897 6.10303C9.41484 6.10303 9.57311 6.24373 9.5907 6.41959L9.67863 7.75617L10.6811 6.19097L11.0504 1.21396L10.6459 1.58328L7.81445 6.47235L9.23897 6.10303ZM7.40996 17.3057H2.32743C2.04605 17.3057 1.87018 17.0067 2.02846 16.7605L5.59854 11.4669C5.75682 11.2383 6.07338 11.2559 6.19649 11.4845L7.32203 13.5598C7.79687 13.3311 8.18377 13.0146 8.44757 13.208C8.55309 13.296 8.60585 13.4366 8.57068 13.5598C8.57068 13.5949 8.11343 15.7757 7.74411 17.0595C7.70893 17.2002 7.56824 17.3057 7.40996 17.3057ZM2.97814 16.6022H7.14616C7.33962 15.8284 7.58583 14.826 7.72652 14.1401C6.84719 14.5974 7.0934 14.6325 5.86234 12.3463L2.97814 16.6022Z" fill="#3B3D41"/>
</svg>
