<svg width="200" height="200" viewBox="0 0 200 200" fill="none" xmlns="http://www.w3.org/2000/svg">
<mask id="mask0_610_43924" style="mask-type:luminance" maskUnits="userSpaceOnUse" x="0" y="0" width="200" height="200">
<path d="M197.5 197.5V2.5H2.5V197.5H197.5Z" fill="white" stroke="white" stroke-width="5"/>
</mask>
<g mask="url(#mask0_610_43924)">
<path d="M54.4234 132.523C54.4234 141.989 46.7496 149.663 37.284 149.663C27.818 149.663 20.1445 141.989 20.1445 132.523C20.1445 123.057 27.818 115.383 37.284 115.383C46.7496 115.383 54.4234 123.057 54.4234 132.523Z" stroke="#3B3D41" stroke-width="5" stroke-miterlimit="10" stroke-linecap="round" stroke-linejoin="round"/>
<path d="M169.021 132.523C169.021 141.989 161.348 149.663 151.882 149.663C142.416 149.663 134.742 141.989 134.742 132.523C134.742 123.057 142.416 115.383 151.882 115.383C161.348 115.383 169.021 123.057 169.021 132.523Z" stroke="#3B3D41" stroke-width="5" stroke-miterlimit="10" stroke-linecap="round" stroke-linejoin="round"/>
<path d="M112.428 132.521H134.746C134.746 123.057 142.418 115.385 151.887 115.385C161.352 115.385 169.023 123.057 169.023 132.521H191.035L196.094 123.674V116.271C196.094 114.459 195.879 112.658 195.461 110.908C194.004 104.596 189.617 98.8691 184.48 95.1035C181.227 92.7105 177.526 90.9944 173.598 90.0566L149.734 84.334L128.598 62.791C124.727 58.8478 120.109 55.7155 115.013 53.5773C109.918 51.439 104.448 50.3377 98.9219 50.3375H22.8707L27.5184 56.1129C29.159 58.1508 28.8937 61.1211 26.9184 62.8363L6.85508 80.2598V102.599L3.90625 108.158V123.674L9.80821 132.521H20.1441C20.1441 123.057 27.8199 115.385 37.2852 115.385C46.75 115.385 54.4258 123.057 54.4258 132.521H78.0566" stroke="#3B3D41" stroke-width="5" stroke-miterlimit="10" stroke-linecap="round" stroke-linejoin="round"/>
<path d="M195.422 110.756H179.328C178.588 110.756 177.855 110.611 177.171 110.327C176.487 110.044 175.866 109.628 175.344 109.104C174.818 108.582 174.402 107.961 174.118 107.277C173.835 106.593 173.69 105.859 173.691 105.119C173.691 103.201 174.664 101.412 176.277 100.377L184.48 95.1036C189.631 98.881 193.884 104.474 195.422 110.756Z" stroke="#3B3D41" stroke-width="5" stroke-miterlimit="10" stroke-linecap="round" stroke-linejoin="round"/>
<path d="M127.602 88.9626C111.732 87.7067 48.6175 82.5598 33.3082 81.311C32.0222 81.2063 31.4765 79.6227 32.423 78.7458L46.3253 65.8661C47.1824 65.0719 48.3077 64.6308 49.4761 64.6309H95.9347C104.639 64.6309 112.921 68.3809 118.663 74.922L128.832 86.5063C129.71 87.5063 128.929 89.068 127.602 88.9626Z" stroke="#3B3D41" stroke-width="5" stroke-miterlimit="10" stroke-linecap="round" stroke-linejoin="round"/>
<path d="M84.5039 64.631V85.481" stroke="#3B3D41" stroke-width="5" stroke-miterlimit="10" stroke-linecap="round" stroke-linejoin="round"/>
<path d="M84.5039 103.711H93.2402" stroke="#3B3D41" stroke-width="5" stroke-miterlimit="10" stroke-linecap="round" stroke-linejoin="round"/>
<path d="M32.0117 98.2814H40.7484" stroke="#3B3D41" stroke-width="5" stroke-miterlimit="10" stroke-linecap="round" stroke-linejoin="round"/>
</g>
</svg>
