<svg width="30" height="30" viewBox="0 0 30 30" fill="none" xmlns="http://www.w3.org/2000/svg">
<path d="M29.6981 10.812C19.192 6.80965 19.9013 7.03125 19.4689 7.03125C18.5556 7.03125 17.8125 7.77434 17.8125 8.6877V16.4062H16.849L15.9873 1.32598C15.9447 0.582422 15.3281 0 14.5833 0H12.1355C11.3907 0 10.7741 0.582422 10.7315 1.32604L9.86977 16.4062H8.88023L8.01855 1.32598C7.97596 0.582422 7.35932 0 6.61459 0H4.16666C3.42193 0 2.80529 0.582422 2.7627 1.32604L1.90102 16.4062H1.40625C0.630879 16.4062 0 17.0371 0 17.8125V29.5312C0 29.6556 0.049386 29.7748 0.137294 29.8627C0.225201 29.9506 0.34443 30 0.46875 30H29.5312C29.6556 30 29.7748 29.9506 29.8627 29.8627C29.9506 29.7748 30 29.6556 30 29.5312V11.2501C30 11.1551 29.9711 11.0623 29.9172 10.9841C29.8633 10.9058 29.7869 10.8458 29.6981 10.812ZM19.4689 7.96875C19.6607 7.96875 18.9407 7.71709 29.0625 11.5731V12.6562H18.75V8.6877C18.75 8.29125 19.0725 7.96875 19.4689 7.96875ZM29.0625 14.5312H18.75V13.5938H29.0625V14.5312ZM11.532 3.75H15.1867L15.2671 5.15625H11.4516L11.532 3.75ZM12.1354 0.9375H14.5833C14.7029 0.937585 14.8181 0.983404 14.905 1.06558C14.992 1.14775 15.0443 1.26007 15.0512 1.37953L15.1331 2.8125H11.5856L11.6674 1.37953C11.6743 1.26007 11.7267 1.14776 11.8136 1.06559C11.9006 0.98342 12.0157 0.937599 12.1354 0.9375ZM11.3981 6.09375H15.3206L15.91 16.4062H10.8088L11.3981 6.09375ZM3.56326 3.75H7.21799L7.29832 5.15625H3.48293L3.56326 3.75ZM4.16666 0.9375H6.61453C6.7342 0.937585 6.8493 0.983404 6.93629 1.06558C7.02328 1.14775 7.07557 1.26007 7.08246 1.37953L7.16438 2.8125H3.61687L3.69873 1.37953C3.70562 1.26007 3.75791 1.14775 3.8449 1.06558C3.93189 0.983404 4.047 0.937585 4.16666 0.9375ZM3.42932 6.09375H7.35187L7.94121 16.4062H2.84004L3.42932 6.09375ZM0.9375 17.8125C0.9375 17.554 1.14779 17.3438 1.40625 17.3438H17.8125V29.0625H9.84375V27.6562H11.25C14.0931 27.6562 16.4062 25.3431 16.4062 22.5V21.0938C16.4062 20.9694 16.3569 20.8502 16.269 20.7623C16.181 20.6744 16.0618 20.625 15.9375 20.625H14.0625C11.9851 20.625 10.1909 21.86 9.375 23.6344C8.55914 21.86 6.76494 20.625 4.6875 20.625H2.8125C2.68818 20.625 2.56895 20.6744 2.48104 20.7623C2.39314 20.8502 2.34375 20.9694 2.34375 21.0938V22.5C2.34375 25.3431 4.65686 27.6562 7.5 27.6562H8.90625V29.0625H0.9375V17.8125ZM13.4778 23.5976C13.4373 23.5513 13.388 23.5134 13.3328 23.4861C13.2776 23.4588 13.2176 23.4426 13.1562 23.4386C13.0948 23.4345 13.0332 23.4425 12.9749 23.4622C12.9166 23.482 12.8627 23.513 12.8164 23.5535L9.84375 26.1545V25.7812C9.84375 23.455 11.7363 21.5625 14.0625 21.5625H15.4688V22.5C15.4688 24.8262 13.5762 26.7188 11.25 26.7188H10.6225L13.4337 24.259C13.5272 24.1772 13.5844 24.0615 13.5927 23.9374C13.601 23.8134 13.5596 23.6911 13.4778 23.5976ZM8.90625 26.1545L5.93367 23.5535C5.88735 23.5129 5.8335 23.4819 5.77519 23.4622C5.71688 23.4424 5.65526 23.4344 5.59384 23.4385C5.53242 23.4426 5.47241 23.4587 5.41724 23.486C5.36206 23.5133 5.3128 23.5512 5.27227 23.5975C5.19041 23.6911 5.14908 23.8133 5.15735 23.9374C5.16562 24.0614 5.22283 24.1771 5.31639 24.259L8.12748 26.7188H7.5C5.17377 26.7188 3.28125 24.8262 3.28125 22.5V21.5625H4.6875C7.01373 21.5625 8.90625 23.455 8.90625 25.7812V26.1545ZM22.0312 29.0625V24.375C22.0312 24.1165 22.2415 23.9062 22.5 23.9062H25.3125C25.571 23.9062 25.7812 24.1165 25.7812 24.375V29.0625H22.0312ZM26.7188 29.0625V24.375C26.7188 23.5996 26.0879 22.9688 25.3125 22.9688H22.5C21.7246 22.9688 21.0938 23.5996 21.0938 24.375V29.0625H18.75V15.4688H29.0625V29.0625H26.7188Z" fill="#3B3D41"/>
<path d="M21.5625 20.625H20.625C20.5007 20.625 20.3815 20.6744 20.2935 20.7623C20.2056 20.8502 20.1562 20.9694 20.1562 21.0938C20.1562 21.2181 20.2056 21.3373 20.2935 21.4252C20.3815 21.5131 20.5007 21.5625 20.625 21.5625H21.5625C21.6868 21.5625 21.806 21.5131 21.894 21.4252C21.9819 21.3373 22.0312 21.2181 22.0312 21.0938C22.0312 20.9694 21.9819 20.8502 21.894 20.7623C21.806 20.6744 21.6868 20.625 21.5625 20.625ZM24.375 20.625H23.4375C23.3132 20.625 23.194 20.6744 23.106 20.7623C23.0181 20.8502 22.9688 20.9694 22.9688 21.0938C22.9688 21.2181 23.0181 21.3373 23.106 21.4252C23.194 21.5131 23.3132 21.5625 23.4375 21.5625H24.375C24.4993 21.5625 24.6185 21.5131 24.7065 21.4252C24.7944 21.3373 24.8438 21.2181 24.8438 21.0938C24.8438 20.9694 24.7944 20.8502 24.7065 20.7623C24.6185 20.6744 24.4993 20.625 24.375 20.625ZM27.1875 20.625H26.25C26.1257 20.625 26.0065 20.6744 25.9185 20.7623C25.8306 20.8502 25.7812 20.9694 25.7812 21.0938C25.7812 21.2181 25.8306 21.3373 25.9185 21.4252C26.0065 21.5131 26.1257 21.5625 26.25 21.5625H27.1875C27.3118 21.5625 27.431 21.5131 27.519 21.4252C27.6069 21.3373 27.6562 21.2181 27.6562 21.0938C27.6562 20.9694 27.6069 20.8502 27.519 20.7623C27.431 20.6744 27.3118 20.625 27.1875 20.625ZM21.5625 18.75H20.625C20.5007 18.75 20.3815 18.7994 20.2935 18.8873C20.2056 18.9752 20.1562 19.0944 20.1562 19.2188C20.1562 19.3431 20.2056 19.4623 20.2935 19.5502C20.3815 19.6381 20.5007 19.6875 20.625 19.6875H21.5625C21.6868 19.6875 21.806 19.6381 21.894 19.5502C21.9819 19.4623 22.0312 19.3431 22.0312 19.2188C22.0312 19.0944 21.9819 18.9752 21.894 18.8873C21.806 18.7994 21.6868 18.75 21.5625 18.75ZM24.375 18.75H23.4375C23.3132 18.75 23.194 18.7994 23.106 18.8873C23.0181 18.9752 22.9688 19.0944 22.9688 19.2188C22.9688 19.3431 23.0181 19.4623 23.106 19.5502C23.194 19.6381 23.3132 19.6875 23.4375 19.6875H24.375C24.4993 19.6875 24.6185 19.6381 24.7065 19.5502C24.7944 19.4623 24.8438 19.3431 24.8438 19.2188C24.8438 19.0944 24.7944 18.9752 24.7065 18.8873C24.6185 18.7994 24.4993 18.75 24.375 18.75ZM27.1875 18.75H26.25C26.1257 18.75 26.0065 18.7994 25.9185 18.8873C25.8306 18.9752 25.7812 19.0944 25.7812 19.2188C25.7812 19.3431 25.8306 19.4623 25.9185 19.5502C26.0065 19.6381 26.1257 19.6875 26.25 19.6875H27.1875C27.3118 19.6875 27.431 19.6381 27.519 19.5502C27.6069 19.4623 27.6562 19.3431 27.6562 19.2188C27.6562 19.0944 27.6069 18.9752 27.519 18.8873C27.431 18.7994 27.3118 18.75 27.1875 18.75ZM21.5625 16.875H20.625C20.5007 16.875 20.3815 16.9244 20.2935 17.0123C20.2056 17.1002 20.1562 17.2194 20.1562 17.3438C20.1562 17.4681 20.2056 17.5873 20.2935 17.6752C20.3815 17.7631 20.5007 17.8125 20.625 17.8125H21.5625C21.6868 17.8125 21.806 17.7631 21.894 17.6752C21.9819 17.5873 22.0312 17.4681 22.0312 17.3438C22.0312 17.2194 21.9819 17.1002 21.894 17.0123C21.806 16.9244 21.6868 16.875 21.5625 16.875ZM24.375 16.875H23.4375C23.3132 16.875 23.194 16.9244 23.106 17.0123C23.0181 17.1002 22.9688 17.2194 22.9688 17.3438C22.9688 17.4681 23.0181 17.5873 23.106 17.6752C23.194 17.7631 23.3132 17.8125 23.4375 17.8125H24.375C24.4993 17.8125 24.6185 17.7631 24.7065 17.6752C24.7944 17.5873 24.8438 17.4681 24.8438 17.3438C24.8438 17.2194 24.7944 17.1002 24.7065 17.0123C24.6185 16.9244 24.4993 16.875 24.375 16.875ZM27.1875 16.875H26.25C26.1257 16.875 26.0065 16.9244 25.9185 17.0123C25.8306 17.1002 25.7812 17.2194 25.7812 17.3438C25.7812 17.4681 25.8306 17.5873 25.9185 17.6752C26.0065 17.7631 26.1257 17.8125 26.25 17.8125H27.1875C27.3118 17.8125 27.431 17.7631 27.519 17.6752C27.6069 17.5873 27.6562 17.4681 27.6562 17.3438C27.6562 17.2194 27.6069 17.1002 27.519 17.0123C27.431 16.9244 27.3118 16.875 27.1875 16.875Z" fill="#3B3D41"/>
</svg>
