<svg width="320" height="114" viewBox="0 0 320 114" fill="none" xmlns="http://www.w3.org/2000/svg">
<g style="mix-blend-mode:multiply">
<path d="M236.156 124.743C236.059 124.746 235.964 124.716 235.887 124.658C235.809 124.599 235.754 124.517 235.729 124.423L226.572 93.9158L217.438 61.4296L208.672 37.2399C208.651 37.1838 208.642 37.1244 208.645 37.0648C208.648 37.0053 208.662 36.947 208.688 36.893C208.713 36.8391 208.749 36.7907 208.793 36.7506C208.837 36.7104 208.888 36.6794 208.944 36.6591C209 36.6389 209.06 36.6299 209.12 36.6326C209.179 36.6354 209.238 36.6498 209.291 36.6751C209.345 36.7005 209.394 36.7361 209.434 36.7802C209.474 36.8242 209.505 36.8757 209.526 36.9317L218.268 61.1452L227.402 93.6669L236.536 124.162C236.554 124.219 236.561 124.279 236.556 124.338C236.551 124.397 236.534 124.455 236.507 124.508C236.479 124.561 236.441 124.608 236.395 124.646C236.35 124.685 236.296 124.713 236.239 124.731L236.156 124.743Z" fill="#40AE39"/>
<path d="M229.868 54.9826C229.777 54.9809 229.688 54.9517 229.614 54.8988C229.54 54.8459 229.484 54.7718 229.453 54.6863L220.924 31.3262C220.901 31.2711 220.89 31.2119 220.891 31.1524C220.892 31.0928 220.905 31.0341 220.929 30.9797C220.954 30.9254 220.989 30.8766 221.033 30.8363C221.077 30.796 221.128 30.7651 221.185 30.7454C221.241 30.7247 221.3 30.7154 221.36 30.7179C221.42 30.7205 221.478 30.7349 221.532 30.7602C221.586 30.7856 221.635 30.8214 221.675 30.8657C221.715 30.9099 221.746 30.9617 221.766 31.018L230.295 54.3663C230.334 54.4781 230.329 54.6007 230.28 54.7087C230.232 54.8168 230.144 54.9021 230.034 54.9471C229.982 54.9702 229.925 54.9823 229.868 54.9826Z" fill="#40AE39"/>
<path d="M273.935 94.1058C273.845 94.1058 273.758 94.0767 273.686 94.0228C273.587 93.9554 273.518 93.8522 273.494 93.7351C273.47 93.6179 273.492 93.4959 273.556 93.3947L286.213 73.8272C286.251 73.7645 286.304 73.7118 286.367 73.6731L299.119 66.7041C299.224 66.6476 299.348 66.6351 299.462 66.6696C299.577 66.704 299.673 66.7826 299.73 66.8879C299.786 66.9932 299.799 67.1166 299.764 67.2311C299.73 67.3456 299.651 67.4417 299.546 67.4982L286.901 74.4198L274.315 93.8925C274.275 93.9572 274.219 94.0107 274.153 94.048C274.086 94.0853 274.011 94.1052 273.935 94.1058Z" fill="#40AE39"/>
<path d="M423.188 155.463L413.923 154.894C413.846 154.891 413.772 154.867 413.708 154.825C413.643 154.783 413.591 154.726 413.555 154.657L404.338 137.768L395.311 125.644L386.343 112.832C386.317 112.784 386.297 112.732 386.284 112.678L377.198 75.9369L368.384 55.7887L359.772 44.4345L351.468 36.2804L339.796 33.7678L328.052 36.1382L321.528 43.4626L316.368 49.8153C316.327 49.8745 316.269 49.92 316.202 49.9456L311.979 51.8538L299.832 67.2613L308.729 97.9341L317.91 134.77L326.048 153.271C326.073 153.325 326.088 153.384 326.09 153.444C326.093 153.504 326.084 153.564 326.063 153.62C326.042 153.677 326.009 153.728 325.968 153.772C325.927 153.816 325.877 153.851 325.822 153.875C325.71 153.923 325.584 153.925 325.471 153.881C325.358 153.836 325.267 153.749 325.217 153.638L317.056 135.054L307.887 98.1119L298.931 67.2258C298.911 67.1568 298.909 67.0843 298.923 67.0143C298.938 66.9442 298.969 66.8785 299.014 66.8228L311.374 51.202C311.418 51.1453 311.475 51.1005 311.54 51.0716L315.775 49.1397L320.876 42.8463L327.519 35.3915C327.582 35.316 327.67 35.2656 327.768 35.2493L339.749 32.8789C339.81 32.8551 339.877 32.8551 339.938 32.8789L351.801 35.4507C351.886 35.4657 351.965 35.5071 352.026 35.5693L360.507 43.8656L369.179 55.362L378.075 75.6525L387.162 112.393L396.059 125.122L405.121 137.294L414.255 154.017L423.069 154.551L434.445 143.232L445.833 134.794L456.924 122.124C456.996 122.039 457.098 121.984 457.208 121.97L466.52 120.868L477.434 106.171L488.311 91.7118C488.353 91.6655 488.401 91.6256 488.454 91.5933L499.13 85.6673L509.592 78.5562H509.699L530.138 71.1724C530.234 71.1431 530.337 71.1431 530.434 71.1724L540.315 74.3488C540.427 74.3895 540.52 74.4696 540.576 74.5739L550.066 92.5415L557.017 105.875C557.046 105.928 557.064 105.986 557.07 106.045C557.076 106.105 557.07 106.166 557.052 106.223C557.035 106.28 557.006 106.334 556.967 106.38C556.929 106.426 556.881 106.464 556.828 106.491C556.776 106.52 556.719 106.537 556.66 106.543C556.601 106.549 556.541 106.543 556.485 106.525C556.428 106.508 556.376 106.479 556.331 106.44C556.286 106.402 556.249 106.355 556.223 106.302L545.95 86.7103L539.853 75.1665L530.244 72.0258L509.995 79.3384L499.533 86.4496L488.916 92.2926L478.05 106.716L467.019 121.555C466.982 121.605 466.936 121.646 466.883 121.677C466.83 121.707 466.771 121.726 466.71 121.733L457.375 122.847L446.331 135.445L434.919 143.92L423.484 155.333C423.406 155.414 423.3 155.46 423.188 155.463Z" fill="#40AE39"/>
<path d="M134.044 53.3708C133.982 53.3713 133.92 53.3589 133.863 53.3344C133.806 53.3099 133.755 53.2739 133.712 53.2286C133.629 53.1405 133.582 53.0239 133.582 52.9027C133.582 52.7814 133.629 52.6648 133.712 52.5767L142.609 44.2804C142.653 44.2407 142.705 44.2101 142.761 44.1904C142.817 44.1708 142.877 44.1623 142.936 44.1656C142.996 44.1689 143.054 44.1839 143.108 44.2097C143.161 44.2355 143.209 44.2716 143.249 44.3159C143.289 44.3603 143.32 44.412 143.339 44.4682C143.359 44.5244 143.367 44.5839 143.364 44.6433C143.361 44.7027 143.346 44.7609 143.32 44.8146C143.294 44.8682 143.258 44.9163 143.214 44.9559L134.329 53.2523C134.25 53.3232 134.15 53.365 134.044 53.3708Z" fill="#40AE39"/>
<path d="M295.527 48.5233C295.428 48.5265 295.331 48.4927 295.255 48.4285C295.206 48.3924 295.166 48.3471 295.136 48.2951C295.105 48.2432 295.086 48.1857 295.078 48.126C295.07 48.0664 295.075 48.0058 295.091 47.9478C295.107 47.8898 295.134 47.8357 295.172 47.7885L307.034 32.6418C307.07 32.5936 307.115 32.5532 307.167 32.5229C307.219 32.4926 307.277 32.473 307.337 32.4652C307.396 32.4575 307.457 32.4618 307.515 32.4779C307.573 32.4939 307.627 32.5214 307.674 32.5588C307.767 32.6353 307.827 32.7449 307.84 32.8644C307.853 32.9839 307.819 33.1038 307.746 33.1988L295.883 48.3574C295.841 48.4108 295.787 48.4536 295.725 48.4824C295.663 48.5112 295.596 48.5252 295.527 48.5233Z" fill="#40AE39"/>
<path d="M265.218 70.3426C265.125 70.3433 265.034 70.3152 264.958 70.2621C264.881 70.2091 264.823 70.1337 264.791 70.0463L256.144 45.5365L247.84 29.4534C247.811 29.4007 247.793 29.3427 247.787 29.2829C247.781 29.2231 247.787 29.1627 247.805 29.1053C247.823 29.0479 247.852 28.9945 247.89 28.9485C247.929 28.9024 247.976 28.8646 248.03 28.8371C248.083 28.8106 248.141 28.7948 248.2 28.7906C248.259 28.7864 248.318 28.7939 248.374 28.8126C248.43 28.8313 248.482 28.8609 248.527 28.8997C248.572 28.9385 248.609 28.9857 248.635 29.0386L256.939 45.1691L265.61 69.7381C265.631 69.7941 265.64 69.8537 265.637 69.9133C265.635 69.9729 265.62 70.0315 265.595 70.0855C265.57 70.1396 265.534 70.188 265.489 70.2281C265.445 70.2681 265.393 70.299 265.337 70.3189C265.299 70.3342 265.259 70.3423 265.218 70.3426Z" fill="#40AE39"/>
<path d="M252.216 82.87C252.154 82.8698 252.092 82.8571 252.035 82.8327C251.978 82.8082 251.927 82.7726 251.884 82.7278C251.841 82.6859 251.808 82.6361 251.785 82.5812C251.762 82.5262 251.75 82.4673 251.75 82.4078C251.75 82.3483 251.762 82.2894 251.785 82.2345C251.808 82.1795 251.841 82.1297 251.884 82.0878L264.932 69.5603C264.974 69.518 265.024 69.4845 265.079 69.4616C265.134 69.4387 265.193 69.4269 265.252 69.4269C265.312 69.4269 265.371 69.4387 265.426 69.4616C265.481 69.4845 265.531 69.518 265.573 69.5603C265.656 69.6484 265.703 69.765 265.703 69.8863C265.703 70.0075 265.656 70.1241 265.573 70.2122L252.524 82.7397C252.443 82.8222 252.332 82.869 252.216 82.87Z" fill="#40AE39"/>
<path d="M889.671 252.85L887.026 253.644L884.036 254.948L880.181 256.193L875.591 258.314L866.338 263.719L857.062 267.902L841.261 264.347C841.198 264.333 841.132 264.334 841.068 264.348C841.005 264.362 840.945 264.39 840.893 264.43L831.119 271.624L821.487 272.679C821.448 272.668 821.407 272.668 821.368 272.679L811.167 276.945L800.704 282.658L790.028 290.326L774.394 284.258C774.286 284.223 774.169 284.223 774.062 284.258L763.136 288.584L751.95 293.941L637.907 328.051L621.739 324.199C621.66 324.181 621.579 324.181 621.501 324.199L607.136 328.371L575.796 320.714C575.723 320.691 575.644 320.691 575.571 320.714L545.405 329.011L515.524 321.331C515.451 321.307 515.372 321.307 515.299 321.331L499.629 325.432L369.796 291.061L358.326 285.976L347.092 281.176L336.131 277.265C336.065 277.249 335.996 277.249 335.93 277.265L325.36 278.545L314.993 276.602L294.827 271.256L284.993 262.96L274.875 239.635L264.483 203.819C264.46 203.741 264.415 203.671 264.353 203.617L254.863 194.788L245.373 179.878C245.339 179.82 245.29 179.771 245.232 179.736C245.174 179.701 245.109 179.68 245.041 179.677L235.978 178.693L227.402 179.795L218.826 175.054L210.119 168.879L201.815 163.202L192.717 135.173C192.69 135.108 192.654 135.049 192.61 134.995L184.306 126.45L176.003 111.042L189.799 84.5767L203.855 67.2965L217.829 61.821L232.064 71.4329L240.545 85.5722L249.869 122.313L258.873 143.647L267.01 156.091L268.528 158.094C268.583 158.161 268.655 158.212 268.737 158.242C268.818 158.271 268.906 158.277 268.991 158.26L274.649 156.992L278.991 156.743L281.209 156.53L281.755 156.411L289.24 155.795L298.326 159.256L308.409 191.445L318.551 218.112C318.582 218.193 318.636 218.263 318.706 218.314L328.634 225.508L338.717 232.512L349.073 240.643L359.536 246.308C359.595 246.334 359.66 246.348 359.725 246.348C359.791 246.348 359.855 246.334 359.915 246.308L374.245 240.773L378.646 241.117C378.715 241.122 378.784 241.111 378.848 241.084C378.912 241.057 378.969 241.016 379.013 240.963L381.279 238.367L392.014 240.287L403.307 248.773C403.373 248.814 403.449 248.836 403.527 248.836C403.604 248.836 403.68 248.814 403.746 248.773L418.23 242.847L432.192 242.492L443.651 256.406L443.734 256.489L455.596 264.785L470.483 272.856C470.58 272.886 470.683 272.886 470.78 272.856L483.294 270.367H496.663L509.557 267.606L521.538 270.154H521.728L546.852 264.75C546.891 264.762 546.932 264.762 546.971 264.75L559.26 258.385L571.217 249.034L582.546 246.284L594.467 257.899C594.52 257.953 594.586 257.992 594.659 258.013C594.732 258.034 594.809 258.035 594.882 258.018L606.282 255.339C606.338 255.328 606.391 255.306 606.438 255.273C606.485 255.24 606.525 255.198 606.555 255.15L618.026 237.075L629.081 226.409L641.489 224.157L651.845 226.622L663.422 236.696C663.461 236.731 663.505 236.759 663.553 236.779L664.739 237.23L668.571 241.105L676.874 248.335L689.768 258.468C689.825 258.516 689.893 258.548 689.965 258.563C690.038 258.577 690.113 258.573 690.184 258.551L700.67 255.102L710.741 249.33L723.683 255.813C723.782 255.849 723.891 255.849 723.991 255.813L753.077 248.56C753.175 248.538 753.263 248.484 753.326 248.406L763.053 235.784L772.294 229.858C772.359 229.822 772.413 229.768 772.448 229.704L782.152 212.732C782.187 212.662 782.206 212.585 782.206 212.506C782.206 212.428 782.187 212.351 782.152 212.281L769.922 190.948C769.866 190.857 769.783 190.786 769.684 190.746L756.897 186.005C756.847 185.982 756.792 185.97 756.737 185.97C756.681 185.97 756.627 185.982 756.577 186.005L750.254 188.376L740.93 179.368L740.847 179.297L728.819 172.672C728.727 172.637 728.626 172.637 728.534 172.672H728.404L726.589 173.182L719.211 176.512L709.792 183.765C709.736 183.805 709.692 183.858 709.661 183.92L699.685 203.973L689.816 215.41L679.745 227.262L674.739 234.373L669.626 234.871L652.426 225.863L652.308 225.792L639.935 220.34C639.828 220.299 639.71 220.299 639.603 220.34L638.097 220.886L635.238 221.739L628.856 225.496L616.697 224.429C616.587 224.416 616.477 224.446 616.389 224.512L605.214 232.655L593.933 243.902L582.925 245.277L571.253 231.185L559.616 215.908C559.58 215.856 559.531 215.815 559.474 215.789L556.864 214.343L555.191 213.68L547.754 211.617C547.692 211.6 547.627 211.596 547.563 211.606C547.5 211.616 547.439 211.641 547.386 211.677L535.263 219.712L522.879 229.692L510.364 245.538L497.885 249.093L485.169 244.969L473.698 223.149C473.666 223.094 473.623 223.046 473.572 223.007C473.521 222.969 473.463 222.94 473.401 222.924L460.068 219.369H459.926L448.645 219.914L435.098 211.226C435.033 211.189 434.959 211.169 434.884 211.169C434.81 211.169 434.736 211.189 434.671 211.226L420.697 217.532L413.378 221.395L405.288 217.01C405.228 216.984 405.164 216.971 405.098 216.971C405.033 216.971 404.968 216.984 404.909 217.01L399.31 219.215C399.243 219.236 399.182 219.272 399.132 219.321L398.693 219.807L395.763 220.672L388.076 222.13H387.957L387.175 222.521C387.123 222.539 387.077 222.572 387.044 222.616L385.941 223.801L385.858 223.908L384.873 225.982L374.055 239.778L363.96 232.56L353.581 218.148C353.547 218.099 353.503 218.058 353.452 218.027C353.402 217.995 353.345 217.975 353.287 217.966C353.228 217.957 353.168 217.96 353.11 217.975C353.053 217.99 352.999 218.017 352.952 218.053C352.904 218.087 352.863 218.131 352.831 218.181C352.8 218.231 352.778 218.287 352.768 218.345C352.758 218.403 352.76 218.463 352.773 218.521C352.786 218.578 352.811 218.633 352.845 218.681L363.272 233.152C363.294 233.195 363.327 233.232 363.367 233.259L373.201 240.275L359.761 245.478L349.571 239.991L339.251 231.896L329.156 224.88L319.346 217.769L309.263 191.268L299.121 158.888C299.099 158.824 299.064 158.765 299.017 158.716C298.969 158.666 298.912 158.628 298.848 158.604L289.465 155.048C289.399 155.036 289.33 155.036 289.264 155.048L281.624 155.688L281.079 155.807L278.92 156.008L274.531 156.269L269.074 157.454L267.746 155.724L259.667 143.362L250.723 122.124L241.399 85.3826C241.406 85.3394 241.406 85.2954 241.399 85.2522L232.835 70.9707C232.804 70.9128 232.759 70.8638 232.704 70.8284L218.185 61.0269C218.122 60.9916 218.05 60.9731 217.977 60.9731C217.905 60.9731 217.833 60.9916 217.77 61.0269L203.464 66.6328C203.389 66.6614 203.323 66.7107 203.274 66.7751L189.04 84.2211L175.042 110.805C175.007 110.873 174.988 110.948 174.988 111.024C174.988 111.101 175.007 111.176 175.042 111.243L183.5 126.947L183.583 127.054L191.827 135.576L200.949 163.641C200.984 163.736 201.046 163.818 201.127 163.878L209.585 169.638L218.268 175.86L227.022 180.719C227.111 180.748 227.207 180.748 227.295 180.719L235.907 179.594L244.662 180.554L254.08 195.333L254.163 195.416L263.594 204.198L274.021 239.991L284.21 263.482C284.239 263.544 284.279 263.6 284.329 263.647L294.317 272.062C294.365 272.112 294.427 272.145 294.495 272.157L314.839 277.538L325.301 279.493H325.443L335.977 278.213L346.807 282.077L358.017 286.818L369.535 291.926L499.557 326.297C499.635 326.32 499.717 326.32 499.795 326.297L515.465 322.208L545.346 329.888H545.452H545.571L575.749 321.592L607.089 329.248C607.167 329.265 607.248 329.265 607.326 329.248L621.691 325.076L637.859 328.94C637.937 328.958 638.019 328.958 638.097 328.94L752.318 294.818L763.54 289.437L774.323 285.147L790.028 291.274C790.092 291.308 790.163 291.326 790.236 291.326C790.308 291.326 790.379 291.308 790.443 291.274L801.202 283.535L811.617 277.81L821.712 273.591L831.392 272.525C831.474 272.52 831.552 272.491 831.617 272.442L841.32 265.33L857.062 268.886C857.154 268.916 857.254 268.916 857.346 268.886L866.836 264.607L876.089 259.203L880.596 257.117L884.416 255.932L887.405 254.628L889.778 253.929L889.671 252.85ZM669.33 235.772C669.411 235.795 669.498 235.795 669.579 235.772L675.036 235.227C675.099 235.217 675.16 235.196 675.215 235.164C675.27 235.131 675.318 235.088 675.356 235.037L680.457 227.795L690.504 215.943L700.433 204.412L710.421 184.358L719.661 177.247L726.885 173.988L728.534 173.549L740.396 180.091L749.886 189.253C749.946 189.315 750.023 189.359 750.107 189.378C750.192 189.397 750.28 189.39 750.361 189.36L756.79 186.894L769.269 191.552L781.286 212.483L771.796 229.158L762.591 235.084C762.546 235.109 762.506 235.141 762.472 235.179L752.793 247.742L724.015 254.913L710.966 248.394C710.901 248.357 710.828 248.337 710.753 248.337C710.678 248.337 710.604 248.357 710.539 248.394L700.338 254.213L690.172 257.544L677.491 247.564L669.188 240.382L665.309 236.459C665.268 236.41 665.214 236.374 665.154 236.352L663.968 235.902L655.332 228.388L669.33 235.772ZM635.582 222.557L638.358 221.739L639.734 221.241L647.325 224.583L641.643 223.232C641.581 223.215 641.516 223.215 641.454 223.232L631.347 225.058L635.582 222.557ZM594.194 244.732C594.293 244.718 594.385 244.672 594.455 244.601L605.796 233.283L616.768 225.295L627.895 226.266L617.373 236.459L605.938 254.415L594.954 256.987L583.72 246.035L594.194 244.732ZM385.656 226.444L386.664 224.346L387.673 223.268L388.325 222.948L395.644 221.549L399.096 220.578C399.172 220.55 399.241 220.505 399.298 220.447L399.749 219.949L405.063 217.863L413.188 222.261C413.255 222.293 413.328 222.31 413.402 222.31C413.476 222.31 413.549 222.293 413.615 222.261L421.112 218.29L434.849 212.092L448.301 220.732C448.384 220.779 448.478 220.803 448.574 220.803L459.926 220.246L472.974 223.695L484.445 245.49C484.501 245.595 484.594 245.675 484.706 245.715L497.695 249.887C497.78 249.911 497.871 249.911 497.956 249.887L510.696 246.332C510.789 246.306 510.872 246.253 510.933 246.178L523.46 230.284L535.749 220.4L547.611 212.506L554.812 214.497L556.389 215.126L558.869 216.489L570.577 231.695L581.953 245.431L570.98 248.098C570.915 248.11 570.854 248.139 570.802 248.181L558.845 257.532L546.686 263.825L521.692 269.277L509.723 266.729C509.661 266.717 509.596 266.717 509.534 266.729L496.639 269.502H483.247L470.803 271.991L456.106 264.015L444.327 255.718L432.737 241.887C432.695 241.835 432.641 241.793 432.579 241.766C432.517 241.739 432.449 241.728 432.382 241.733L418.147 242.089C418.096 242.077 418.043 242.077 417.993 242.089L403.663 248.015L392.489 239.624C392.433 239.582 392.368 239.554 392.299 239.541L381.208 237.549C381.131 237.537 381.053 237.545 380.98 237.572C380.907 237.599 380.843 237.644 380.793 237.704L378.503 240.311L375.075 240.05L385.656 226.444Z" fill="#40AE39"/>
<path d="M282.543 109.62C282.462 109.619 282.383 109.596 282.315 109.555C282.246 109.513 282.189 109.454 282.151 109.383L273.539 93.8805L264.797 70.0581C264.767 69.9835 264.759 69.9024 264.771 69.8232C264.784 69.7441 264.817 69.6697 264.868 69.6077L277.572 54.0224C277.61 53.9806 277.654 53.9447 277.703 53.9158L290.431 46.6505C290.549 46.6025 290.681 46.6025 290.799 46.6505L294.82 47.9661L295.283 47.7054C295.383 47.6701 295.491 47.6701 295.591 47.7054L309.399 50.6209L315.686 48.8076L323.883 46.6624L335.982 39.6935C336.047 39.656 336.121 39.6363 336.196 39.6363C336.271 39.6363 336.344 39.656 336.409 39.6935L353.218 47.9898L359.885 43.7587L371.284 32.5823C371.37 32.4997 371.485 32.4536 371.604 32.4536C371.724 32.4536 371.839 32.4997 371.925 32.5823C371.967 32.6242 372.001 32.674 372.024 32.729C372.046 32.7839 372.058 32.8428 372.058 32.9023C372.058 32.9618 372.046 33.0207 372.024 33.0757C372.001 33.1306 371.967 33.1804 371.925 33.2223L360.442 44.4698L353.491 48.9498C353.424 48.9872 353.348 49.0068 353.271 49.0068C353.195 49.0068 353.119 48.9872 353.052 48.9498L336.231 40.5705L324.31 47.3735H324.203L315.959 49.5306L309.6 51.4506C309.53 51.4681 309.457 51.4681 309.387 51.4506L295.639 48.5469L295.152 48.8194C295.097 48.8458 295.036 48.8595 294.974 48.8595C294.913 48.8595 294.852 48.8458 294.796 48.8194L290.763 47.492L278.272 54.6032L265.71 69.9751L274.334 93.4894L282.91 108.897C282.94 108.948 282.959 109.005 282.967 109.064C282.975 109.122 282.971 109.182 282.956 109.239C282.94 109.297 282.914 109.35 282.877 109.397C282.841 109.444 282.796 109.484 282.744 109.513C282.689 109.567 282.619 109.604 282.543 109.62Z" fill="#40AE39"/>
<path d="M19.0465 125.288C18.9598 125.288 18.8749 125.263 18.8015 125.217C18.7281 125.171 18.6691 125.105 18.6313 125.027C18.6052 124.974 18.59 124.915 18.5867 124.856C18.5833 124.796 18.5918 124.737 18.6116 124.68C18.6315 124.624 18.6623 124.572 18.7024 124.528C18.7424 124.484 18.7908 124.448 18.8448 124.423L32.7474 117.703L46.6381 109.063C46.7404 109.002 46.8627 108.984 46.9783 109.013C47.0939 109.041 47.1933 109.115 47.2549 109.217C47.2872 109.266 47.3092 109.322 47.3196 109.38C47.3299 109.438 47.3284 109.498 47.3151 109.555C47.3018 109.613 47.277 109.667 47.2422 109.715C47.2074 109.763 47.1633 109.803 47.1126 109.833L33.21 118.497L19.26 125.241C19.195 125.277 19.1208 125.293 19.0465 125.288Z" fill="#40AE39"/>
<path d="M307.363 33.3762C307.258 33.3791 307.156 33.3409 307.079 33.2696L298.894 26.2888L298.799 26.1821L290.626 12.7065C290.595 12.6559 290.574 12.5997 290.564 12.541C290.555 12.4824 290.557 12.4224 290.571 12.3647C290.585 12.3069 290.61 12.2524 290.645 12.2043C290.679 12.1562 290.723 12.1154 290.774 12.0842C290.825 12.0531 290.881 12.0323 290.94 12.0229C290.998 12.0135 291.058 12.0157 291.116 12.0295C291.174 12.0432 291.228 12.0682 291.277 12.103C291.325 12.1379 291.366 12.1818 291.397 12.2324L299.558 25.6369L307.506 32.4162L319.297 29.3821L330.957 16.2146C330.999 16.1724 331.049 16.1388 331.104 16.1159C331.159 16.093 331.218 16.0812 331.278 16.0812C331.337 16.0812 331.396 16.093 331.451 16.1159C331.506 16.1388 331.556 16.1724 331.598 16.2146C331.681 16.3007 331.727 16.4154 331.727 16.5347C331.727 16.6539 331.681 16.7686 331.598 16.8546L319.807 30.1288C319.749 30.1997 319.67 30.2497 319.581 30.271L307.435 33.3999L307.363 33.3762Z" fill="#40AE39"/>
<path d="M35.4925 108.138C35.3902 108.133 35.2926 108.094 35.215 108.027C35.1374 107.96 35.0843 107.869 35.0639 107.769C35.0435 107.668 35.0571 107.564 35.1025 107.472C35.1479 107.38 35.2225 107.306 35.3146 107.261L49.0392 101.395L62.408 93.9753H62.5503L76.0139 91.3916L82.3721 89.7323L83.4041 89.1516L84.4243 88.8434C84.4803 88.8228 84.5399 88.8134 84.5996 88.816C84.6593 88.8185 84.7179 88.8329 84.772 88.8582C84.8261 88.8836 84.8746 88.9195 84.9147 88.9637C84.9548 89.008 84.9856 89.0597 85.0055 89.116C85.0479 89.2276 85.0443 89.3515 84.9953 89.4604C84.9464 89.5693 84.8562 89.6543 84.7446 89.6968H84.5785L83.7363 89.9338L82.6924 90.5146L76.2156 92.2213L62.7875 94.805L49.4307 102.201L35.6586 108.127C35.6048 108.143 35.5481 108.147 35.4925 108.138Z" fill="#40AE39"/>
<path d="M282.548 109.62C282.456 109.62 282.367 109.593 282.291 109.542C282.215 109.491 282.156 109.419 282.12 109.335C282.081 109.222 282.085 109.097 282.134 108.987C282.182 108.877 282.271 108.79 282.381 108.743L295.371 103.694L307.98 97.6848L320.103 80.3217L311.254 51.6637C311.236 51.6069 311.229 51.5471 311.234 51.4876C311.239 51.4281 311.256 51.3702 311.283 51.3173C311.311 51.2644 311.349 51.2174 311.395 51.1793C311.441 51.1411 311.494 51.1124 311.551 51.0948C311.608 51.0768 311.667 51.0706 311.727 51.0765C311.786 51.0824 311.844 51.1003 311.896 51.1291C311.948 51.158 311.994 51.1971 312.03 51.2442C312.067 51.2913 312.093 51.3453 312.108 51.403L321.04 80.2624C321.059 80.3288 321.061 80.3984 321.049 80.466C321.037 80.5337 321.01 80.5977 320.969 80.6535L308.656 98.3011C308.612 98.3676 308.551 98.4209 308.478 98.4551L295.726 104.535L282.678 109.631L282.548 109.62Z" fill="#40AE39"/>
<path d="M243.494 55.895L229.865 54.9823C229.745 54.9704 229.635 54.9136 229.555 54.8234C229.476 54.7333 229.434 54.6164 229.438 54.4964C229.447 54.3759 229.503 54.2637 229.594 54.184C229.685 54.1042 229.803 54.0632 229.924 54.0698L243.376 54.9705L256.318 45.0149L269.141 34.1822C269.182 34.1403 269.23 34.107 269.284 34.0842C269.338 34.0615 269.396 34.0497 269.455 34.0497C269.514 34.0497 269.572 34.0615 269.626 34.0842C269.68 34.107 269.728 34.1403 269.769 34.1822C269.812 34.2241 269.845 34.2739 269.868 34.3289C269.891 34.3838 269.903 34.4427 269.903 34.5022C269.903 34.5617 269.891 34.6207 269.868 34.6756C269.845 34.7305 269.812 34.7804 269.769 34.8222L256.923 45.6786L243.874 55.7527C243.826 55.8044 243.767 55.8442 243.701 55.8689C243.635 55.8936 243.564 55.9025 243.494 55.895Z" fill="#40AE39"/>
<path d="M148.444 211.831C148.317 211.825 148.198 211.77 148.112 211.677L139.974 202.598C139.928 202.553 139.895 202.496 139.879 202.432L131.018 174.26L122.715 156.897L114.411 137.437L105.977 112.547C105.948 112.486 105.934 112.419 105.934 112.352C105.934 112.284 105.948 112.218 105.977 112.156L120.579 88.3577L135.348 71.9309C135.388 71.8873 135.437 71.8522 135.491 71.8274C135.545 71.8026 135.604 71.7887 135.663 71.7865C135.723 71.7843 135.782 71.7938 135.838 71.8146C135.894 71.8353 135.945 71.8667 135.989 71.9072C136.032 71.9477 136.067 71.9963 136.092 72.0504C136.117 72.1045 136.131 72.1629 136.133 72.2223C136.135 72.2817 136.126 72.341 136.105 72.3968C136.084 72.4525 136.053 72.5036 136.012 72.5472L121.291 88.9029L107.045 112.5L115.348 137.117L123.652 156.518L131.955 173.929L140.745 202.065L148.788 211.073C148.83 211.114 148.864 211.164 148.887 211.219C148.91 211.274 148.921 211.333 148.921 211.393C148.921 211.452 148.91 211.511 148.887 211.566C148.864 211.621 148.83 211.671 148.788 211.713C148.741 211.754 148.687 211.786 148.628 211.806C148.569 211.826 148.506 211.835 148.444 211.831Z" fill="#40AE39"/>
<path d="M258.748 25.8861C258.678 25.9019 258.605 25.9019 258.534 25.8861L255.77 24.4639C255.719 24.4389 255.675 24.4024 255.64 24.3572L248.013 15.5038C247.934 15.4127 247.895 15.294 247.904 15.174C247.912 15.054 247.969 14.9424 248.06 14.8638C248.151 14.7852 248.27 14.7461 248.39 14.755C248.51 14.7639 248.622 14.8201 248.701 14.9112L256.269 23.6935L258.748 24.9735L270.776 18.7394L282.959 13.9394L294.75 0.202975C294.795 0.153196 294.85 0.112901 294.911 0.084421C294.972 0.0559407 295.038 0.0398405 295.106 0.0370483L314.951 0.700753C315.071 0.709739 315.182 0.763627 315.264 0.851579C315.345 0.939531 315.39 1.05502 315.39 1.17483C315.384 1.29534 315.331 1.40868 315.242 1.49062C315.154 1.57256 315.036 1.61661 314.916 1.61336L295.284 0.961497L283.576 14.6268C283.524 14.6769 283.464 14.7171 283.398 14.7453L271.144 19.5453L258.95 25.8268C258.889 25.8641 258.819 25.8845 258.748 25.8861Z" fill="#40AE39"/>
<path d="M75.8234 96.3578C75.8083 96.3 75.7818 96.2457 75.7455 96.1982C75.7092 96.1506 75.6637 96.1108 75.6118 96.081C75.5599 96.0512 75.5026 96.0321 75.4432 96.0247C75.3838 96.0172 75.3236 96.0217 75.2659 96.0378L68.4451 98.0408L54.7443 102.509L40.9129 108.897L27.1527 118.604L18.6593 123.997C18.5676 124.053 18.5 124.142 18.4695 124.245L18.339 124.696L13.5941 126.367H13.2501C13.1841 126.349 13.1145 126.349 13.0485 126.367L12.1351 126.853L2.56224 133.383L0 135.611V136.797L3.16722 134.106L12.657 127.635L13.4281 127.22H13.7246C13.7754 127.232 13.828 127.232 13.8788 127.22L18.8491 125.454C18.9158 125.429 18.976 125.39 19.0252 125.339C19.0745 125.287 19.1116 125.226 19.1338 125.158L19.288 124.648L27.5916 119.339L41.3636 109.62L55.0764 103.279L68.718 98.8941L75.515 96.8911C75.6246 96.858 75.7175 96.7845 75.7748 96.6854C75.832 96.5863 75.8494 96.4692 75.8234 96.3578Z" fill="#40AE39"/>
<path d="M101.339 79.3855L99.2751 78.8995L93.1542 78.141C93.0786 78.1344 93.0025 78.1461 92.9323 78.1749C92.8621 78.2038 92.7999 78.2491 92.7509 78.3069L84.2219 88.8315L84.0203 88.7603C83.9391 88.7253 83.8492 88.7157 83.7624 88.7326C83.6756 88.7495 83.596 88.7922 83.5339 88.8551L79.9752 92.233L75.1354 96.1322L72.3597 98.4434L71.897 98.9174L71.3395 99.2493L68.801 101.252L67.164 102.58L64.2934 104.701L63.2851 105.637L58.5402 109.051L52.7632 106.906C52.6635 106.87 52.5546 106.87 52.4548 106.906L46.8677 108.992L41.3636 108.79L35.5867 107.249C35.5109 107.224 35.4296 107.221 35.352 107.24C35.2744 107.259 35.2037 107.299 35.1478 107.356L21.6842 120.393L16.7613 124.126L14.033 125.999L13.0366 126.568C12.9932 126.59 12.9564 126.622 12.9298 126.663L11.3996 128.346L8.00701 131.202L3.0486 133.051L0 134.687V135.694L3.44005 133.821L8.42219 131.972C8.46924 131.956 8.5133 131.932 8.55268 131.901L12.0402 128.938L13.5704 127.267L14.5431 126.71L17.3189 124.814L22.2892 121.033L35.5867 108.186L41.1383 109.679L46.8321 109.904H47.0101L52.5141 107.842L58.3622 110.011C58.4312 110.034 58.5048 110.041 58.5769 110.031C58.6491 110.021 58.7178 109.993 58.7774 109.952L63.7595 106.396L64.7916 105.448L71.9089 100.055L72.4783 99.7352L72.5851 99.6523L73.0595 99.1545L75.7048 96.8789L80.5565 92.9678L82.2765 91.4152L83.6644 90.0996L83.9847 89.7559L84.1863 89.8389C84.261 89.8682 84.3421 89.877 84.4214 89.8645C84.5006 89.852 84.5751 89.8186 84.6371 89.7678L93.3203 79.101L99.1565 79.824L101.173 80.2981C101.232 80.312 101.292 80.3142 101.351 80.3044C101.411 80.2946 101.467 80.2731 101.518 80.241C101.569 80.209 101.613 80.1671 101.648 80.1179C101.682 80.0687 101.706 80.0131 101.719 79.9544C101.734 79.8919 101.737 79.8269 101.726 79.7635C101.715 79.7001 101.691 79.6396 101.655 79.5861C101.619 79.5325 101.573 79.487 101.518 79.4525C101.464 79.4179 101.403 79.3951 101.339 79.3855Z" fill="#40AE39"/>
<path d="M303.472 53.205C303.4 53.2034 303.331 53.1829 303.27 53.1457L294.705 48.8316C294.625 48.7995 294.558 48.741 294.516 48.6657L292.843 45.8212L286.663 37.3234L278.549 26.5381L270.684 19.4862C270.642 19.4444 270.608 19.3945 270.586 19.3396C270.563 19.2847 270.551 19.2257 270.551 19.1662C270.551 19.1067 270.563 19.0478 270.586 18.9929C270.608 18.938 270.642 18.8881 270.684 18.8462C270.725 18.8043 270.774 18.771 270.828 18.7482C270.882 18.7255 270.94 18.7137 270.999 18.7137C271.057 18.7137 271.115 18.7255 271.169 18.7482C271.223 18.771 271.272 18.8043 271.313 18.8462L279.237 25.9574L287.422 36.8138L293.638 45.4183L295.263 48.1798L303.566 52.3635L311.645 51.1783C311.764 51.1594 311.886 51.1888 311.984 51.2599C312.082 51.331 312.148 51.4381 312.167 51.5575C312.186 51.677 312.156 51.799 312.085 51.8968C312.014 51.9946 311.907 52.0602 311.787 52.079L303.566 53.3353L303.472 53.205Z" fill="#40AE39"/>
<path d="M281.717 156.506C281.612 156.507 281.51 156.469 281.432 156.4L273.128 149.454C273.068 149.402 273.02 149.337 272.986 149.265L263.852 123.902L254.564 87.5756L253.2 86.6393L246.391 82.2303L240.863 78.0585L236.877 74.9651C236.837 74.9382 236.804 74.9015 236.782 74.8584L223.509 54.8998L208.776 37.3827L200.472 25.2344L192.655 20.1974C192.556 20.1299 192.487 20.0267 192.463 19.9096C192.438 19.7924 192.461 19.6704 192.524 19.5692C192.588 19.4693 192.688 19.3983 192.804 19.3717C192.919 19.3451 193.04 19.3649 193.141 19.427L201.041 24.5115C201.091 24.5488 201.135 24.5926 201.172 24.6418L209.476 36.8256L224.197 54.3546L237.459 74.2896L241.373 77.3355L246.865 81.4837L255.169 86.9237C255.264 86.9825 255.332 87.0761 255.359 87.1845L264.635 123.641L273.721 148.838L281.966 155.7C282.012 155.738 282.051 155.785 282.079 155.838C282.107 155.891 282.124 155.948 282.13 156.008C282.135 156.068 282.129 156.128 282.111 156.185C282.093 156.242 282.064 156.295 282.025 156.34C281.988 156.388 281.941 156.427 281.888 156.455C281.835 156.484 281.777 156.501 281.717 156.506Z" fill="#40AE39"/>
<path d="M106.76 112.049C106.709 112.02 106.652 112.001 106.593 111.993C106.534 111.985 106.475 111.989 106.417 112.004C106.36 112.02 106.306 112.046 106.259 112.083C106.212 112.119 106.173 112.164 106.143 112.215L91.4342 137.306L76.203 155.937L60.3195 168.974L60.2365 169.057L44.5546 190.486L28.7304 212.518L11.9334 221.241L0 220.566V221.478L12.0046 222.166C12.0787 222.183 12.1559 222.183 12.23 222.166L29.2404 213.336C29.3024 213.307 29.3555 213.262 29.3946 213.206L45.29 191.09L60.9363 169.757L76.8317 156.719L92.2527 137.97L106.997 112.82C107.058 112.762 107.101 112.689 107.123 112.608C107.144 112.527 107.142 112.441 107.117 112.361C107.093 112.281 107.046 112.21 106.983 112.155C106.92 112.1 106.843 112.063 106.76 112.049Z" fill="#40AE39"/>
<path d="M273.933 94.1054C273.87 94.1163 273.806 94.1163 273.743 94.1054L260.208 87.6106L251.988 82.8698L244.099 79.5157C244.034 79.4868 243.977 79.442 243.933 79.3853L234.87 68.446C234.836 68.4072 234.808 68.3632 234.787 68.3156L229.485 54.6859L214.942 31.065L207.172 27.2132C207.118 27.1875 207.07 27.1515 207.03 27.1072C206.99 27.0629 206.96 27.0112 206.94 26.9551C206.92 26.899 206.912 26.8395 206.915 26.7801C206.918 26.7206 206.933 26.6624 206.958 26.6087C206.984 26.555 207.02 26.5069 207.065 26.4671C207.109 26.4273 207.161 26.3967 207.217 26.3769C207.273 26.357 207.332 26.3485 207.392 26.3517C207.451 26.3548 207.51 26.3697 207.563 26.3954L215.464 30.3065C215.536 30.3454 215.598 30.4026 215.642 30.4724L230.291 54.283L235.606 67.9127L244.585 78.6624L252.426 81.9928L260.671 86.7335L274.17 93.2047C274.278 93.2606 274.36 93.3557 274.4 93.4703C274.439 93.585 274.434 93.7105 274.383 93.821C274.344 93.9071 274.281 93.9799 274.201 94.0304C274.12 94.0809 274.027 94.107 273.933 94.1054Z" fill="#40AE39"/>
<path d="M106.545 112.903C106.482 112.905 106.418 112.892 106.361 112.866C106.303 112.839 106.252 112.799 106.213 112.749L98.6805 104.203L91.2192 94.2122L84.2205 89.6848C84.1182 89.6203 84.0458 89.518 84.0191 89.4001C83.9924 89.2823 84.0136 89.1588 84.0781 89.0566C84.1426 88.9545 84.2451 88.8821 84.363 88.8554C84.4809 88.8288 84.6046 88.85 84.7068 88.9144L91.8242 93.4892C91.8718 93.5146 91.9125 93.5512 91.9428 93.5959L99.4278 103.623L106.925 112.144C106.969 112.185 107.004 112.235 107.027 112.29C107.051 112.345 107.064 112.404 107.064 112.464C107.064 112.524 107.051 112.584 107.027 112.639C107.004 112.694 106.969 112.743 106.925 112.784C106.876 112.834 106.816 112.871 106.75 112.892C106.684 112.913 106.613 112.916 106.545 112.903Z" fill="#40AE39"/>
<path d="M241.504 139.25C241.441 139.249 241.378 139.235 241.321 139.209C241.264 139.182 241.213 139.144 241.172 139.096L229.689 126.663L221.006 115.166C221.002 115.131 221.002 115.095 221.006 115.06L212.133 93.2286L203.201 67.0595L194.648 48.2268L186.475 34.8223L178.883 32.0963C178.785 32.0454 178.708 31.9608 178.666 31.858C178.625 31.7551 178.622 31.6408 178.658 31.5359C178.694 31.431 178.766 31.3425 178.862 31.2865C178.958 31.2306 179.071 31.2109 179.18 31.2311L186.938 34.0163C187.035 34.0478 187.115 34.1158 187.163 34.206L195.467 47.8001L204.067 66.7632L212.999 92.9441L221.824 114.657L230.436 126.082L241.895 138.479C241.978 138.565 242.024 138.68 242.024 138.799C242.024 138.918 241.978 139.033 241.895 139.119C241.844 139.169 241.782 139.207 241.715 139.229C241.647 139.252 241.575 139.259 241.504 139.25Z" fill="#40AE39"/>
<path d="M175.727 110.651C175.68 110.614 175.626 110.586 175.568 110.57C175.51 110.554 175.449 110.55 175.389 110.558C175.33 110.565 175.272 110.585 175.22 110.615C175.168 110.646 175.123 110.686 175.087 110.734L160.544 129.413L145.965 152.145L131.066 173.952L116.677 209.093L101.149 221.822L84.5422 221.893C84.4675 221.895 84.3942 221.914 84.3283 221.949C84.2623 221.984 84.2056 222.034 84.1626 222.095L68.4807 245.585L51.9448 258.148L34.6259 262.972L0 268.163V269.076L34.8038 263.861L52.2769 258.954C52.3296 258.943 52.3785 258.919 52.4193 258.883L69.0857 246.214C69.127 246.184 69.1631 246.148 69.1925 246.107L84.8388 222.759L101.315 222.687C101.418 222.687 101.518 222.653 101.6 222.593L117.341 209.674C117.398 209.625 117.442 209.565 117.472 209.496L131.861 174.343L146.724 152.595L161.327 129.934L175.846 111.291C175.915 111.19 175.941 111.067 175.918 110.947C175.896 110.827 175.828 110.721 175.727 110.651Z" fill="#40AE39"/>
<path d="M236.321 30.4491L229.085 29.8565C229.025 29.8518 228.968 29.8355 228.915 29.8086C228.862 29.7816 228.815 29.7445 228.776 29.6994C228.698 29.6083 228.66 29.49 228.669 29.3705C228.679 29.2511 228.735 29.1403 228.827 29.0625C228.918 28.9847 229.036 28.9463 229.156 28.9557L236.154 29.5246L248.017 14.8638C248.092 14.7799 248.191 14.7218 248.301 14.6979L267.922 11.8415C268.042 11.8277 268.163 11.8605 268.26 11.9333C268.358 12.006 268.423 12.1132 268.443 12.2327C268.457 12.3517 268.424 12.4714 268.351 12.5665C268.278 12.6616 268.171 12.7246 268.052 12.7423L248.61 15.5749L236.748 30.2831C236.695 30.3437 236.629 30.3906 236.555 30.4195C236.48 30.4484 236.4 30.4586 236.321 30.4491Z" fill="#40AE39"/>
<path d="M72.7294 99.2138L68.5776 98.9293C68.4979 98.924 68.4206 98.8996 68.3522 98.8582L62.4211 94.7575C62.3233 94.6861 62.2566 94.58 62.2345 94.461C62.2124 94.342 62.2368 94.2191 62.3025 94.1174C62.3358 94.0682 62.3786 94.0261 62.4283 93.9935C62.478 93.9609 62.5337 93.9384 62.5921 93.9274C62.6506 93.9164 62.7106 93.9171 62.7688 93.9293C62.827 93.9416 62.8822 93.9653 62.9312 93.9989L68.7911 98.0286L72.6819 98.3012L73.1209 98.0523C73.2287 98.0003 73.3521 97.991 73.4665 98.0262C73.5809 98.0613 73.6778 98.1384 73.7377 98.2419C73.7665 98.2947 73.7844 98.3526 73.7905 98.4124C73.7965 98.4722 73.7905 98.5326 73.7728 98.59C73.7551 98.6475 73.7261 98.7008 73.6875 98.7468C73.6489 98.7929 73.6014 98.8308 73.5479 98.8582L72.9904 99.1664C72.9112 99.2111 72.8193 99.2278 72.7294 99.2138Z" fill="#40AE39"/>
<path d="M155.105 229.324C155.051 229.337 154.994 229.337 154.939 229.324L148.427 226.563L140.123 220.637L132.282 216.607L124.69 215.102L124.524 215.031L116.79 209.757C116.72 209.711 116.667 209.645 116.636 209.567L108.332 190.604C108.309 190.548 108.297 190.487 108.297 190.426C108.297 190.365 108.309 190.305 108.332 190.248L122.769 156.518L137.11 123.842C137.135 123.784 137.171 123.731 137.217 123.688L152.152 110.011L166.552 91.8419L180.146 56.5232C180.186 56.4307 180.252 56.3522 180.336 56.298L194.773 47.5987L208.829 36.6712C208.877 36.6354 208.931 36.6093 208.989 36.5944C209.046 36.5795 209.106 36.5761 209.165 36.5843C209.224 36.5926 209.281 36.6124 209.332 36.6425C209.383 36.6727 209.428 36.7126 209.464 36.7601C209.5 36.8076 209.526 36.8616 209.541 36.9192C209.556 36.9768 209.559 37.0367 209.551 37.0956C209.543 37.1544 209.523 37.2111 209.493 37.2624C209.463 37.3136 209.423 37.3584 209.375 37.3942L195.283 48.3454L180.941 57.0091L167.371 92.2923C167.375 92.3317 167.375 92.3714 167.371 92.4108L152.875 110.663L137.964 124.328L123.73 156.885L109.376 190.426L117.431 209.069L124.975 214.213L132.579 215.73H132.698L140.645 219.831L148.949 225.757L155.366 228.471C155.458 228.516 155.533 228.59 155.578 228.682C155.624 228.774 155.637 228.878 155.617 228.978C155.597 229.079 155.543 229.169 155.466 229.236C155.388 229.303 155.291 229.342 155.188 229.348L155.105 229.324Z" fill="#40AE39"/>
<path d="M163.83 46.0579C163.749 46.0579 163.67 46.0331 163.604 45.9868L157.199 42.1704L151.991 44.8608C151.938 44.889 151.881 44.9061 151.821 44.9111C151.762 44.9162 151.702 44.9091 151.645 44.8902C151.588 44.8714 151.536 44.8412 151.492 44.8015C151.447 44.7618 151.411 44.7134 151.386 44.6594C151.332 44.5539 151.321 44.4313 151.357 44.3182C151.392 44.205 151.471 44.1104 151.576 44.0549L157.009 41.246C157.076 41.2086 157.151 41.189 157.228 41.189C157.305 41.189 157.381 41.2086 157.448 41.246L164.055 45.1927C164.108 45.2221 164.155 45.262 164.192 45.3099C164.229 45.3578 164.256 45.4127 164.272 45.4714C164.287 45.5301 164.291 45.5913 164.282 45.6513C164.273 45.7114 164.253 45.769 164.221 45.8208C164.182 45.8909 164.125 45.9496 164.057 45.9911C163.988 46.0327 163.91 46.0557 163.83 46.0579Z" fill="#40AE39"/>
<path d="M436.731 136.95C436.661 136.951 436.591 136.935 436.527 136.904C436.463 136.873 436.407 136.828 436.364 136.773L427.17 124.613L418.048 109.087L409.033 89.6612L400.041 60.2447L391.335 43.1305L383.244 39.575L383.138 39.5157L382.046 38.5913L381.963 38.5083L374.289 26.9408L366.91 25.2815L364.063 23.9067L354.811 21.6074L343.352 24.5704C343.281 24.5886 343.207 24.5883 343.136 24.5697C343.066 24.551 343.001 24.5145 342.948 24.4637L336.056 18.2889L334.87 17.0207L326.567 6.354L314.965 1.61324L307.326 4.42215C307.234 4.45205 307.134 4.45205 307.041 4.42215L295.108 0.866565L287.564 2.65621L268.276 12.6355L261.241 19.2726C261.185 19.3296 261.115 19.3698 261.037 19.3887C260.96 19.4075 260.878 19.4043 260.802 19.3793L248.395 15.6341L241.431 18.8341L229.439 29.7023L226.402 34.8105C226.34 34.9124 226.241 34.9858 226.125 35.0147C226.01 35.0436 225.887 35.0255 225.785 34.9646C225.682 34.9008 225.609 34.7994 225.58 34.6819C225.551 34.5645 225.569 34.4405 225.631 34.3364L228.691 29.169L228.774 29.0623L240.886 18.1111L240.992 18.04L248.169 14.7333C248.273 14.6972 248.386 14.6972 248.489 14.7333L260.779 18.4904L267.671 11.9837L267.766 11.9126L287.22 1.86213L294.989 0.0132243C295.063 -0.0044081 295.141 -0.0044081 295.215 0.0132243L307.077 3.56881L314.74 0.748047C314.792 0.724486 314.849 0.712303 314.906 0.712303C314.963 0.712303 315.02 0.724486 315.072 0.748047L326.934 5.55993C327.012 5.58508 327.078 5.63511 327.124 5.70216L335.428 16.4519L336.614 17.637L343.292 23.6223L354.621 20.6948C354.696 20.6829 354.772 20.6829 354.846 20.6948L364.336 23.0652L367.171 24.4401L374.621 26.0993C374.737 26.129 374.839 26.2008 374.905 26.3008L382.651 37.9631L383.648 38.7927L391.821 42.4313C391.919 42.4677 391.999 42.5397 392.046 42.6328L400.848 59.9603L409.852 89.4005L418.831 108.719L427.894 124.127L437.064 136.239C437.136 136.336 437.168 136.457 437.152 136.576C437.137 136.696 437.075 136.805 436.98 136.879C436.906 136.926 436.819 136.95 436.731 136.95Z" fill="#40AE39"/>
<path d="M58.7058 105.27C58.6346 105.269 58.565 105.248 58.5042 105.211L54.7913 103.303L49.133 102.26C49.0281 102.225 48.9391 102.154 48.8823 102.059C48.8254 101.964 48.8044 101.852 48.823 101.744C48.8417 101.635 48.8987 101.536 48.9839 101.466C49.069 101.395 49.1767 101.357 49.2872 101.359L55.0167 102.426H55.1353L58.694 104.275L71.3747 99.0837C71.4849 99.0516 71.6031 99.0615 71.7064 99.1116C71.8097 99.1617 71.8907 99.2483 71.9336 99.3547C71.9765 99.4611 71.9782 99.5797 71.9385 99.6873C71.8988 99.7949 71.8205 99.8839 71.7187 99.9371L58.8838 105.235L58.7058 105.27Z" fill="#40AE39"/>
<path d="M317.457 160.583C317.369 160.583 317.282 160.559 317.208 160.512L313.305 157.845C313.242 157.805 313.193 157.747 313.163 157.679L304.29 139.901L295.108 104.191L286.152 74.2061L277.576 54.4963L271.906 41.3881L270.388 36.2681C270.365 36.1975 270.361 36.1225 270.376 36.05C270.39 35.9774 270.423 35.9098 270.471 35.8532L278.584 25.9095L290.684 12.1612C290.725 12.1193 290.774 12.086 290.828 12.0632C290.882 12.0405 290.94 12.0287 290.998 12.0287C291.057 12.0287 291.115 12.0405 291.169 12.0632C291.223 12.086 291.272 12.1193 291.313 12.1612C291.355 12.2031 291.388 12.2529 291.411 12.3079C291.434 12.3628 291.446 12.4217 291.446 12.4812C291.446 12.5407 291.434 12.5997 291.411 12.6546C291.388 12.7095 291.355 12.7594 291.313 12.8012L279.237 26.5021L271.289 36.2443L272.724 41.0681L278.359 54.1052L286.995 73.8624L295.974 103.919L305.132 139.558L313.91 157.134L317.718 159.73C317.767 159.763 317.809 159.806 317.842 159.855C317.875 159.905 317.897 159.961 317.908 160.019C317.919 160.077 317.918 160.137 317.906 160.196C317.894 160.254 317.87 160.309 317.837 160.358C317.796 160.423 317.741 160.478 317.675 160.517C317.608 160.556 317.534 160.579 317.457 160.583Z" fill="#40AE39"/>
<path d="M69.6076 101.466C69.5657 101.424 69.5158 101.39 69.4609 101.367C69.4059 101.344 69.3469 101.333 69.2874 101.333C69.2278 101.333 69.1688 101.344 69.1138 101.367C69.0589 101.39 69.009 101.424 68.9671 101.466L54.7324 113.614L53.9139 114.159L53.4869 114.515L53.3919 114.634L52.9649 115.404L38.3032 134.841L22.6332 151.943L7.86467 160.738L0 165.478V166.533L6.73775 162.432L23.1551 152.655L23.25 152.572L38.9675 135.339L53.6766 115.831L54.1037 115.072L54.4002 114.811L55.0171 114.444L69.5602 102.07C69.642 101.994 69.6922 101.889 69.701 101.777C69.7097 101.666 69.6765 101.555 69.6076 101.466Z" fill="#40AE39"/>
<path d="M889.667 167.694L887.022 167.813H886.915L883.866 168.749H883.309C883.239 168.732 883.165 168.732 883.095 168.749L882.36 169.152L879.987 169.934L878.255 170.42L874.519 171.866L868.778 175.991L862.752 177.282C862.7 177.292 862.652 177.312 862.609 177.342L856.251 181.288C856.214 181.31 856.182 181.338 856.156 181.371L849.573 188.483L843.333 191.908L833.12 186.397C833.052 186.361 832.977 186.343 832.9 186.343C832.824 186.343 832.748 186.361 832.681 186.397L826.18 190.166L815.884 187.321C815.83 187.296 815.771 187.283 815.712 187.283C815.652 187.283 815.594 187.296 815.54 187.321L808.79 191.351L795.208 194.906L788.411 196.281L783.761 193.531L782.966 192.263C782.912 192.186 782.839 192.124 782.753 192.086L778.162 190.213C778.115 190.202 778.066 190.202 778.02 190.213L774.046 190.011L767.842 184.085L766.395 181.834C766.352 181.769 766.294 181.717 766.225 181.682C766.157 181.647 766.08 181.629 766.003 181.632H765.362L764.271 180.577L763.619 178.207L763.002 176.524L762.741 175.991C762.71 175.939 762.668 175.895 762.62 175.86C762.571 175.826 762.515 175.801 762.456 175.789H762.338L762.017 175.197L761.899 174.746C761.903 174.703 761.903 174.659 761.899 174.616L761.009 173.229C760.976 173.178 760.932 173.133 760.881 173.098C760.83 173.064 760.773 173.04 760.712 173.028L753.204 171.522L745.766 171.048L738.506 161.65C738.462 161.592 738.404 161.546 738.338 161.515C738.272 161.485 738.2 161.47 738.127 161.472L730.25 161.792L722.279 161.022L714.485 157.786L706.739 149.027L703.37 145.223L701.484 140.257L693.845 125.205L683.75 107.522C683.712 107.462 683.662 107.411 683.603 107.372C683.543 107.334 683.476 107.308 683.406 107.297L674.616 106.349L668.163 105.389L666.514 104.998L647.677 85.7738L637.393 78.9589C637.326 78.9215 637.25 78.9019 637.173 78.9019C637.096 78.9019 637.021 78.9215 636.954 78.9589L626.717 83.8893L618.022 79.6463L612.091 75.9011L609.291 73.7915L608.389 72.9026C608.308 72.825 608.2 72.7818 608.087 72.7818C607.974 72.7818 607.866 72.825 607.784 72.9026L597.915 81.6019L588.354 93.4538L568.722 103.694L563.716 107.024L559.707 105.448C559.641 105.43 559.571 105.43 559.505 105.448L544.642 106.787L539.968 102.604L530.668 71.3974C530.65 71.3413 530.622 71.2891 530.585 71.2433L521.095 59.6521L521 59.581L510.941 52.3513C510.87 52.2958 510.782 52.2665 510.692 52.2684L490.93 52.1143C490.811 52.1219 490.699 52.1677 490.609 52.2447L480.123 62.7692L471.108 66.9529L462.116 63.1721L451.44 60.2092C451.391 60.1883 451.339 60.1775 451.286 60.1775C451.233 60.1775 451.18 60.1883 451.132 60.2092L442.828 64.1914L440.373 65.661L431.618 66.1825L422.923 64.5825L412.022 54.9588L403.315 42.4194C403.276 42.3571 403.222 42.3058 403.158 42.2705C403.093 42.2352 403.021 42.2171 402.947 42.2179L391.726 42.3246C391.659 42.3124 391.591 42.3124 391.524 42.3246L380.112 47.8239L368.713 55.101L357.052 49.9454H356.957L344.988 47.0891L336.424 39.6935L328.12 35.3438L319.9 29.5008L311.596 15.7644C311.564 15.6966 311.51 15.6421 311.442 15.6104L303.399 10.7511C303.313 10.702 303.213 10.6813 303.115 10.6918L290.908 12.0429L283.281 13.8207L275.642 11.2489H275.464L267.943 11.8533C267.841 11.8599 267.745 11.9018 267.67 11.9718L260.553 18.6682L255.63 23.6934L250.707 29.0267L250.47 29.2993L248.347 28.766C248.258 28.7362 248.162 28.7362 248.074 28.766L228.94 36.1379L221.574 30.769L221.443 30.6979L207.458 26.3482L201.526 24.0726C201.462 24.0412 201.391 24.0249 201.319 24.0249C201.247 24.0249 201.176 24.0412 201.111 24.0726L186.402 34.0401L172.333 47.8357L164.943 48.6417C164.861 48.6458 164.783 48.6748 164.718 48.7246L155.904 55.3025L153.093 57.981L149.973 60.1262L144.042 65.1159L135.632 71.7648L128.514 72.6892C128.432 72.6982 128.353 72.7312 128.289 72.784L113.426 84.7308L98.6333 103.694L83.9241 127.125L68.5032 140.601L52.418 148.897C52.3632 148.922 52.3146 148.958 52.2757 149.004L36.5108 167.694L20.8645 192.951C20.8354 193.016 20.8203 193.087 20.8203 193.158C20.8203 193.23 20.8354 193.3 20.8645 193.366L28.6461 213.04C28.6585 213.083 28.6786 213.123 28.7054 213.158L35.8939 222.023L43.5213 236.246L51.8249 258.764C51.8594 258.859 51.9214 258.942 52.0029 259.002L59.3337 263.659C59.4073 263.697 59.4884 263.717 59.571 263.719C59.637 263.736 59.7066 263.736 59.7726 263.719L76.8542 255.126L93.2479 241.401L109.12 227.535L116.522 229.739C116.592 229.761 116.667 229.765 116.74 229.751C116.812 229.736 116.88 229.704 116.937 229.656L132.785 216.678L148.645 211.938L156.426 210.124C156.515 210.11 156.595 210.063 156.652 209.994L171.978 193.259L186.616 169.555L201.633 164.056C201.729 164.017 201.811 163.951 201.87 163.866L216.105 140.091C216.134 140.028 216.149 139.959 216.149 139.89C216.149 139.82 216.134 139.751 216.105 139.688L207.03 115.546C207.006 115.49 206.974 115.439 206.936 115.392L198.857 106.989L212.677 93.4894L226.983 94.2123C227.075 94.2125 227.165 94.188 227.244 94.1412L241.051 85.8449L254.717 87.6938L268.726 105.472C268.782 105.547 268.861 105.601 268.951 105.626L282.19 109.525L291.098 136.346C291.124 136.417 291.166 136.481 291.222 136.533C291.278 136.585 291.345 136.622 291.418 136.642L304.586 140.139C304.675 140.162 304.769 140.162 304.858 140.139L317.598 135.315C317.655 135.293 317.708 135.261 317.753 135.22L330.161 123.368C330.218 123.314 330.26 123.247 330.282 123.172C330.305 123.097 330.308 123.018 330.291 122.941L321.086 80.4404L333.055 58.858L344.585 48.298L353.28 72.4522L362.402 104.227L371.477 126.213C371.501 126.271 371.536 126.325 371.581 126.369C371.626 126.414 371.679 126.449 371.738 126.473L380.433 129.555L380.563 129.638L368.488 147.06C368.449 147.114 368.423 147.177 368.413 147.243C368.402 147.309 368.408 147.376 368.428 147.439L377.823 179.653L381.678 190.924L384.335 195.309L390.551 202.823L399.756 220.08C399.796 220.158 399.857 220.224 399.933 220.268C400.009 220.312 400.096 220.333 400.183 220.329L401.441 220.222C401.518 220.224 401.594 220.199 401.654 220.151L405.213 217.852L409.46 217.2L421.452 214.711L428.949 213.265L429.104 213.206L432.342 211.179L439.613 208.074L441.986 207.197L460.681 202.314H460.811L467.312 198.249L477.929 197.004L485.295 198.035H485.414L499.648 196.127C499.727 196.114 499.801 196.081 499.864 196.032C499.926 195.982 499.974 195.917 500.004 195.843L505.437 182.64L515.176 164.139C515.211 164.071 515.23 163.996 515.23 163.919C515.23 163.843 515.211 163.768 515.176 163.7L507.359 149.3C507.328 149.229 507.273 149.17 507.205 149.134L497.335 142.853L487.667 134.722L478.178 106.278C478.153 106.208 478.112 106.144 478.059 106.093C478.005 106.041 477.94 106.003 477.869 105.981L468.379 103.267L459.151 98.7872L449.969 79.4093L441.12 66.2181L443.22 64.9618L451.357 61.0743L461.784 63.9662L470.906 67.8062C471.024 67.8531 471.156 67.8531 471.274 67.8062L480.562 63.5633L480.692 63.4684L491.096 53.0269L510.526 53.181L520.419 60.2921L529.79 71.7529L539.102 102.995C539.127 103.076 539.172 103.149 539.233 103.208L544.155 107.617C544.201 107.656 544.253 107.686 544.31 107.705C544.368 107.723 544.428 107.729 544.488 107.724L559.446 106.372L563.562 107.996C563.626 108.031 563.697 108.05 563.77 108.05C563.842 108.05 563.914 108.031 563.977 107.996L569.137 104.559L588.888 94.2123C588.945 94.1866 588.995 94.1456 589.03 94.0938L598.591 82.2419L608.081 73.8863L608.722 74.5144L611.486 76.6122L617.512 80.476L626.444 84.8138C626.504 84.8459 626.571 84.8627 626.64 84.8627C626.708 84.8627 626.775 84.8459 626.835 84.8138L637.037 79.8952L647.037 86.5204L665.898 105.78C665.96 105.84 666.038 105.881 666.123 105.898L667.926 106.325L674.45 107.297L683.027 108.233L692.991 125.691L700.607 140.672L702.504 145.673C702.517 145.728 702.546 145.777 702.587 145.816L713.062 157.668L713.833 158.485C713.88 158.535 713.936 158.575 713.999 158.604L721.935 161.899C721.978 161.909 722.022 161.909 722.065 161.899L730.167 162.669L737.878 162.361L745.126 171.736C745.16 171.789 745.208 171.833 745.264 171.864C745.319 171.895 745.382 171.912 745.446 171.914L753.026 172.399L760.297 173.857L761.045 175.042L761.175 175.505L761.65 176.394C761.68 176.454 761.724 176.506 761.777 176.547C761.83 176.588 761.892 176.617 761.958 176.631H762.089L762.741 178.361L763.405 180.814C763.425 180.895 763.466 180.968 763.524 181.028L764.852 182.296C764.945 182.374 765.063 182.417 765.185 182.414H765.754L767.13 184.524L773.524 190.711C773.6 190.785 773.702 190.828 773.808 190.829L777.877 191.043L782.231 192.809L783.014 193.994C783.052 194.056 783.105 194.109 783.168 194.148L788.055 197.028C788.1 197.058 788.15 197.078 788.203 197.089C788.256 197.099 788.311 197.098 788.363 197.087L795.362 195.677L809.039 192.121H809.158L815.789 188.151L826.073 191.007C826.185 191.048 826.306 191.048 826.417 191.007L832.87 187.274L843.084 192.785C843.15 192.82 843.223 192.839 843.297 192.839C843.372 192.839 843.445 192.82 843.511 192.785L850.023 189.229L850.13 189.146L856.725 182.035L862.965 178.16L869.015 176.856C869.075 176.845 869.131 176.82 869.181 176.785L874.863 172.743L878.422 171.368L880.118 170.894L882.609 170.077L883.332 169.697H883.973L887.022 168.749L889.572 168.642L889.667 167.694ZM92.5243 240.607L76.273 254.273L59.4998 262.699L52.5248 258.267L44.3043 235.843L36.6057 221.526L29.4171 212.637L21.7541 193.235L37.2344 168.263L52.9518 149.608L69.0489 141.312L84.5647 127.741L84.6477 127.635L99.3806 104.18L114.054 85.3827L128.811 73.6492L135.928 72.7366C136.01 72.7225 136.087 72.6901 136.154 72.6418L144.671 65.9099L150.531 60.9321L153.662 58.7751L156.497 56.0965L161.076 52.7069L165.18 49.6135L171.384 48.938L157.767 63.504L143.603 87.4449L128.657 98.4316C128.583 98.4814 128.525 98.5514 128.491 98.6331L114.564 137.045L99.9738 165.111L84.6359 184.074C84.5881 184.133 84.5555 184.202 84.541 184.277C84.5266 184.351 84.5306 184.428 84.5528 184.5L93.0343 209.78L100.923 222.509C100.965 222.569 101.017 222.622 101.077 222.664L108.194 226.978L92.5243 240.607ZM108.859 226.385L101.599 221.964L93.8528 209.413L85.49 184.465L100.721 165.608L115.395 137.413L129.297 99.0835L144.208 88.1205C144.256 88.0857 144.297 88.0413 144.327 87.9901L158.49 64.0492L172.523 49.0209L180.151 56.9854L189 84.4582L197.683 106.977L183.508 126.497L169.071 148.115L154.244 167.848L139.973 202.065L124.552 214.272L108.859 226.385ZM206.188 116.008L215.109 139.712L201.052 163.167L186.034 168.666C185.941 168.698 185.861 168.76 185.809 168.844L171.159 192.583L155.987 209.176L148.324 210.954L132.346 215.766C132.283 215.776 132.226 215.805 132.18 215.849L116.45 228.708L109.902 226.741L125.062 214.995L140.614 202.646C140.677 202.601 140.726 202.539 140.756 202.468L155.05 168.263L169.831 148.613L184.279 126.983L198.264 107.712L206.188 116.008ZM332.355 58.218C332.317 58.2521 332.285 58.2921 332.26 58.3365L320.279 80.1322C320.238 80.2349 320.238 80.3496 320.279 80.4522L329.461 122.858L317.195 134.509L304.669 139.25L291.881 135.86L282.973 109.051C282.952 108.981 282.914 108.917 282.862 108.865C282.81 108.813 282.746 108.775 282.676 108.755L269.343 104.832L255.31 87.0538C255.236 86.9629 255.13 86.9036 255.013 86.8879L241.016 84.9915C240.924 84.957 240.823 84.957 240.731 84.9915L226.9 93.2879L212.523 92.5649C212.396 92.5673 212.275 92.6134 212.179 92.6953L198.395 106.171L189.866 84.1145L181.005 56.5588C180.981 56.4969 180.944 56.4405 180.898 56.3928L173.188 48.3335L186.983 34.7868L201.443 25.0089L207.197 27.2016L221.135 31.5512L228.643 37.0149C228.709 37.0492 228.783 37.0671 228.857 37.0671C228.931 37.0671 229.005 37.0492 229.071 37.0149L248.264 29.6312L250.517 30.1882C250.6 30.2109 250.688 30.2096 250.77 30.1844C250.851 30.1592 250.925 30.1112 250.98 30.046L256.306 24.2267L261.205 19.2133L268.169 12.6474L275.452 12.0548L283.091 14.603C283.169 14.626 283.251 14.626 283.328 14.603L291.027 12.8133L303.043 11.4859L310.861 16.2267L319.164 29.9512L319.295 30.0816L327.598 36.0075L335.902 40.3216L344.087 47.4328L332.355 58.218ZM368.535 56.061C368.601 56.0963 368.674 56.1147 368.748 56.1147C368.823 56.1147 368.896 56.0963 368.962 56.061L380.457 48.7128L391.737 43.2846L402.615 43.1779L411.322 55.6225L422.378 65.4122C422.445 65.4604 422.522 65.4928 422.603 65.507L431.535 67.107L439.744 66.6329L429.127 89.5782L418.06 108.541L406.874 122.1L395.403 124.956L385.32 129.768L383.612 129.235L375.308 111.895L366.222 79.1841L357.562 51.1898L368.535 56.061ZM449.198 79.8834L458.415 99.3442C458.46 99.4406 458.535 99.5197 458.629 99.5694L468.118 104.144L477.407 106.823L486.896 135.196C486.918 135.278 486.969 135.35 487.039 135.398L496.849 143.694L506.671 149.94L514.31 164.032L504.714 182.26L499.364 195.297L485.461 197.17L478.628 196.21L478.047 196.151L467.158 197.324C467.094 197.335 467.033 197.359 466.98 197.395L460.444 201.472L441.784 206.355L439.329 207.256L431.974 210.397L428.748 212.412L421.334 213.846L411.346 215.896L409.341 216.323L405.023 216.986L404.845 217.058L401.287 219.345L400.433 219.416L391.299 202.337L385.071 194.8L382.461 190.604L378.665 179.451L369.33 147.451L381.583 129.768C381.619 129.717 381.643 129.659 381.655 129.598C381.668 129.536 381.667 129.474 381.655 129.413C381.625 129.29 381.548 129.184 381.441 129.116L380.812 128.749L372.236 125.691L363.256 103.86L354.146 72.1085L345.487 48.0846L356.518 50.7158L365.356 79.4448L374.466 112.215L382.888 129.768C382.915 129.826 382.953 129.877 382.999 129.92C383.046 129.963 383.101 129.996 383.161 130.017L385.225 130.645C385.275 130.668 385.33 130.681 385.385 130.681C385.441 130.681 385.495 130.668 385.545 130.645L395.735 125.798L407.265 122.941C407.361 122.914 407.447 122.86 407.514 122.787L418.831 109.075L429.958 89.9456L440.634 66.9885L449.198 79.8834Z" fill="#40AE39"/>
<path d="M184.754 202.468L180.081 195.202C180.024 195.111 179.935 195.043 179.832 195.013L171.742 192.5L163.557 183.339L155.087 167.777L146.783 152.263L137.97 123.901L129.381 98.6447C129.37 98.5957 129.345 98.5507 129.31 98.5143L121.517 88.3572C121.474 88.3047 121.422 88.2606 121.363 88.2269L114.067 84.6713L106.76 78.8875C106.706 78.8445 106.642 78.8147 106.574 78.8003C106.506 78.7859 106.436 78.7874 106.369 78.8046L99.5124 80.4757H99.3937L84.4117 88.772L68.9908 101.347L55.9423 111.291L53.0361 114.183L47.1643 117.975L41.1738 123.996L25.3022 128.215C25.2509 128.236 25.2029 128.264 25.1598 128.298L9.3949 140.055L0 143.741V144.725L9.78635 140.873H9.89311L25.6462 129.175L41.5179 124.885C41.5956 124.867 41.666 124.825 41.7195 124.766L47.7218 118.734L53.5818 114.929L56.5473 111.99L69.5958 102.082L84.5541 89.8032L99.7852 81.3172L106.369 79.7053L113.628 85.4061L120.9 88.9617L128.587 98.9647L137.151 124.138L145.989 152.583L154.292 168.168L162.821 183.825L171.125 193.164C171.177 193.227 171.247 193.272 171.326 193.294L179.381 195.795L183.96 202.906C184.027 203.005 184.13 203.074 184.248 203.098C184.365 203.122 184.487 203.1 184.588 203.037C184.68 202.978 184.748 202.888 184.778 202.783C184.809 202.679 184.8 202.566 184.754 202.468Z" fill="#40AE39"/>
<path d="M109.216 190.272L100.758 165.324L92.2289 137.52C92.2172 137.471 92.1926 137.426 92.1578 137.389L84.6727 127.244L76.9385 111.659L69.6314 101.561C69.5982 101.511 69.5552 101.469 69.5051 101.437C69.455 101.404 69.3988 101.382 69.34 101.372C69.2812 101.362 69.2209 101.364 69.1629 101.378C69.1049 101.393 69.0504 101.418 69.0027 101.454C68.9068 101.527 68.8424 101.634 68.8225 101.753C68.8027 101.872 68.8289 101.994 68.8959 102.094L76.1675 112.133L83.9135 127.718L91.3867 137.863L99.8919 165.597L108.279 190.391L93.1423 209.176L76.9504 215.742C76.9027 215.763 76.8587 215.791 76.8199 215.825L60.6754 229.846L43.8191 235.606L26.3342 239.233H26.2156L8.68316 248.122L0 252.661V253.68L9.08648 248.939L26.5714 240.11L44.0564 236.436L61.055 230.628C61.1084 230.613 61.1573 230.584 61.1973 230.545L77.3537 216.513L93.5931 209.935C93.6622 209.901 93.7229 209.852 93.771 209.793L109.192 190.664C109.224 190.604 109.242 190.538 109.246 190.471C109.25 190.403 109.24 190.336 109.216 190.272Z" fill="#40AE39"/>
<path d="M80.2234 93.0271C80.1553 93.029 80.0876 93.015 80.0259 92.9862C79.9641 92.9574 79.9099 92.9146 79.8675 92.8612C79.8295 92.8148 79.8012 92.7613 79.7841 92.7037C79.7671 92.6462 79.7618 92.5859 79.7684 92.5263C79.775 92.4666 79.7935 92.4089 79.8227 92.3566C79.852 92.3042 79.8914 92.2582 79.9387 92.2212L83.2127 89.6375L83.4144 89.0212C83.43 88.9642 83.4584 88.9116 83.4974 88.8671L92.7499 78.2833C92.791 78.2396 92.8406 78.2047 92.8957 78.1808C92.9508 78.157 93.0102 78.1447 93.0702 78.1447C93.1303 78.1447 93.1897 78.157 93.2448 78.1808C93.2998 78.2047 93.3495 78.2396 93.3905 78.2833C93.4328 78.3252 93.4664 78.3751 93.4893 78.43C93.5123 78.4849 93.5241 78.5438 93.5241 78.6034C93.5241 78.6629 93.5123 78.7218 93.4893 78.7767C93.4664 78.8316 93.4328 78.8815 93.3905 78.9234L84.221 89.4716L84.0075 90.1353C83.9699 90.2252 83.9083 90.303 83.8295 90.3605L83.0466 90.9293L80.4725 93.0034C80.3931 93.0335 80.3071 93.0417 80.2234 93.0271Z" fill="#40AE39"/>
<path d="M299.337 67.5572C299.249 67.5574 299.162 67.5317 299.089 67.4832C299.015 67.4348 298.957 67.3657 298.922 67.2846L290.346 47.4089L282.327 44.3156L276.621 40.2504L270.868 36.043L269.136 34.8578C269.035 34.7921 268.964 34.6898 268.937 34.5725C268.911 34.4553 268.931 34.3322 268.994 34.2296C269.025 34.1782 269.066 34.1337 269.116 34.099C269.165 34.0643 269.221 34.0401 269.28 34.0278C269.339 34.0156 269.399 34.0156 269.458 34.0279C269.517 34.0402 269.573 34.0645 269.622 34.0992L271.378 35.2844L277.143 39.5156L282.754 43.5215L290.808 46.6267C290.866 46.6454 290.919 46.6762 290.964 46.7171C291.009 46.7579 291.045 46.808 291.069 46.8638L299.752 66.9528C299.784 67.0219 299.799 67.098 299.793 67.174C299.788 67.2501 299.763 67.3235 299.722 67.3874C299.68 67.4514 299.623 67.5037 299.556 67.5397C299.489 67.5756 299.413 67.5939 299.337 67.5928V67.5572Z" fill="#40AE39"/>
<path d="M294.926 48.4049H294.831L292.459 47.8952L289.434 46.8048L277.785 39.9544C277.733 39.9251 277.688 39.8856 277.652 39.8383C277.616 39.791 277.59 39.7369 277.576 39.6793C277.561 39.6217 277.559 39.5617 277.568 39.503C277.578 39.4444 277.599 39.3883 277.631 39.3381C277.659 39.2855 277.698 39.2391 277.745 39.202C277.792 39.1649 277.846 39.1377 277.903 39.1221C277.961 39.1066 278.021 39.103 278.081 39.1116C278.14 39.1202 278.197 39.1408 278.248 39.1722L289.813 45.9752L292.708 46.9945L295.08 47.4922C295.138 47.5034 295.194 47.5263 295.243 47.5595C295.292 47.5927 295.334 47.6355 295.366 47.6854C295.398 47.7352 295.42 47.7911 295.43 47.8496C295.44 47.908 295.438 47.9679 295.424 48.0256C295.406 48.141 295.345 48.245 295.252 48.3158C295.159 48.3865 295.042 48.4185 294.926 48.4049Z" fill="#40AE39"/>
<path d="M313.565 157.928C313.449 157.942 313.332 157.911 313.239 157.841C313.145 157.771 313.083 157.667 313.064 157.552C313.046 157.437 313.073 157.319 313.14 157.223C313.207 157.128 313.308 157.062 313.423 157.039L327.657 152.298L338.25 135.99L350.397 118.212L362.473 103.694C362.551 103.603 362.662 103.546 362.781 103.535C362.901 103.523 363.02 103.559 363.114 103.634C363.205 103.715 363.263 103.827 363.274 103.948C363.285 104.07 363.249 104.191 363.173 104.286L351.121 118.722L339.01 136.5L328.334 152.926C328.309 152.971 328.274 153.01 328.234 153.04C328.193 153.071 328.146 153.093 328.096 153.104L313.684 157.916L313.565 157.928Z" fill="#40AE39"/>
<path d="M128.743 58.254C128.681 58.2544 128.62 58.242 128.562 58.2176C128.505 58.1931 128.454 58.157 128.411 58.1117C128.328 58.0237 128.281 57.9071 128.281 57.7858C128.281 57.6646 128.328 57.5479 128.411 57.4599L133.631 52.6243L135.635 49.0687C135.666 49.0042 135.716 48.9505 135.778 48.9146L142.622 44.2924C142.695 44.2407 142.782 44.2118 142.871 44.2094L157.331 43.8657C157.416 43.8655 157.498 43.8902 157.569 43.9368L162.159 46.6035C162.262 46.6674 162.336 46.768 162.367 46.8847C162.398 47.0014 162.383 47.1255 162.325 47.2317C162.263 47.3364 162.163 47.4125 162.045 47.4436C161.927 47.4747 161.802 47.4581 161.697 47.3976L157.225 44.7902L142.99 45.122L136.347 49.6021L134.354 53.1576L134.271 53.2643L129.004 58.1473C128.931 58.2091 128.839 58.2464 128.743 58.254Z" fill="#40AE39"/>
<path d="M423.613 149.81C423.55 149.811 423.487 149.798 423.429 149.771C423.372 149.745 423.321 149.705 423.281 149.656L415.915 141.288C415.891 141.26 415.871 141.228 415.856 141.193L406.757 122.716L397.683 95.9547L388.655 64.4996L379.901 48.4758L371.289 33.2343L362.855 25.7675L354.67 21.5246L353.045 21.1572C352.964 21.1463 352.889 21.1088 352.831 21.0505L349.866 18.3245L345.548 19.4386C345.478 19.4567 345.405 19.4567 345.334 19.4386L334.931 17.0682L331.705 17.1393C331.617 17.1375 331.531 17.113 331.456 17.0682L331.207 16.9142L323.093 16.9853L311.385 16.3808L299.523 26.2298L287.328 37.3232C287.279 37.3707 287.217 37.4036 287.15 37.418L278.111 40.0017C278.008 40.0432 277.894 40.0432 277.791 40.0017L270.591 36.5647C270.532 36.5403 270.48 36.504 270.436 36.458L269.155 34.9528L252.109 30.7098L250.176 30.8046C250.097 30.8168 250.017 30.8168 249.938 30.8046L248.017 29.7261C247.913 29.6663 247.836 29.5687 247.803 29.4538C247.77 29.3389 247.783 29.2156 247.839 29.1098C247.867 29.0574 247.906 29.0111 247.952 28.9737C247.999 28.9363 248.053 28.9085 248.11 28.892C248.167 28.8754 248.227 28.8705 248.287 28.8773C248.346 28.8842 248.403 28.9028 248.456 28.932L250.259 29.9394L252.133 29.8565H252.263L269.511 34.1587C269.603 34.1793 269.687 34.2292 269.748 34.3009L271.065 35.8417L278.028 39.1602L286.806 36.6595L298.929 25.6016L310.946 15.6223C311.035 15.5466 311.15 15.5084 311.266 15.5156L323.128 16.1319L331.349 16.0608C331.433 16.0606 331.516 16.0853 331.586 16.1319L331.835 16.286H335.038L337.031 16.7127L345.441 18.5853L349.89 17.4001C349.962 17.382 350.038 17.3823 350.111 17.401C350.183 17.4196 350.25 17.4559 350.305 17.5068L353.365 20.3157L354.943 20.6712H355.05L363.353 25.009L371.93 32.5943C371.968 32.6283 372 32.6683 372.025 32.7128L380.684 47.9899L389.486 64.1204L398.537 95.6465L407.588 122.325L416.638 140.696L423.957 148.992C424.044 149.079 424.092 149.196 424.092 149.318C424.092 149.44 424.044 149.557 423.957 149.644C423.916 149.695 423.863 149.736 423.804 149.765C423.744 149.794 423.679 149.809 423.613 149.81Z" fill="#40AE39"/>
<path d="M175.444 111.469C175.356 111.466 175.271 111.439 175.197 111.391C175.124 111.343 175.066 111.276 175.028 111.196L166.547 92.3161L157.769 64.073L150.533 61.1693L143.534 64.796L128.825 73.6138C128.774 73.6451 128.717 73.6658 128.658 73.6744C128.599 73.683 128.539 73.6794 128.481 73.6639C128.423 73.6483 128.369 73.6211 128.322 73.584C128.275 73.5469 128.236 73.5005 128.208 73.4479C128.147 73.3456 128.129 73.2234 128.158 73.1079C128.187 72.9924 128.26 72.8931 128.362 72.8316L143.095 64.0019L150.319 60.2567C150.379 60.2306 150.444 60.2171 150.509 60.2171C150.574 60.2171 150.639 60.2306 150.699 60.2567L158.315 63.3263C158.378 63.3507 158.436 63.3889 158.483 63.4381C158.53 63.4872 158.566 63.5462 158.587 63.6108L167.354 92.0554L175.859 110.805C175.885 110.86 175.899 110.918 175.902 110.979C175.904 111.039 175.895 111.099 175.874 111.155C175.853 111.211 175.821 111.263 175.779 111.307C175.738 111.35 175.688 111.385 175.633 111.41C175.577 111.446 175.511 111.466 175.444 111.469Z" fill="#40AE39"/>
<path d="M252.216 82.8701C252.121 82.87 252.029 82.8401 251.952 82.7848C251.876 82.7295 251.819 82.6516 251.789 82.5619L243.07 55.5751L234.873 41.6017L228.61 37.0506C228.561 37.0154 228.519 36.9707 228.488 36.9192C228.456 36.8676 228.436 36.8103 228.427 36.7506C228.418 36.6909 228.421 36.6301 228.436 36.5716C228.451 36.5132 228.478 36.4584 228.515 36.4105C228.549 36.3619 228.593 36.3207 228.643 36.2894C228.694 36.2581 228.75 36.2373 228.809 36.2285C228.868 36.2196 228.928 36.2228 228.985 36.2378C229.043 36.2528 229.097 36.2793 229.144 36.3157L235.478 40.9143C235.53 40.95 235.571 40.9991 235.597 41.0565L243.9 55.2077L252.666 82.2775C252.687 82.3334 252.695 82.3929 252.692 82.4523C252.689 82.5117 252.673 82.5698 252.646 82.623C252.62 82.6763 252.583 82.7235 252.537 82.7619C252.492 82.8003 252.439 82.8291 252.382 82.8464C252.33 82.8701 252.272 82.8783 252.216 82.8701Z" fill="#40AE39"/>
<path d="M285.051 156.234C284.956 156.232 284.865 156.202 284.789 156.146C284.712 156.091 284.655 156.014 284.623 155.926L277.767 137.069L268.645 105.318L260.08 87.5401L248.064 82.906H247.957L238.183 75.8778L236.914 75.06L232.169 71.5044C232.113 71.4646 232.068 71.4117 232.038 71.3504L223.485 54.8644L214.862 31.0538L201.196 24.9501L192.727 20.2093C192.675 20.1798 192.63 20.1405 192.594 20.0935C192.558 20.0465 192.531 19.9929 192.516 19.9356C192.5 19.8784 192.496 19.8186 192.504 19.7598C192.512 19.701 192.531 19.6443 192.561 19.593C192.587 19.5397 192.623 19.4925 192.669 19.4542C192.714 19.416 192.767 19.3876 192.824 19.3709C192.881 19.3541 192.941 19.3494 192.999 19.3571C193.058 19.3647 193.115 19.3845 193.166 19.4152L201.6 24.156L215.407 30.3072C215.518 30.3594 215.603 30.4531 215.645 30.5679L224.304 54.5088L232.75 70.817L237.424 74.2541L238.681 75.0719L248.432 82.0645L260.567 86.7342C260.678 86.7772 260.768 86.8624 260.816 86.9712L269.487 105.01L278.633 136.797L285.478 155.629C285.498 155.685 285.508 155.745 285.505 155.805C285.503 155.864 285.488 155.923 285.463 155.977C285.437 156.031 285.401 156.079 285.357 156.119C285.313 156.159 285.261 156.19 285.205 156.21C285.156 156.23 285.103 156.238 285.051 156.234Z" fill="#40AE39"/>
<path d="M261.068 32.9021C260.985 32.9044 260.902 32.8833 260.83 32.8412C260.757 32.7991 260.698 32.7377 260.659 32.6638C260.619 32.59 260.601 32.5066 260.606 32.4231C260.612 32.3396 260.64 32.2592 260.689 32.191L263.666 27.628L270.629 18.8102C270.665 18.762 270.711 18.7216 270.763 18.6913C270.815 18.661 270.872 18.6414 270.932 18.6336C270.992 18.6259 271.052 18.6302 271.111 18.6463C271.169 18.6623 271.223 18.6898 271.27 18.7272C271.363 18.8037 271.422 18.9133 271.435 19.0328C271.449 19.1522 271.415 19.2722 271.341 19.3672L264.402 28.1613L261.448 32.7006C261.405 32.7617 261.348 32.8118 261.282 32.8468C261.216 32.8818 261.143 32.9007 261.068 32.9021Z" fill="#40AE39"/>
<path d="M235.184 68.6123C235.118 68.6123 235.053 68.5974 234.993 68.5687C234.934 68.54 234.881 68.4982 234.84 68.4464L223.535 54.947C223.46 54.8535 223.424 54.7345 223.436 54.6151C223.447 54.4956 223.504 54.3852 223.595 54.307C223.637 54.2648 223.687 54.2312 223.742 54.2083C223.797 54.1854 223.855 54.1736 223.915 54.1736C223.975 54.1736 224.034 54.1854 224.089 54.2083C224.144 54.2312 224.193 54.2648 224.235 54.307L235.528 67.8182C235.567 67.8639 235.596 67.9169 235.614 67.9739C235.632 68.031 235.638 68.0911 235.633 68.1507C235.627 68.2103 235.61 68.2681 235.582 68.321C235.554 68.3738 235.515 68.4204 235.469 68.4583C235.396 68.5431 235.295 68.598 235.184 68.6123Z" fill="#40AE39"/>
<path d="M161.329 52.2446C161.221 52.2412 161.117 52.2039 161.032 52.1379C160.949 52.0499 160.902 51.9333 160.902 51.812C160.902 51.6908 160.949 51.5741 161.032 51.4861L171.53 39.3497L178.648 31.3971C178.69 31.3548 178.739 31.3212 178.794 31.2983C178.849 31.2754 178.908 31.2636 178.968 31.2636C179.028 31.2636 179.087 31.2754 179.141 31.2983C179.196 31.3212 179.246 31.3548 179.288 31.3971C179.332 31.4381 179.367 31.4877 179.391 31.5427C179.415 31.5977 179.427 31.6571 179.427 31.7171C179.427 31.7771 179.415 31.8364 179.391 31.8915C179.367 31.9465 179.332 31.9961 179.288 32.0371L172.1 40.0253L161.602 52.1617C161.523 52.2197 161.427 52.249 161.329 52.2446Z" fill="#40AE39"/>
<path d="M303.14 11.569C303.048 11.5677 302.959 11.5384 302.884 11.485C302.809 11.4317 302.753 11.3569 302.722 11.2705C302.691 11.1842 302.687 11.0905 302.711 11.0019C302.735 10.9134 302.785 10.8342 302.855 10.7749L314.646 0.748166C314.692 0.710034 314.745 0.681316 314.802 0.663657C314.859 0.645998 314.919 0.639744 314.978 0.645247C315.038 0.65075 315.096 0.667903 315.149 0.69573C315.201 0.723557 315.248 0.761515 315.286 0.80743C315.325 0.853344 315.353 0.906316 315.371 0.963328C315.389 1.02034 315.395 1.08027 315.389 1.1397C315.384 1.19913 315.367 1.25689 315.339 1.30969C315.311 1.36249 315.273 1.4093 315.227 1.44743L303.436 11.4623C303.353 11.5324 303.248 11.5702 303.14 11.569Z" fill="#40AE39"/>
<path d="M250.531 30.2713C250.417 30.2734 250.306 30.2309 250.223 30.1527C250.14 30.0667 250.094 29.952 250.094 29.8327C250.094 29.7135 250.14 29.5988 250.223 29.5127L250.602 29.0979C250.648 29.0546 250.7 29.0186 250.756 28.9913L250.899 28.932H251.017L263.817 27.4742L270.365 18.5971L275.11 11.486L275.204 11.3793L287.067 1.89776C287.161 1.82232 287.282 1.78742 287.402 1.80076C287.522 1.8141 287.632 1.87457 287.707 1.96887C287.783 2.06317 287.818 2.18357 287.804 2.30359C287.791 2.42362 287.73 2.53343 287.636 2.60887L275.774 12.0193L271.029 19.1304L264.35 28.1853C264.313 28.2363 264.265 28.2785 264.21 28.3092C264.155 28.3399 264.093 28.3583 264.03 28.3631L251.112 29.8327L250.804 30.1646C250.727 30.2288 250.631 30.2662 250.531 30.2713Z" fill="#40AE39"/>
<path d="M193.355 19.5452C193.313 19.5029 193.263 19.4694 193.208 19.4464C193.153 19.4235 193.094 19.4117 193.034 19.4117C192.975 19.4117 192.916 19.4235 192.861 19.4464C192.806 19.4694 192.756 19.5029 192.714 19.5452L178.633 31.3971L164.731 48.8195L160.52 52.0076L156.854 55.0891L156.178 55.2788L150.532 55.101L135.74 55.2195H135.621L128.61 57.3528C128.526 57.3773 128.452 57.4269 128.397 57.4951L120.758 66.4077L120.508 66.7277C120.413 66.7381 120.323 66.775 120.248 66.8344L117.436 69.3944L109.868 75.7945L108.931 76.233L105.574 78.4137C105.478 78.4771 105.41 78.5746 105.384 78.6863L105.088 79.8715L91.1851 93.5842L76.2979 111.481L60.4974 117.667C60.435 117.696 60.3786 117.736 60.3314 117.786L44.8155 134.781L29.1455 154.349L13.5941 178.42L0 184.56V185.555L14.0923 179.191C14.1685 179.152 14.2338 179.095 14.2821 179.025L29.8691 154.882L45.5036 135.374L60.9245 118.485L76.6894 112.287C76.76 112.261 76.8218 112.216 76.8673 112.156L91.8493 94.2123L105.847 80.476C105.904 80.4118 105.945 80.3345 105.965 80.2508L106.25 79.0656L109.299 77.0152L110.236 76.5885C110.276 76.5733 110.313 76.5489 110.343 76.5174L117.97 70.07L120.342 67.9248L120.698 67.6285H120.817L120.983 67.5337C121.04 67.5123 121.089 67.4753 121.125 67.427L128.978 58.2299L135.787 56.1558L150.496 56.0373L156.202 56.2151H156.332L157.163 55.9899C157.224 55.9702 157.281 55.9379 157.329 55.8951L161.054 52.7662L165.336 49.5187L179.25 32.0727L193.212 20.2208C193.272 20.1914 193.324 20.1489 193.365 20.0963C193.406 20.0438 193.434 19.9827 193.448 19.9176C193.462 19.8525 193.46 19.7852 193.444 19.7206C193.428 19.6561 193.397 19.5961 193.355 19.5452Z" fill="#40AE39"/>
<path d="M211.957 187.428H211.874L203.297 185.84C203.22 185.825 203.147 185.793 203.084 185.745L194.472 178.361L185.896 169.401L177.485 160.085L169.099 148.672L160.51 129.899L152.053 110.604L143.535 87.9191L135.457 72.5116C135.405 72.4039 135.396 72.2806 135.431 72.1663C135.466 72.052 135.543 71.9552 135.647 71.8953C135.7 71.8665 135.758 71.8486 135.818 71.8426C135.878 71.8366 135.938 71.8426 135.995 71.8602C136.053 71.8779 136.106 71.9069 136.152 71.9455C136.199 71.9841 136.236 72.0315 136.264 72.085L144.354 87.5636L152.871 110.224L161.329 129.472L169.858 148.162L178.161 159.457L186.536 168.737L195.065 177.65L203.558 184.963L211.862 186.492L226.939 179.937L241.577 163.641C241.671 163.552 241.792 163.498 241.921 163.487L254.293 163.748L256.132 162.752L259.335 159.623C259.399 159.566 259.476 159.525 259.56 159.505L268.753 157.466C268.812 157.452 268.872 157.45 268.932 157.46C268.991 157.47 269.048 157.491 269.099 157.523C269.149 157.555 269.193 157.597 269.228 157.646C269.262 157.696 269.286 157.751 269.299 157.81C269.321 157.927 269.298 158.049 269.234 158.15C269.17 158.251 269.07 158.324 268.955 158.355L259.88 160.37L256.713 163.44C256.687 163.473 256.655 163.501 256.618 163.523L254.613 164.613C254.541 164.639 254.461 164.639 254.388 164.613L242.111 164.352L227.579 180.613C227.542 180.668 227.488 180.71 227.425 180.732L212.135 187.392L211.957 187.428Z" fill="#40AE39"/>
<path d="M143.361 64.8549C143.287 64.8535 143.213 64.8346 143.147 64.7995C143.081 64.7645 143.025 64.7144 142.982 64.6534C142.948 64.6044 142.924 64.5493 142.912 64.4912C142.9 64.433 142.899 64.373 142.91 64.3146C142.921 64.2562 142.944 64.2006 142.976 64.1509C143.009 64.1013 143.051 64.0585 143.1 64.0252L155.39 55.3378C155.438 55.3025 155.493 55.2775 155.552 55.2643C155.61 55.2511 155.671 55.25 155.73 55.2611C155.789 55.2722 155.845 55.2953 155.894 55.3289C155.944 55.3624 155.986 55.4058 156.018 55.4563C156.053 55.5045 156.077 55.5591 156.09 55.6167C156.103 55.6744 156.105 55.7341 156.095 55.7925C156.085 55.8508 156.064 55.9066 156.032 55.9567C156.001 56.0068 155.96 56.0502 155.912 56.0844L143.563 64.7719C143.503 64.8148 143.434 64.8432 143.361 64.8549Z" fill="#40AE39"/>
<path d="M72.9053 98.4437C72.8643 98.4 72.8147 98.3651 72.7596 98.3412C72.7045 98.3173 72.6451 98.3051 72.5851 98.3051C72.525 98.3051 72.4656 98.3173 72.4105 98.3412C72.3554 98.3651 72.3058 98.4 72.2648 98.4437L71.3751 99.2852L68.9078 101.324L64.0561 105.045L63.0834 105.602L52.4904 106.882C52.4091 106.896 52.332 106.929 52.265 106.977L38.4337 117.916L24.4362 126.687L18.9796 124.008C18.9095 123.991 18.8362 123.991 18.7661 124.008L17.0935 124.068C17.0194 124.05 16.9422 124.05 16.8681 124.068L13.0959 126.438L8.65944 129.899L0 136.88V138.065L7.91212 131.605L13.5467 127.137L17.1765 124.897H18.6237L24.2701 127.682C24.3372 127.72 24.4128 127.739 24.4896 127.739C24.5664 127.739 24.642 127.72 24.7091 127.682L38.9437 118.758L52.7039 107.819L63.2495 106.539H63.4155L64.2934 106.053L69.4534 102.094L71.9564 100.032L72.8698 99.1786C72.9306 99.1399 72.9813 99.0871 73.0175 99.0248C73.0538 98.9625 73.0745 98.8924 73.078 98.8204C73.0815 98.7484 73.0676 98.6766 73.0376 98.611C73.0075 98.5455 72.9622 98.4881 72.9053 98.4437Z" fill="#40AE39"/>
<path d="M150.531 56.0019C150.461 56.0001 150.392 55.982 150.331 55.9491C150.269 55.9162 150.216 55.8694 150.175 55.8123C150.138 55.7644 150.112 55.7096 150.096 55.6512C150.081 55.5928 150.078 55.5319 150.087 55.4722C150.096 55.4125 150.117 55.3552 150.148 55.3037C150.179 55.2522 150.221 55.2075 150.27 55.1723L171.515 39.2789C171.562 39.2424 171.616 39.2159 171.674 39.2009C171.731 39.1859 171.791 39.1828 171.85 39.1916C171.909 39.2005 171.965 39.2212 172.016 39.2525C172.066 39.2838 172.11 39.325 172.144 39.3737C172.215 39.4715 172.245 39.5934 172.227 39.713C172.21 39.8327 172.146 39.9406 172.049 40.0137L150.804 55.9071C150.725 55.9663 150.63 55.9994 150.531 56.0019Z" fill="#40AE39"/>
<path d="M235.252 41.7441C235.189 41.7465 235.125 41.7337 235.068 41.7069C235.01 41.6802 234.959 41.6401 234.92 41.5901C234.876 41.5491 234.841 41.4995 234.817 41.4444C234.794 41.3894 234.781 41.3301 234.781 41.2701C234.781 41.2101 234.794 41.1507 234.817 41.0957C234.841 41.0406 234.876 40.9911 234.92 40.9501L247.921 28.9085C248.011 28.8283 248.129 28.7871 248.249 28.7937C248.369 28.8004 248.481 28.8545 248.562 28.944C248.642 29.0336 248.683 29.1514 248.677 29.2714C248.67 29.3914 248.616 29.5039 248.526 29.5841L235.478 41.6256C235.417 41.6877 235.338 41.7292 235.252 41.7441Z" fill="#40AE39"/>
<path d="M25.4819 129.152C25.3943 129.149 25.309 129.123 25.2358 129.074C25.1625 129.026 25.104 128.959 25.0667 128.879C25.018 128.769 25.0144 128.644 25.0565 128.531C25.0986 128.419 25.1831 128.327 25.2921 128.275L47.3203 117.916L53.0616 114.219L54.58 113.697C54.636 113.677 54.6955 113.668 54.755 113.672C54.8144 113.675 54.8726 113.691 54.9258 113.717C54.9791 113.744 55.0264 113.781 55.0648 113.826C55.1032 113.872 55.132 113.925 55.1494 113.982C55.1874 114.096 55.1788 114.221 55.1256 114.33C55.0724 114.439 54.9787 114.522 54.8647 114.562L53.4531 115.025L47.7592 118.722L41.2587 121.768L25.6717 129.093C25.6125 129.124 25.5482 129.144 25.4819 129.152Z" fill="#40AE39"/>
<path d="M99.5717 81.3768C99.4844 81.3796 99.3982 81.3562 99.3243 81.3098C99.2503 81.2633 99.1919 81.1959 99.1565 81.116C99.1308 81.0617 99.1162 81.0028 99.1137 80.9427C99.1111 80.8826 99.1206 80.8227 99.1416 80.7663C99.1626 80.71 99.1947 80.6585 99.236 80.6147C99.2772 80.571 99.3269 80.5359 99.3819 80.5116L103.605 78.6034L104.566 77.6908L114.779 70.4256L120.295 66.87C120.325 66.8156 120.366 66.7674 120.414 66.7278L120.936 66.396L135.479 55.3026C135.525 55.2655 135.578 55.2382 135.635 55.2223C135.692 55.2064 135.752 55.2021 135.811 55.2099C135.87 55.2176 135.926 55.2372 135.977 55.2674C136.028 55.2976 136.072 55.3378 136.107 55.3855C136.145 55.4327 136.172 55.4868 136.188 55.5448C136.204 55.6028 136.209 55.6634 136.201 55.723C136.193 55.7827 136.174 55.8402 136.143 55.8922C136.113 55.9441 136.073 55.9894 136.024 56.0255L120.995 67.4389C120.965 67.4836 120.929 67.5235 120.888 67.5574L120.342 67.9486L115.277 71.1841L105.135 78.402L104.174 79.3146L104.044 79.3975L99.7496 81.3412C99.6932 81.3644 99.6327 81.3765 99.5717 81.3768Z" fill="#40AE39"/>
</g>
</svg>
