<svg width="30" height="30" viewBox="0 0 30 30" fill="none" xmlns="http://www.w3.org/2000/svg">
<mask id="mask0_865_17192" style="mask-type:luminance" maskUnits="userSpaceOnUse" x="0" y="0" width="30" height="30">
<path d="M28 28V2H2V28H28Z" fill="white" stroke="white" stroke-width="4"/>
</mask>
<g mask="url(#mask0_865_17192)">
<path d="M17.8709 1.35034C15.835 1.34892 13.8403 1.9244 12.118 3.01011C10.3957 4.09582 9.01634 5.64732 8.13965 7.48483C7.26295 9.32235 6.92486 11.3707 7.16455 13.3924C7.40423 15.4142 8.21188 17.3267 9.49391 18.9083L8.48938 19.9128C8.23569 19.6869 7.90802 19.5616 7.56828 19.5608H7.55844C7.37192 19.5615 7.18744 19.5996 7.01588 19.6728C6.84432 19.746 6.68915 19.8528 6.55953 19.9869L1.35547 25.3419L4.66109 28.6466L10.0156 23.4435C10.2746 23.1934 10.4268 22.8529 10.4406 22.4932C10.4544 22.1335 10.3287 21.7823 10.0897 21.5132L11.0942 20.5086C12.4351 21.5933 14.0166 22.3404 15.7061 22.6871C17.3955 23.0339 19.1435 22.9701 20.8032 22.5013C22.4629 22.0324 23.9859 21.1722 25.2442 19.9927C26.5025 18.8132 27.4594 17.3491 28.0345 15.7231C28.6097 14.0972 28.7862 12.357 28.5494 10.6487C28.3126 8.94034 27.6693 7.31379 26.6735 5.90564C25.6777 4.49748 24.3586 3.34884 22.8269 2.55618C21.2952 1.76353 19.5956 1.35 17.8709 1.35034ZM9.36219 22.7722L4.67 27.3303L2.67219 25.3325L7.23031 20.6403C7.27378 20.596 7.32563 20.5607 7.38284 20.5366C7.44006 20.5124 7.5015 20.4999 7.56359 20.4997C7.62607 20.4964 7.68852 20.5069 7.74641 20.5307C7.80429 20.5544 7.85617 20.5908 7.89828 20.6371L9.36547 22.1042C9.40945 22.1482 9.44426 22.2004 9.46787 22.2579C9.49148 22.3154 9.50341 22.3771 9.50297 22.4392C9.50253 22.5014 9.48974 22.5628 9.46533 22.62C9.44092 22.6772 9.40538 22.7289 9.36078 22.7722H9.36219ZM9.43344 20.8438L9.15875 20.5691L10.1169 19.611C10.2069 19.7047 10.2984 19.7963 10.3916 19.8857L9.43344 20.8438ZM17.8709 21.9753C15.924 21.9753 14.0208 21.398 12.402 20.3164C10.7832 19.2347 9.52155 17.6973 8.7765 15.8986C8.03145 14.0999 7.83651 12.1207 8.21633 10.2112C8.59616 8.30167 9.53368 6.54769 10.9104 5.17101C12.287 3.79434 14.041 2.85681 15.9505 2.47699C17.86 2.09717 19.8393 2.29211 21.638 3.03716C23.4367 3.78221 24.9741 5.0439 26.0557 6.6627C27.1374 8.2815 27.7147 10.1847 27.7147 12.1316C27.7117 14.7414 26.6736 17.2435 24.8282 19.0889C22.9828 20.9343 20.4807 21.9724 17.8709 21.9753Z" fill="#3B3D41"/>
<path d="M17.875 3.22534C16.1135 3.22534 14.3916 3.74768 12.927 4.72632C11.4623 5.70495 10.3208 7.09591 9.6467 8.72332C8.97261 10.3507 8.79624 12.1415 9.13989 13.8691C9.48353 15.5968 10.3318 17.1837 11.5773 18.4293C12.8229 19.6748 14.4098 20.5231 16.1375 20.8667C17.8651 21.2104 19.6559 21.034 21.2833 20.3599C22.9107 19.6858 24.3016 18.5443 25.2803 17.0796C26.2589 15.615 26.7813 13.8931 26.7813 12.1316C26.7786 9.77031 25.8395 7.50648 24.1698 5.8368C22.5001 4.16712 20.2363 3.22795 17.875 3.22534ZM17.875 20.1003C16.2989 20.1003 14.7583 19.633 13.4478 18.7574C12.1373 17.8817 11.116 16.6372 10.5128 15.1811C9.9097 13.725 9.7519 12.1228 10.0594 10.577C10.3668 9.03118 11.1258 7.61128 12.2402 6.49683C13.3547 5.38239 14.7746 4.62344 16.3204 4.31596C17.8662 4.00848 19.4684 4.16629 20.9245 4.76943C22.3806 5.37256 23.6252 6.39394 24.5008 7.70439C25.3764 9.01485 25.8438 10.5555 25.8438 12.1316C25.8414 14.2443 25.0011 16.2698 23.5072 17.7637C22.0132 19.2577 19.9877 20.098 17.875 20.1003Z" fill="#3B3D41"/>
<path d="M17.8659 7.91287C16.9123 7.91027 15.9677 8.09681 15.0866 8.4617C14.2056 8.82659 13.4057 9.36258 12.7331 10.0386L10.6406 12.1316L12.7331 14.2246C14.0945 15.5857 15.9408 16.3504 17.8659 16.3504C19.7911 16.3504 21.6374 15.5857 22.9987 14.2246L25.0912 12.1316L22.9987 10.0386C22.3262 9.36258 21.5263 8.82659 20.6452 8.4617C19.7642 8.09681 18.8195 7.91027 17.8659 7.91287ZM21.1472 12.1316C21.1472 12.7806 20.9547 13.415 20.5942 13.9546C20.2336 14.4942 19.7212 14.9147 19.1216 15.1631C18.522 15.4114 17.8623 15.4764 17.2258 15.3498C16.5893 15.2232 16.0046 14.9107 15.5457 14.4518C15.0869 13.9929 14.7743 13.4083 14.6477 12.7718C14.5211 12.1353 14.5861 11.4755 14.8345 10.8759C15.0828 10.2764 15.5034 9.76391 16.043 9.40336C16.5826 9.04281 17.217 8.85037 17.8659 8.85037C18.7359 8.85136 19.5699 9.19738 20.185 9.81252C20.8002 10.4277 21.1462 11.2617 21.1472 12.1316ZM11.9662 12.1316L13.3959 10.7015C13.6525 10.4474 13.9303 10.2157 14.2261 10.0087C13.8471 10.6519 13.6472 11.385 13.6472 12.1316C13.6472 12.8783 13.8471 13.6113 14.2261 14.2546C13.9303 14.0476 13.6525 13.8158 13.3959 13.5618L11.9662 12.1316ZM22.3359 13.5618C22.0793 13.8158 21.8016 14.0476 21.5058 14.2546C21.8848 13.6113 22.0847 12.8783 22.0847 12.1316C22.0847 11.385 21.8848 10.6519 21.5058 10.0087C21.8016 10.2157 22.0793 10.4474 22.3359 10.7015L23.7656 12.1316L22.3359 13.5618Z" fill="#3B3D41"/>
<path d="M17.875 14.4753C18.3385 14.4753 18.7917 14.3379 19.1771 14.0804C19.5625 13.8228 19.8629 13.4568 20.0403 13.0285C20.2177 12.6002 20.2641 12.129 20.1737 11.6743C20.0833 11.2197 19.8601 10.8021 19.5323 10.4743C19.2045 10.1465 18.7869 9.92331 18.3322 9.83288C17.8776 9.74244 17.4063 9.78886 16.9781 9.96625C16.5498 10.1436 16.1838 10.444 15.9262 10.8295C15.6687 11.2149 15.5312 11.668 15.5312 12.1316C15.532 12.753 15.7792 13.3487 16.2185 13.7881C16.6579 14.2274 17.2536 14.4746 17.875 14.4753ZM17.875 10.7253C18.1531 10.7253 18.425 10.8078 18.6563 10.9623C18.8875 11.1169 19.0678 11.3365 19.1742 11.5934C19.2806 11.8504 19.3085 12.1332 19.2542 12.4059C19.2 12.6787 19.066 12.9293 18.8694 13.126C18.6727 13.3226 18.4221 13.4566 18.1493 13.5108C17.8766 13.5651 17.5938 13.5372 17.3369 13.4308C17.0799 13.3244 16.8603 13.1441 16.7057 12.9129C16.5512 12.6816 16.4688 12.4097 16.4688 12.1316C16.4688 11.7586 16.6169 11.4009 16.8806 11.1372C17.1444 10.8735 17.502 10.7253 17.875 10.7253Z" fill="#3B3D41"/>
</g>
</svg>
