<svg width="182" height="166" viewBox="0 0 182 166" fill="none" xmlns="http://www.w3.org/2000/svg">
<path d="M176.152 77.2416C173.648 75.6393 170.667 74.95 167.713 75.29C164.759 75.63 162.013 76.9785 159.938 79.1079L148.594 90.4518C141.25 84.2159 134.324 77.504 127.861 70.3594C127.736 70.2246 127.666 70.0476 127.666 69.8637C127.666 69.6798 127.736 69.5028 127.861 69.368C127.937 69.2852 128.034 69.2231 128.141 69.1874C128.248 69.1517 128.362 69.1436 128.473 69.1638C133.329 70.835 138.556 71.1115 143.561 69.962C148.566 68.8126 153.149 66.2831 156.789 62.6608C159.537 60.1425 161.748 57.0944 163.288 53.6997C164.829 50.3051 165.666 46.634 165.751 42.9072C165.836 39.1805 165.166 35.4751 163.782 32.0138C162.398 28.5525 160.329 25.4069 157.698 22.7661C155.067 20.1253 151.929 18.0439 148.473 16.6469C145.017 15.25 141.314 14.5665 137.587 14.6375C133.86 14.7085 130.186 15.5325 126.785 17.06C123.385 18.5875 120.328 20.7869 117.8 23.526C116.968 24.3817 116.189 25.2874 115.467 26.238C115.083 25.0156 114.838 23.7536 114.738 22.4762C114.546 19.5486 113.725 16.6968 112.331 14.1152C110.937 11.5336 109.003 9.28287 106.66 7.51627C96.3078 -0.678133 90.6213 2.29635 84.0308 5.73741C80.4257 7.71999 76.5712 9.21076 72.5703 10.17C71.062 10.4097 69.6286 10.9917 68.3801 11.8712C67.1315 12.7508 66.1009 13.9045 65.3674 15.2441C64.3164 17.5948 64.1507 20.2462 64.9008 22.7094C59.9065 23.3799 55.2679 25.6634 51.6906 29.2125L39.0637 41.8103C37.8013 42.9711 36.785 44.3738 36.0752 45.935C35.3654 47.4962 34.9766 49.1841 34.9317 50.8985C34.8868 52.6129 35.1869 54.3189 35.814 55.9151C36.4412 57.5113 37.3827 58.9652 38.5826 60.1905C39.7825 61.4158 41.2164 62.3875 42.7991 63.048C44.3818 63.7085 46.0811 64.0442 47.796 64.0352C49.511 64.0263 51.2067 63.6729 52.7824 62.9959C54.3581 62.319 55.7818 61.3323 56.9689 60.0946L68.6335 48.255L68.8959 48.4883L77.6444 57.0909C77.886 57.332 78.0777 57.6184 78.2085 57.9336C78.3392 58.2489 78.4065 58.5868 78.4065 58.9281C78.4065 59.2694 78.3392 59.6074 78.2085 59.9226C78.0777 60.2379 77.886 60.5242 77.6444 60.7653L63.0636 75.3461C61.7222 75.3461 58.8935 75.4919 52.6529 75.7835C46.8206 76.046 43.9045 76.1918 42.3006 76.425V76.2792C38.4719 76.4634 34.7202 77.4214 31.2719 79.0954C27.8237 80.7694 24.7503 83.1247 22.2374 86.0192L3.92396 107.249C1.78873 109.701 0.666797 112.875 0.785949 116.124C0.905101 119.374 2.2564 122.456 4.56552 124.746C5.69261 125.899 7.06308 126.785 8.57672 127.34C10.0904 127.895 11.7089 128.104 13.314 127.954C15.5067 127.859 17.6562 127.313 19.6282 126.349C21.6002 125.386 23.3522 124.026 24.7745 122.355L41.4549 103.02C41.9551 102.477 42.643 102.143 43.3796 102.087L60.7307 101.3C61.0461 101.283 61.3617 101.331 61.6576 101.442C61.9536 101.552 62.2238 101.722 62.4512 101.941L71.7829 111.273C72.2017 111.708 72.4356 112.288 72.4356 112.892C72.4356 113.495 72.2017 114.075 71.7829 114.51L42.3006 143.876C40.5413 145.57 39.3031 147.731 38.7322 150.106C38.1613 152.48 38.2815 154.968 39.0785 157.277C39.8756 159.585 41.3162 161.617 43.2306 163.134C45.1449 164.65 47.453 165.587 49.8826 165.834H51.1657C52.8459 165.833 54.5093 165.5 56.0605 164.854C57.6118 164.209 59.0204 163.263 60.2058 162.073L78.7525 143.526C79.8673 145.138 81.3078 146.499 82.981 147.521C85.0546 148.611 87.3259 149.273 89.6603 149.468C91.9946 149.663 94.3443 149.388 96.5703 148.658C110.16 145.071 108.818 140.114 117.712 141.485C127.773 143.001 136.551 143.38 142.558 132.357C144.545 127.938 145.016 122.986 143.899 118.272C143.899 117.485 143.695 116.756 143.608 116.026C145.029 116.327 146.473 116.513 147.924 116.581C151.148 116.729 154.367 116.207 157.379 115.047C160.39 113.888 163.129 112.116 165.421 109.844L178.223 97.0423C179.579 95.697 180.616 94.0646 181.258 92.2654C181.9 90.4661 182.13 88.5458 181.931 86.6459C181.732 84.746 181.11 82.9149 180.11 81.2873C179.11 79.6597 177.757 78.2772 176.152 77.2416ZM70.5873 17.9561C70.966 17.4082 71.4596 16.9496 72.0338 16.6121C72.608 16.2747 73.2488 16.0666 73.9117 16.0023C78.3867 14.891 82.6924 13.1844 86.7136 10.9282C92.8376 7.7204 95.6371 6.29148 103.015 12.1238C104.764 13.4339 106.197 15.1205 107.206 17.0588C108.216 18.9971 108.776 21.1375 108.847 23.3218C108.95 26.4164 110.114 29.3815 112.143 31.7204C109.287 38.1023 108.923 45.3217 111.122 51.9585C111.122 52.3376 110.247 53.7665 109.518 53.0375L99.5739 43.0934C88.2592 31.837 82.8935 24.1675 71.1705 22.8261H70.9956C70.2315 21.3176 70.0851 19.5708 70.5873 17.9561ZM138.067 119.059C138.986 122.595 138.762 126.332 137.426 129.732C133.576 136.819 129.173 137.489 118.616 135.885C106.952 134.107 107.71 139.881 95.083 143.205C93.3842 143.872 91.5424 144.091 89.7346 143.84C87.9268 143.59 86.2137 142.879 84.7598 141.776C84.0471 141.109 83.4465 140.331 82.981 139.472L119.987 102.35C120.228 102.108 120.514 101.916 120.83 101.786C121.145 101.655 121.483 101.588 121.824 101.588C122.165 101.588 122.503 101.655 122.819 101.786C123.134 101.916 123.42 102.108 123.661 102.35C129.494 108.182 132.06 111.361 137.513 114.014C137.596 115.706 137.781 117.39 138.067 119.059ZM174.111 92.8139L161.396 105.732C159.661 107.445 157.587 108.775 155.307 109.639C153.027 110.503 150.592 110.881 148.157 110.748C137.951 110.369 132.789 102.729 127.919 98.2379C126.305 96.7542 124.192 95.9308 121.999 95.9308C119.806 95.9308 117.694 96.7542 116.079 98.2379L56.0648 158.019C55.3428 158.754 54.4644 159.316 53.4951 159.665C52.5257 160.013 51.4903 160.138 50.4658 160.031C49.1326 159.901 47.8655 159.387 46.8176 158.553C45.7697 157.718 44.9857 156.598 44.5602 155.328C44.1347 154.058 44.086 152.692 44.4198 151.394C44.7536 150.097 45.4558 148.924 46.4415 148.017L75.9239 118.505C76.6795 117.754 77.2792 116.862 77.6884 115.878C78.0976 114.895 78.3083 113.84 78.3083 112.775C78.3083 111.71 78.0976 110.655 77.6884 109.672C77.2792 108.688 76.6795 107.795 75.9239 107.045L66.5922 97.6547C62.3637 93.3971 57.3771 96.1091 43.2629 96.1091C42.1114 96.1598 40.9823 96.4445 39.9445 96.9458C38.9067 97.4472 37.9819 98.1547 37.2265 99.0253L20.4002 118.418C19.4979 119.481 18.389 120.35 17.1408 120.971C15.8926 121.593 14.5312 121.954 13.139 122.034C12.3386 122.122 11.5287 122.031 10.7673 121.769C10.006 121.507 9.31211 121.08 8.73562 120.517C7.50034 119.275 6.77839 117.613 6.71355 115.862C6.6487 114.111 7.24571 112.4 8.38568 111.069L26.5533 90.0143C28.5476 87.71 30.9906 85.8363 33.7331 84.5076C36.4757 83.1789 39.4603 82.4232 42.5047 82.2865C43.9045 82.2865 62.4512 81.3242 64.1426 81.3242C64.9076 81.321 65.6407 81.0173 66.1839 80.4785L81.6687 64.9937C83.2355 63.4551 84.1271 61.3572 84.1474 59.1614C84.1502 58.0505 83.9325 56.9502 83.507 55.924C83.0815 54.8978 82.4567 53.9663 81.6687 53.1833L72.9202 44.5806C72.0403 43.4802 70.7813 42.7478 69.3898 42.5266C67.9983 42.3055 66.5743 42.6116 65.3965 43.385L52.5946 56.1869C51.8628 56.9235 50.9749 57.4865 49.9966 57.8344C49.0183 58.1823 47.9743 58.3062 46.9417 58.1971C45.9092 58.088 44.9142 57.7485 44.0302 57.2038C43.1462 56.6591 42.3957 55.9229 41.834 55.0496C41.0082 53.6792 40.6684 52.0704 40.8694 50.483C41.0705 48.8957 41.8007 47.4224 42.9421 46.3012L55.8024 33.4992C57.5109 31.8166 59.547 30.503 61.7844 29.6402C64.0217 28.7773 66.4126 28.3836 68.8084 28.4834C74.1491 28.6828 79.2148 30.903 82.981 34.6948L95.4913 47.2052L105.465 57.1784C106.067 57.7883 106.784 58.2725 107.575 58.6029C108.366 58.9332 109.215 59.1033 110.072 59.1031C111.147 59.0703 112.201 58.7943 113.154 58.2957C114.107 57.7971 114.935 57.089 115.574 56.2245C116.214 55.36 116.65 54.3617 116.849 53.3046C117.047 52.2475 117.004 51.1591 116.721 50.1213C115.424 46.2625 115.225 42.1192 116.147 38.154C117.069 34.1889 119.075 30.558 121.941 27.6669C123.985 25.5767 126.439 23.9307 129.149 22.8319C131.858 21.733 134.765 21.2049 137.688 21.2805C140.608 21.3102 143.491 21.9329 146.163 23.111C148.835 24.289 151.24 25.9978 153.231 28.1335C157.082 32.3026 159.171 37.799 159.062 43.4731C158.954 49.1473 156.655 54.5597 152.648 58.5782C149.772 61.439 146.152 63.4364 142.199 64.3436C138.245 65.2508 134.116 65.0315 130.281 63.7106C128.924 63.3289 127.48 63.3985 126.166 63.9089C124.852 64.4193 123.739 65.3429 122.995 66.5405C122.252 67.7381 121.918 69.1449 122.043 70.549C122.168 71.9531 122.747 73.2785 123.691 74.3254C144.483 96.6632 147.778 96.7215 149.003 96.7507C149.458 96.7935 149.917 96.7287 150.342 96.5616C150.768 96.3944 151.148 96.1295 151.452 95.7883L164.079 83.1905C165.191 82.0352 166.664 81.2931 168.254 81.0864C169.844 80.8796 171.457 81.2206 172.828 82.0532C173.725 82.6064 174.485 83.3559 175.051 84.2452C175.616 85.1345 175.973 86.1406 176.094 87.1877C176.214 88.2347 176.096 89.2955 175.748 90.2902C175.399 91.285 174.829 92.1877 174.082 92.9305L174.111 92.8139ZM21.2168 11.4239H13.2557C12.4823 11.4239 11.7405 11.7312 11.1936 12.278C10.6467 12.8249 10.3395 13.5667 10.3395 14.3401C10.3395 15.1135 10.6467 15.8552 11.1936 16.4021C11.7405 16.949 12.4823 17.2562 13.2557 17.2562H21.2168C21.9902 17.2562 22.7319 16.949 23.2788 16.4021C23.8257 15.8552 24.1329 15.1135 24.1329 14.3401C24.1329 13.5667 23.8257 12.8249 23.2788 12.278C22.7319 11.7312 21.9902 11.4239 21.2168 11.4239Z" fill="white"/>
<path d="M1.00781 27.9585C1.00781 28.7319 1.31505 29.4736 1.86193 30.0205C2.40882 30.5674 3.15056 30.8746 3.92397 30.8746H30.4318C31.2052 30.8746 31.947 30.5674 32.4939 30.0205C33.0408 29.4736 33.348 28.7319 33.348 27.9585V25.5964H43.9628C44.4903 25.595 45.0076 25.4505 45.4595 25.1783C45.9115 24.9061 46.2811 24.5165 46.529 24.0508C46.7589 23.5923 46.8638 23.0812 46.833 22.5692C46.8023 22.0572 46.6371 21.5624 46.354 21.1347L32.8814 1.42144C32.6271 1.02179 32.2725 0.695731 31.8529 0.475729C31.4334 0.255727 30.9635 0.149455 30.4902 0.167495H3.92397C3.15056 0.167495 2.40882 0.474732 1.86193 1.02162C1.31505 1.5685 1.00781 2.31024 1.00781 3.08365V27.9585ZM33.348 19.7641V12.5028L38.3929 19.7641H33.348ZM6.84013 6.08729H27.5157V25.0423H6.84013V6.08729Z" fill="white"/>
</svg>
