<svg width="174" height="174" viewBox="0 0 174 174" fill="none" xmlns="http://www.w3.org/2000/svg">
<mask id="mask0_610_43946" style="mask-type:luminance" maskUnits="userSpaceOnUse" x="0" y="0" width="174" height="174">
<path d="M0 0H174V174H0V0Z" fill="white"/>
</mask>
<g mask="url(#mask0_610_43946)">
<path d="M157.477 75.9075H149.32C148.599 75.9075 147.908 76.1939 147.398 76.7038C146.888 77.2136 146.602 77.9052 146.602 78.6262V92.22H138.445V51.4387C138.445 50.7177 138.159 50.0261 137.649 49.5163C137.139 49.0064 136.448 48.72 135.727 48.72H130.289V35.1262C130.289 34.4052 130.003 33.7136 129.493 33.2038C128.983 32.6939 128.291 32.4075 127.57 32.4075H124.852V18.8137C124.852 18.0927 124.565 17.4011 124.055 16.8913C123.545 16.3814 122.854 16.095 122.133 16.095H116.695V7.93872C116.695 7.21766 116.409 6.52614 115.899 6.01627C115.389 5.50641 114.698 5.21997 113.977 5.21997C113.256 5.21997 112.564 5.50641 112.054 6.01627C111.544 6.52614 111.258 7.21766 111.258 7.93872V16.095H105.82C105.099 16.095 104.408 16.3814 103.898 16.8913C103.388 17.4011 103.102 18.0927 103.102 18.8137V32.4075H100.383C99.6618 32.4075 98.9702 32.6939 98.4604 33.2038C97.9505 33.7136 97.6641 34.4052 97.6641 35.1262V48.72H92.2266C91.5055 48.72 90.814 49.0064 90.3041 49.5163C89.7943 50.0261 89.5078 50.7177 89.5078 51.4387V59.595H84.0703V51.4387C84.0703 50.7177 83.7839 50.0261 83.274 49.5163C82.7641 49.0064 82.0726 48.72 81.3516 48.72H78.6328V40.5637C78.6328 39.8427 78.3464 39.1511 77.8365 38.6413C77.3266 38.1314 76.6351 37.845 75.9141 37.845C75.193 37.845 74.5015 38.1314 73.9916 38.6413C73.4818 39.1511 73.1953 39.8427 73.1953 40.5637V48.72H70.4766C69.7555 48.72 69.064 49.0064 68.5541 49.5163C68.0443 50.0261 67.7578 50.7177 67.7578 51.4387V116.689C67.7578 117.41 68.0443 118.101 68.5541 118.611C69.064 119.121 69.7555 119.407 70.4766 119.407C71.1976 119.407 71.8891 119.121 72.399 118.611C72.9089 118.101 73.1953 117.41 73.1953 116.689V65.0325H89.5078V116.689C89.5078 117.41 89.7943 118.101 90.3041 118.611C90.814 119.121 91.5055 119.407 92.2266 119.407C92.9476 119.407 93.6391 119.121 94.149 118.611C94.6589 118.101 94.9453 117.41 94.9453 116.689V108.532H103.102V116.689C103.102 117.41 103.388 118.101 103.898 118.611C104.408 119.121 105.099 119.407 105.82 119.407C106.541 119.407 107.233 119.121 107.743 118.611C108.253 118.101 108.539 117.41 108.539 116.689V108.532H119.414V116.689C119.414 117.41 119.701 118.101 120.21 118.611C120.72 119.121 121.412 119.407 122.133 119.407C122.854 119.407 123.545 119.121 124.055 118.611C124.565 118.101 124.852 117.41 124.852 116.689V97.6575H133.008V116.689C133.008 117.41 133.294 118.101 133.804 118.611C134.314 119.121 135.006 119.407 135.727 119.407C136.448 119.407 137.139 119.121 137.649 118.611C138.159 118.101 138.445 117.41 138.445 116.689V97.6575H146.602V149.314C146.602 150.035 146.888 150.726 147.398 151.236C147.908 151.746 148.599 152.032 149.32 152.032H157.477C158.919 152.032 160.302 152.605 161.321 153.625C162.341 154.645 162.914 156.028 162.914 157.47C162.914 158.912 162.341 160.295 161.321 161.315C160.302 162.335 158.919 162.907 157.477 162.907H37.8516V148.196C37.8516 147.475 37.5651 146.784 37.0553 146.274C36.5454 145.764 35.8539 145.478 35.1328 145.478C34.4118 145.478 33.7202 145.764 33.2104 146.274C32.7005 146.784 32.4141 147.475 32.4141 148.196V165.626C32.4141 166.347 32.7005 167.039 33.2104 167.549C33.7202 168.059 34.4118 168.345 35.1328 168.345H157.477C160.361 168.345 163.127 167.199 165.166 165.16C167.206 163.12 168.352 160.354 168.352 157.47V86.7825C168.352 83.8982 167.206 81.1321 165.166 79.0927C163.127 77.0532 160.361 75.9075 157.477 75.9075ZM73.1953 59.595V54.1575H78.6328V59.595H73.1953ZM108.539 86.7825H119.414V92.22H108.539V86.7825ZM108.539 81.345V75.9075H119.414V81.345H108.539ZM94.9453 75.9075H103.102V81.345H94.9453V75.9075ZM119.414 54.1575V59.595H108.539V54.1575H119.414ZM108.539 65.0325H119.414V70.47H108.539V65.0325ZM124.852 65.0325H133.008V81.345H124.852V65.0325ZM133.008 59.595H124.852V54.1575H133.008V59.595ZM119.414 48.72V37.845H124.852V48.72H119.414ZM108.539 21.5325H119.414V32.4075H108.539V21.5325ZM103.102 37.845H113.977V48.72H103.102V37.845ZM94.9453 54.1575H103.102V70.47H94.9453V54.1575ZM94.9453 103.095V86.7825H103.102V103.095H94.9453ZM119.414 103.095H108.539V97.6575H119.414V103.095ZM124.852 86.7825H133.008V92.22H124.852V86.7825ZM157.477 146.595H152.039V81.345H157.477C158.919 81.345 160.302 81.9178 161.321 82.9376C162.341 83.9573 162.914 85.3404 162.914 86.7825V148.055C161.263 147.096 159.386 146.592 157.477 146.595Z" fill="#3B3D41"/>
<path d="M57.6992 97.6575H59.6023C60.3234 97.6575 61.0149 97.371 61.5248 96.8612C62.0347 96.3513 62.3211 95.6598 62.3211 94.9387C62.3211 94.2177 62.0347 93.5261 61.5248 93.0163C61.0149 92.5064 60.3234 92.22 59.6023 92.22H57.6992C56.9782 92.22 56.2866 92.5064 55.7768 93.0163C55.2669 93.5261 54.9805 94.2177 54.9805 94.9387C54.9805 95.6598 55.2669 96.3513 55.7768 96.8612C56.2866 97.371 56.9782 97.6575 57.6992 97.6575Z" fill="#3B3D41"/>
<path d="M81.3516 75.9075C82.8531 75.9075 84.0703 74.6902 84.0703 73.1887C84.0703 71.6872 82.8531 70.47 81.3516 70.47C79.85 70.47 78.6328 71.6872 78.6328 73.1887C78.6328 74.6902 79.85 75.9075 81.3516 75.9075Z" fill="#3B3D41"/>
<path d="M81.3516 86.7825C82.8531 86.7825 84.0703 85.5652 84.0703 84.0637C84.0703 82.5622 82.8531 81.345 81.3516 81.345C79.85 81.345 78.6328 82.5622 78.6328 84.0637C78.6328 85.5652 79.85 86.7825 81.3516 86.7825Z" fill="#3B3D41"/>
<path d="M81.3516 97.6575C82.8531 97.6575 84.0703 96.4402 84.0703 94.9387C84.0703 93.4372 82.8531 92.22 81.3516 92.22C79.85 92.22 78.6328 93.4372 78.6328 94.9387C78.6328 96.4402 79.85 97.6575 81.3516 97.6575Z" fill="#3B3D41"/>
<path d="M81.3516 108.532C82.8531 108.532 84.0703 107.315 84.0703 105.814C84.0703 104.312 82.8531 103.095 81.3516 103.095C79.85 103.095 78.6328 104.312 78.6328 105.814C78.6328 107.315 79.85 108.532 81.3516 108.532Z" fill="#3B3D41"/>
<path d="M35.8147 136.236C35.956 136.635 36.1877 136.995 36.4917 137.289L54.1472 154.006C54.6524 154.485 55.3219 154.751 56.0177 154.751H135.726C136.447 154.751 137.139 154.465 137.648 153.955C138.158 153.445 138.445 152.753 138.445 152.032V130.282C138.445 129.561 138.158 128.87 137.648 128.36C137.139 127.85 136.447 127.564 135.726 127.564C135.005 127.564 134.313 127.85 133.804 128.36C133.294 128.87 133.007 129.561 133.007 130.282V135.965C129.674 136.534 126.6 138.124 124.209 140.515C121.818 142.906 120.228 145.981 119.658 149.314H100.382V130.282C100.382 129.561 100.096 128.87 99.586 128.36C99.0761 127.85 98.3846 127.564 97.6635 127.564H81.351C80.63 127.564 79.9384 127.85 79.4286 128.36C78.9187 128.87 78.6323 129.561 78.6323 130.282V149.314H59.0573L61.4878 128.186C61.5437 127.66 61.4435 127.128 61.1996 126.658L37.1659 60.522L33.4467 50.3049L31.5979 45.1855C30.3653 41.7965 27.8368 39.036 24.5689 37.5113C21.3009 35.9865 17.561 35.8224 14.1721 37.0551C10.7831 38.2877 8.02261 40.8162 6.49786 44.0841C4.97311 47.3521 4.80901 51.0919 6.04165 54.4809L11.6287 69.8174L18.5724 88.8921C18.8321 89.5512 19.3389 90.0829 19.9848 90.3739C20.6307 90.665 21.3647 90.6924 22.0305 90.4504C22.6964 90.2084 23.2414 89.716 23.5497 89.0782C23.8579 88.4403 23.905 87.7073 23.6809 87.0352L17.667 70.5134L22.7783 68.6538L45.0938 129.97L39.9526 131.84L27.4002 97.255C27.2782 96.9194 27.0914 96.6111 26.8503 96.3477C26.6092 96.0843 26.3186 95.8709 25.9951 95.7198C25.6716 95.5687 25.3215 95.4828 24.9647 95.4671C24.608 95.4513 24.2517 95.5059 23.9161 95.6278C23.5805 95.7498 23.2722 95.9366 23.0088 96.1777C22.7454 96.4187 22.532 96.7093 22.3809 97.0329C22.2298 97.3564 22.1439 97.7065 22.1281 98.0632C22.1123 98.42 22.167 98.7763 22.2889 99.1119L35.7685 136.264L35.8147 136.236ZM133.007 141.5V149.314H125.196C125.685 147.434 126.667 145.719 128.04 144.346C129.413 142.972 131.128 141.99 133.007 141.5ZM84.0698 133.001H94.9448V138.439H92.226C91.505 138.439 90.8134 138.725 90.3036 139.235C89.7937 139.745 89.5073 140.436 89.5073 141.157C89.5073 141.878 89.7937 142.57 90.3036 143.08C90.8134 143.59 91.505 143.876 92.226 143.876H94.9448V149.314H84.0698V133.001ZM16.0331 42.1758C18.0657 41.4361 20.309 41.5341 22.2694 42.4483C24.2298 43.3625 25.7468 45.0179 26.4867 47.0506L27.4165 49.6062L12.0882 55.1851L11.1583 52.6294C10.4186 50.5968 10.5166 48.3535 11.4308 46.3931C12.345 44.4327 14.0004 42.9157 16.0331 42.1758ZM15.8074 65.4048L13.9478 60.2963L29.2761 54.7174L31.1357 59.826L15.8074 65.4048ZM27.8868 66.7941L32.9953 64.9345L55.2891 126.261L50.2105 128.11L27.8868 66.7941ZM55.5936 131.933L53.9379 146.323L43.4217 136.367L55.5936 131.933Z" fill="#3B3D41"/>
</g>
</svg>
