<svg width="30" height="30" viewBox="0 0 30 30" fill="none" xmlns="http://www.w3.org/2000/svg">
<mask id="mask0_865_17155" style="mask-type:luminance" maskUnits="userSpaceOnUse" x="0" y="0" width="30" height="30">
<path d="M29.5 29.5V0.5H0.5V29.5H29.5Z" fill="white" stroke="white"/>
</mask>
<g mask="url(#mask0_865_17155)">
<path d="M8.16527 19.8782C8.16527 21.2981 7.0142 22.4492 5.59436 22.4492C4.17445 22.4492 3.02344 21.2981 3.02344 19.8782C3.02344 18.4584 4.17445 17.3073 5.59436 17.3073C7.0142 17.3073 8.16527 18.4584 8.16527 19.8782Z" stroke="#3B3D41" stroke-miterlimit="10" stroke-linecap="round" stroke-linejoin="round"/>
<path d="M25.3528 19.8782C25.3528 21.2981 24.2018 22.4492 22.7819 22.4492C21.362 22.4492 20.2109 21.2981 20.2109 19.8782C20.2109 18.4584 21.362 17.3073 22.7819 17.3073C24.2018 17.3073 25.3528 18.4584 25.3528 19.8782Z" stroke="#3B3D41" stroke-miterlimit="10" stroke-linecap="round" stroke-linejoin="round"/>
<path d="M16.8642 19.8781H20.2119C20.2119 18.4583 21.3626 17.3075 22.783 17.3075C24.2027 17.3075 25.3535 18.4583 25.3535 19.8781H28.6552L29.4141 18.5509V17.4405C29.4141 17.1687 29.3818 16.8985 29.3191 16.6361C29.1006 15.6892 28.4425 14.8302 27.672 14.2654C27.184 13.9064 26.6289 13.649 26.0396 13.5083L22.4602 12.6499L19.2896 9.41848C18.709 8.827 18.0163 8.35716 17.252 8.03642C16.4877 7.71569 15.6671 7.55048 14.8383 7.55046H3.43061L4.12775 8.41676C4.37385 8.72245 4.33406 9.16799 4.03775 9.42528L1.02826 12.0388V15.3897L0.585938 16.2236V18.5509L1.47123 19.8781H3.02162C3.02162 18.4583 4.17299 17.3075 5.59277 17.3075C7.0125 17.3075 8.16387 18.4583 8.16387 19.8781H11.7085" stroke="#3B3D41" stroke-miterlimit="10" stroke-linecap="round" stroke-linejoin="round"/>
<path d="M29.3143 16.6133H26.9002C26.7892 16.6134 26.6792 16.5915 26.5766 16.549C26.4741 16.5064 26.3809 16.4441 26.3025 16.3654C26.2237 16.2871 26.1613 16.194 26.1187 16.0914C26.0762 15.9888 26.0544 15.8788 26.0547 15.7677C26.0547 15.48 26.2005 15.2117 26.4425 15.0564L27.673 14.2654C28.4456 14.832 29.0836 15.6709 29.3143 16.6133Z" stroke="#3B3D41" stroke-miterlimit="10" stroke-linecap="round" stroke-linejoin="round"/>
<path d="M19.1415 13.3443C16.761 13.156 7.2938 12.3839 4.9974 12.1966C4.8045 12.1809 4.72265 11.9434 4.86462 11.8118L6.94997 9.87986C7.07853 9.76074 7.24733 9.69456 7.42259 9.69459H14.3914C15.697 9.69459 16.9393 10.2571 17.8006 11.2382L19.326 12.9759C19.4577 13.1259 19.3405 13.3602 19.1415 13.3443Z" stroke="#3B3D41" stroke-miterlimit="10" stroke-linecap="round" stroke-linejoin="round"/>
<path d="M12.6758 9.69452V12.822" stroke="#3B3D41" stroke-miterlimit="10" stroke-linecap="round" stroke-linejoin="round"/>
<path d="M12.6758 15.5565H13.9862" stroke="#3B3D41" stroke-miterlimit="10" stroke-linecap="round" stroke-linejoin="round"/>
<path d="M4.80078 14.7421H6.11129" stroke="#3B3D41" stroke-miterlimit="10" stroke-linecap="round" stroke-linejoin="round"/>
</g>
</svg>
