<svg width="236" height="137" viewBox="0 0 236 137" fill="none" xmlns="http://www.w3.org/2000/svg">
<path fill-rule="evenodd" clip-rule="evenodd" d="M85.2802 136.756H2.68591C0.610677 136.756 -0.634463 134.543 0.333979 132.744L32.4309 73.3924C33.6761 71.1788 38.795 72.0089 43.3605 72.0089C46.8192 65.9215 78.7778 10.167 79.7462 9.33686L88.4622 1.45097C89.7073 0.205834 91.9209 0.62088 92.751 2.14272L114.61 46.1376C118.622 46.1376 124.571 45.4459 125.955 47.2444L138.129 62.6012C138.821 63.5696 138.96 64.9531 138.129 65.9215L87.4938 135.649C87.0787 136.341 86.2486 136.756 85.2802 136.756ZM7.38977 131.222H83.8967L132.457 64.2613L122.496 51.6716H112.95C111.843 51.6716 110.875 51.1182 110.46 50.1498L89.4306 7.95337L83.7583 13.0723L47.2342 76.1594C45.9891 78.3729 41.1469 77.5428 36.5814 77.5428L7.38977 131.222Z" fill="#3B3D41"/>
<path fill-rule="evenodd" clip-rule="evenodd" d="M233.181 136.756H85.2856C83.0721 136.756 81.8269 134.266 83.0721 132.467L154.598 33.8244C155.844 32.1642 158.334 32.4409 159.302 34.1011L187.525 86.6736L207.033 86.5353C208.001 86.5353 208.97 86.9503 209.385 87.7804L235.671 132.605C236.639 134.542 235.394 136.756 233.181 136.756ZM90.8196 131.222H228.338L205.511 92.0692L185.865 92.2076C184.897 92.2076 183.928 91.6542 183.375 90.8241L156.535 40.6035L90.8196 131.222Z" fill="#3B3D41"/>
<path fill-rule="evenodd" clip-rule="evenodd" d="M141.587 100.923C140.065 100.923 138.958 99.8166 138.82 98.2948L137.713 84.0448L120.973 88.7487C117.376 89.7171 115.992 84.3215 119.451 83.3531L139.65 77.8191C141.31 77.4041 142.97 78.5109 143.108 80.3094L143.8 89.5788L150.856 78.5109L154.038 35.2077C154.315 31.6106 159.849 32.0257 159.572 35.6227C159.295 40.6033 156.805 79.4793 155.837 80.8628L143.939 99.6783C143.385 100.508 142.555 100.923 141.587 100.923ZM210.069 115.312C209.378 115.312 208.686 115.035 208.132 114.482L183.921 91.3773C181.293 88.887 185.166 84.8749 187.795 87.3652L206.334 105.074L204.259 89.5788C203.844 85.9817 209.378 85.1516 209.793 88.887L212.836 112.13C213.113 113.928 211.591 115.312 210.069 115.312ZM73.934 72.9769C72.5505 72.9769 71.3054 71.8701 71.3054 70.4866L70.1986 54.9916L56.502 58.727C54.1501 59.4187 52.0749 56.7901 53.32 54.7149L79.7446 9.33646L88.4606 1.31222C90.2592 -0.347962 93.1645 1.17387 93.0261 3.66415C92.6111 8.92141 89.9825 50.2877 89.014 51.6712L76.2859 71.7318C75.8709 72.5619 74.9024 72.9769 73.934 72.9769ZM72.6889 48.6275C74.0723 48.6275 75.3175 49.7343 75.4558 51.1178L76.1476 61.6323L84.0335 49.3193L86.9388 10.1666L83.7568 13.0719L61.4826 51.5329L72.6889 48.6275ZM58.3006 136.756H18.3178C16.1042 136.756 14.7207 134.404 15.9658 132.467L44.0506 90.8239C45.2958 89.0254 47.7861 89.1637 48.7545 90.9623L57.6088 107.287C61.3442 105.489 64.3879 102.999 66.4632 104.52C67.2933 105.212 67.7083 106.319 67.4316 107.287C67.4316 107.564 63.8345 124.719 60.9292 134.819C60.6525 135.926 59.5457 136.756 58.3006 136.756ZM23.4367 131.222H56.2253C57.7472 125.134 59.6841 117.249 60.7909 111.853C53.8734 115.45 55.8103 115.727 46.1259 97.7414L23.4367 131.222Z" fill="#3B3D41"/>
</svg>
