<svg width="40" height="57" viewBox="0 0 40 57" fill="none" xmlns="http://www.w3.org/2000/svg">
<mask id="path-1-outside-1_437_16095" maskUnits="userSpaceOnUse" x="0" y="0" width="40" height="57" fill="black">
<rect fill="white" width="40" height="57"/>
<path fill-rule="evenodd" clip-rule="evenodd" d="M35.4971 27.0019C35.4965 27.0023 35.4958 27.0016 35.4961 27.001C36.4622 24.866 37 22.4958 37 20C37 10.6112 29.3888 3 20 3C10.6112 3 3 10.6112 3 20C3 29.3888 10.6112 37 20 37C20.429 37 20.7536 37.4036 20.6407 37.8175L16.6802 52.3394C16.38 53.44 17.8608 54.1041 18.4831 53.148L32.662 31.3608C32.6894 31.3188 32.7199 31.2789 32.7531 31.2413C33.8615 29.9847 34.7872 28.5631 35.4884 27.0179C35.4885 27.0177 35.4886 27.0175 35.4887 27.0173L35.4981 27.0029C35.4986 27.0022 35.4978 27.0015 35.4971 27.0019Z"/>
</mask>
<path fill-rule="evenodd" clip-rule="evenodd" d="M35.4971 27.0019C35.4965 27.0023 35.4958 27.0016 35.4961 27.001C36.4622 24.866 37 22.4958 37 20C37 10.6112 29.3888 3 20 3C10.6112 3 3 10.6112 3 20C3 29.3888 10.6112 37 20 37C20.429 37 20.7536 37.4036 20.6407 37.8175L16.6802 52.3394C16.38 53.44 17.8608 54.1041 18.4831 53.148L32.662 31.3608C32.6894 31.3188 32.7199 31.2789 32.7531 31.2413C33.8615 29.9847 34.7872 28.5631 35.4884 27.0179C35.4885 27.0177 35.4886 27.0175 35.4887 27.0173L35.4981 27.0029C35.4986 27.0022 35.4978 27.0015 35.4971 27.0019Z" fill="#40AE39"/>
<path d="M35.4981 27.0029L38.0125 28.6393L35.4981 27.0029ZM35.4884 27.0179L32.7566 25.7781L35.4884 27.0179ZM35.4887 27.0173L38.0031 28.6538L35.4887 27.0173ZM32.662 31.3608L30.1476 29.7244L32.662 31.3608ZM32.7531 31.2413L35.0028 33.2259L32.7531 31.2413ZM20.6407 37.8175L17.7464 37.0281L20.6407 37.8175ZM16.6802 52.3394L19.5745 53.1287L16.6802 52.3394ZM18.4831 53.148L20.9975 54.7843L18.4831 53.148ZM35.4961 27.001L32.7629 25.7642L35.4961 27.001ZM34 20C34 22.0609 33.5566 24.0101 32.7629 25.7642L38.2293 28.2378C39.3677 25.7219 40 22.9307 40 20H34ZM20 6C27.732 6 34 12.268 34 20H40C40 8.95431 31.0457 0 20 0V6ZM6 20C6 12.268 12.268 6 20 6V0C8.95431 0 0 8.95431 0 20H6ZM20 34C12.268 34 6 27.732 6 20H0C0 31.0457 8.95431 40 20 40V34ZM19.5745 53.1287L23.535 38.6068L17.7464 37.0281L13.7859 51.55L19.5745 53.1287ZM30.1476 29.7244L15.9687 51.5116L20.9975 54.7843L35.1765 32.9971L30.1476 29.7244ZM32.7566 25.7781C32.1797 27.0492 31.4175 28.2204 30.5033 29.2567L35.0028 33.2259C36.3056 31.749 37.3946 30.0769 38.2203 28.2577L32.7566 25.7781ZM32.9838 25.3664L32.9744 25.3809L38.0031 28.6538L38.0125 28.6393L32.9838 25.3664ZM38.0125 28.6393C39.7843 25.9169 36.5703 22.7125 33.8532 24.4924L37.1411 29.5114C34.4253 31.2904 31.2128 28.0875 32.9838 25.3664L38.0125 28.6393ZM38.2203 28.2577C38.158 28.3949 38.0854 28.5273 38.0031 28.6538L32.9744 25.3809C32.8918 25.5077 32.819 25.6405 32.7566 25.7781L38.2203 28.2577ZM35.1765 32.9971C35.1206 33.083 35.0618 33.159 35.0028 33.2259L30.5033 29.2567C30.378 29.3988 30.2582 29.5545 30.1476 29.7244L35.1765 32.9971ZM20 40C18.5614 40 17.3101 38.628 17.7464 37.0281L23.535 38.6068C24.1971 36.1792 22.2965 34 20 34V40ZM13.7859 51.55C12.5852 55.9524 18.5085 58.6088 20.9975 54.7843L15.9687 51.5116C17.2131 49.5994 20.1748 50.9275 19.5745 53.1287L13.7859 51.55ZM32.7629 25.7642C31.5191 28.5128 34.6402 31.1497 37.1411 29.5114L33.8532 24.4924C36.3529 22.8549 39.4724 25.4905 38.2293 28.2378L32.7629 25.7642Z" fill="black" mask="url(#path-1-outside-1_437_16095)"/>
<circle cx="20" cy="20" r="11" fill="white"/>
</svg>
