<svg width="40" height="40" viewBox="0 0 40 40" fill="none" xmlns="http://www.w3.org/2000/svg">
<mask id="mask0_422_25303" style="mask-type:luminance" maskUnits="userSpaceOnUse" x="0" y="0" width="40" height="40">
<path d="M39.5 39.5V0.5H0.5V39.5H39.5Z" fill="white" stroke="white"/>
</mask>
<g mask="url(#mask0_422_25303)">
<path d="M31.3015 26.2027C31.3015 26.2027 30.301 25.3337 28.7589 25.7712C27.3429 26.1729 26.9913 27.9975 27.9535 28.7082C28.506 29.1163 29.3373 29.4519 30.4578 29.8249C32.9655 30.6597 32.0385 33.9902 29.4877 34.0062C28.4922 34.0124 28.0267 33.9529 27.1523 33.4142" stroke="white" stroke-miterlimit="10" stroke-linecap="round" stroke-linejoin="round"/>
<path d="M29.4805 24.862V34.8848" stroke="white" stroke-miterlimit="10" stroke-linecap="round" stroke-linejoin="round"/>
<path d="M4.08594 5.95651V4.37745C4.08594 4.25216 4.13571 4.132 4.22431 4.0434C4.3129 3.9548 4.43307 3.90503 4.55836 3.90503H27.9034C28.0286 3.90503 28.1488 3.9548 28.2374 4.0434C28.326 4.132 28.3758 4.25216 28.3758 4.37745V10.2725C28.3758 10.3977 28.326 10.5179 28.2374 10.6065C28.1488 10.6951 28.0286 10.7449 27.9034 10.7449H4.55836C4.43307 10.7449 4.31292 10.6951 4.22433 10.6065C4.13574 10.5179 4.08596 10.3977 4.08594 10.2725V8.69589" stroke="white" stroke-miterlimit="10" stroke-linecap="round" stroke-linejoin="round"/>
<path d="M7.57469 18.3772H4.67875C4.62911 18.3772 4.57996 18.3674 4.53411 18.3484C4.48825 18.3294 4.44658 18.3016 4.41149 18.2665C4.37639 18.2314 4.34855 18.1897 4.32955 18.1439C4.31056 18.098 4.30078 18.0489 4.30078 17.9992V15.1033C4.30077 15.0536 4.31054 15.0045 4.32953 14.9586C4.34852 14.9128 4.37636 14.8711 4.41146 14.836C4.44656 14.8009 4.48823 14.773 4.53409 14.754C4.57995 14.735 4.62911 14.7252 4.67875 14.7252H7.57469C7.62433 14.7252 7.67348 14.735 7.71935 14.754C7.76521 14.773 7.80688 14.8009 7.84198 14.836C7.87708 14.8711 7.90492 14.9128 7.92391 14.9586C7.9429 15.0045 7.95267 15.0536 7.95266 15.1033V17.9992C7.95266 18.0995 7.91283 18.1956 7.84195 18.2665C7.77107 18.3374 7.67493 18.3772 7.57469 18.3772Z" stroke="white" stroke-miterlimit="10" stroke-linecap="round" stroke-linejoin="round"/>
<path d="M14.3091 18.3772H11.4132C11.313 18.3772 11.2168 18.3374 11.1459 18.2665C11.075 18.1956 11.0352 18.0995 11.0352 17.9992V15.1033C11.0352 15.003 11.075 14.9069 11.1459 14.836C11.2168 14.7651 11.3129 14.7252 11.4132 14.7252H14.3091C14.3588 14.7252 14.4079 14.735 14.4538 14.754C14.4997 14.773 14.5413 14.8009 14.5764 14.836C14.6115 14.8711 14.6394 14.9128 14.6584 14.9586C14.6774 15.0045 14.6871 15.0536 14.6871 15.1033V17.9992C14.6871 18.0995 14.6473 18.1956 14.5764 18.2665C14.5055 18.3374 14.4094 18.3772 14.3091 18.3772Z" stroke="white" stroke-miterlimit="10" stroke-linecap="round" stroke-linejoin="round"/>
<path d="M21.0513 18.3772H18.1554C18.1057 18.3772 18.0566 18.3674 18.0107 18.3484C17.9649 18.3295 17.9232 18.3016 17.8881 18.2665C17.853 18.2314 17.8251 18.1898 17.8061 18.1439C17.7871 18.098 17.7773 18.0489 17.7773 17.9992V15.1033C17.7773 15.0536 17.7871 15.0045 17.8061 14.9586C17.8251 14.9127 17.8529 14.8711 17.888 14.8359C17.9232 14.8008 17.9648 14.773 18.0107 14.754C18.0566 14.735 18.1057 14.7252 18.1554 14.7252H21.0513C21.101 14.7252 21.1501 14.735 21.196 14.754C21.2419 14.773 21.2835 14.8009 21.3186 14.836C21.3537 14.8711 21.3816 14.9128 21.4005 14.9586C21.4195 15.0045 21.4293 15.0536 21.4293 15.1033V17.9992C21.4293 18.0995 21.3895 18.1956 21.3186 18.2665C21.2477 18.3374 21.1516 18.3772 21.0513 18.3772Z" stroke="white" stroke-miterlimit="10" stroke-linecap="round" stroke-linejoin="round"/>
<path d="M27.7934 18.3772H24.8975C24.8479 18.3772 24.7987 18.3674 24.7529 18.3484C24.707 18.3294 24.6653 18.3016 24.6302 18.2665C24.5951 18.2314 24.5673 18.1897 24.5483 18.1439C24.5293 18.098 24.5195 18.0489 24.5195 17.9992V15.1033C24.5195 15.0536 24.5293 15.0045 24.5483 14.9586C24.5673 14.9128 24.5951 14.8711 24.6302 14.836C24.6653 14.8009 24.707 14.773 24.7528 14.754C24.7987 14.735 24.8479 14.7252 24.8975 14.7252H27.7934C27.8431 14.7252 27.8922 14.735 27.9381 14.754C27.984 14.773 28.0256 14.8009 28.0607 14.836C28.0958 14.8711 28.1237 14.9128 28.1427 14.9586C28.1616 15.0045 28.1714 15.0536 28.1714 15.1033V17.9992C28.1714 18.0995 28.1316 18.1956 28.0607 18.2665C27.9898 18.3374 27.8937 18.3772 27.7934 18.3772Z" stroke="white" stroke-miterlimit="10" stroke-linecap="round" stroke-linejoin="round"/>
<path d="M7.57469 25.5095H4.67875C4.62911 25.5095 4.57996 25.4997 4.53411 25.4808C4.48825 25.4618 4.44658 25.4339 4.41149 25.3988C4.37639 25.3637 4.34855 25.3221 4.32955 25.2762C4.31056 25.2303 4.30078 25.1812 4.30078 25.1316V22.2356C4.30078 22.1354 4.3406 22.0392 4.41148 21.9683C4.48236 21.8974 4.5785 21.8576 4.67875 21.8576H7.57469C7.67494 21.8576 7.77108 21.8974 7.84196 21.9683C7.91284 22.0392 7.95266 22.1354 7.95266 22.2356V25.1316C7.95266 25.2318 7.91283 25.3279 7.84195 25.3988C7.77107 25.4697 7.67493 25.5095 7.57469 25.5095Z" stroke="white" stroke-miterlimit="10" stroke-linecap="round" stroke-linejoin="round"/>
<path d="M14.3091 25.5095H11.4132C11.313 25.5095 11.2168 25.4697 11.1459 25.3988C11.075 25.3279 11.0352 25.2318 11.0352 25.1316V22.2356C11.0352 22.1354 11.075 22.0392 11.1459 21.9683C11.2168 21.8974 11.3129 21.8576 11.4132 21.8576H14.3091C14.4094 21.8576 14.5055 21.8974 14.5764 21.9683C14.6473 22.0392 14.6871 22.1354 14.6871 22.2356V25.1316C14.6871 25.2318 14.6473 25.3279 14.5764 25.3988C14.5055 25.4697 14.4094 25.5095 14.3091 25.5095Z" stroke="white" stroke-miterlimit="10" stroke-linecap="round" stroke-linejoin="round"/>
<path d="M14.3091 32.6414H11.4132C11.313 32.6414 11.2168 32.6015 11.1459 32.5307C11.075 32.4598 11.0352 32.3636 11.0352 32.2634V29.3674C11.0352 29.2671 11.075 29.171 11.1459 29.1001C11.2168 29.0292 11.313 28.9894 11.4132 28.9894H14.3091C14.4094 28.9894 14.5055 29.0292 14.5764 29.1001C14.6473 29.171 14.6871 29.2671 14.6871 29.3674V32.2634C14.6871 32.3636 14.6473 32.4598 14.5764 32.5307C14.5055 32.6015 14.4094 32.6414 14.3091 32.6414Z" stroke="white" stroke-miterlimit="10" stroke-linecap="round" stroke-linejoin="round"/>
<path d="M39.0858 29.8731C39.0858 35.1424 34.8141 39.4141 29.5448 39.4141C24.2755 39.4141 20.0039 35.1424 20.0039 29.8731C20.0039 24.6038 24.2755 20.3322 29.5448 20.3322C34.8141 20.3322 39.0858 24.6038 39.0858 29.8731Z" stroke="white" stroke-miterlimit="10" stroke-linecap="round" stroke-linejoin="round"/>
<path d="M36.7322 29.8732C36.7322 33.8432 33.5139 37.0615 29.5438 37.0615C25.5738 37.0615 22.3555 33.8432 22.3555 29.8732C22.3555 25.9032 25.5738 22.6848 29.5438 22.6848C33.5139 22.6848 36.7322 25.9032 36.7322 29.8732Z" stroke="white" stroke-miterlimit="10" stroke-linecap="round" stroke-linejoin="round"/>
<path d="M7.57469 32.6414H4.67875C4.62911 32.6414 4.57996 32.6316 4.53411 32.6126C4.48825 32.5936 4.44658 32.5658 4.41149 32.5307C4.37639 32.4956 4.34855 32.4539 4.32955 32.408C4.31056 32.3622 4.30078 32.313 4.30078 32.2634V29.3674C4.30078 29.3177 4.31056 29.2686 4.32955 29.2227C4.34855 29.1769 4.37639 29.1352 4.41149 29.1001C4.44658 29.065 4.48825 29.0372 4.53411 29.0182C4.57996 28.9992 4.62911 28.9894 4.67875 28.9894H7.57469C7.67493 28.9894 7.77107 29.0292 7.84195 29.1001C7.91283 29.171 7.95266 29.2671 7.95266 29.3674V32.2634C7.95266 32.3636 7.91283 32.4598 7.84195 32.5307C7.77107 32.6015 7.67493 32.6414 7.57469 32.6414Z" stroke="white" stroke-miterlimit="10" stroke-linecap="round" stroke-linejoin="round"/>
<path d="M31.5493 17.7964V3.41739C31.5493 1.85348 30.2815 0.585666 28.7175 0.585666H3.74976C2.18578 0.585666 0.917969 1.85348 0.917969 3.41739V34.8958C0.917969 36.4597 2.18578 37.7275 3.74976 37.7275H21.0496" stroke="white" stroke-miterlimit="10" stroke-linecap="round" stroke-linejoin="round"/>
<path d="M21.4293 24.8473V22.2356C21.4293 22.186 21.4195 22.1368 21.4005 22.0909C21.3816 22.0451 21.3537 22.0034 21.3186 21.9683C21.2835 21.9332 21.2419 21.9053 21.196 21.8863C21.1501 21.8673 21.101 21.8576 21.0513 21.8576H18.1554C18.1057 21.8576 18.0566 21.8673 18.0107 21.8863C17.9648 21.9053 17.9232 21.9332 17.888 21.9683C17.8529 22.0034 17.8251 22.0451 17.8061 22.0909C17.7871 22.1368 17.7773 22.186 17.7773 22.2356V25.1316C17.7773 25.1812 17.7871 25.2304 17.8061 25.2762C17.8251 25.3221 17.853 25.3637 17.8881 25.3988C17.9232 25.4339 17.9649 25.4618 18.0107 25.4808C18.0566 25.4998 18.1057 25.5095 18.1554 25.5095H21.0513L21.0534 25.5094" stroke="white" stroke-miterlimit="10" stroke-linecap="round" stroke-linejoin="round"/>
<path d="M20.0399 28.9894H18.1553C18.0551 28.9894 17.9589 29.0292 17.888 29.1001C17.8172 29.171 17.7773 29.2671 17.7773 29.3674V32.2633C17.7773 32.313 17.7871 32.3621 17.8061 32.408C17.8251 32.4538 17.8529 32.4955 17.888 32.5306C17.9231 32.5657 17.9648 32.5936 18.0107 32.6126C18.0565 32.6316 18.1057 32.6414 18.1553 32.6414H20.4072" stroke="white" stroke-miterlimit="10" stroke-linecap="round" stroke-linejoin="round"/>
</g>
</svg>
